<?xml version="1.0" encoding="UTF-8" standalone="no"?>
<!-- Generator: Adobe Illustrator 16.0.4, SVG Export Plug-In . SVG Version: 6.00 Build 0)  -->
<!DOCTYPE svg  PUBLIC '-//W3C//DTD SVG 1.1//EN'  'http://www.w3.org/Graphics/SVG/1.1/DTD/svg11.dtd'>
<svg id="Layer_1" xmlns="http://www.w3.org/2000/svg" xml:space="preserve" height="221.17px" viewBox="0 0 2500 221.167" width="2500px" version="1.1" y="0px" x="0px" xmlns:xlink="http://www.w3.org/1999/xlink" enable-background="new 0 0 2500 221.167">
<path d="m1373.6 39.002c-0.343 0-0.674 0.04-0.992 0.111-0.42-3.937-3.749-7-7.795-7-1.098 0-2.141 0.227-3.086 0.632-1.443-1.176-3.283-1.883-5.289-1.883-3.506 0-6.504 2.155-7.752 5.211-0.154-0.012-0.312-0.023-0.469-0.023-2.346 0-4.359 1.4-5.268 3.408-0.169-0.021-0.34-0.036-0.514-0.036-2.264 0-8.902 2.483-8.902 4.744 0 2.262 6.641 3.446 8.902 3.446 0.994 0 1.904-0.356 2.614-0.946 0.909 0.597 1.995 0.946 3.165 0.946 1.404 0 2.691-0.502 3.693-1.335 1.306 0.841 2.855 1.335 4.525 1.335 1.494 0 2.895-0.396 4.107-1.082 1.229 0.799 2.691 1.267 4.268 1.267 1.878 0 3.602-0.662 4.951-1.762 0.812 1.26 2.225 2.096 3.836 2.096 2.521 0 10.373-1.444 10.373-3.965 0-2.52-7.8-5.164-10.3-5.164z" fill="#C6F1FF"/>
<path d="m1464.9 46.398c0.427 0 0.843 0.056 1.242 0.156 0.526-5.494 2.188-7.848 7.257-7.848 1.374 0 5.188-1.608 6.373-1.042 1.807-1.642 5.856-4.706 8.369-4.706 4.391 0 6.403 5.086 7.967 9.352 0.193-0.017 0.387-0.033 0.585-0.033 2.938 0 5.463 1.955 6.6 4.758 0.212-0.03 0.425-0.05 0.644-0.05 2.832 0 11.816 2.838 11.816 5.996s-8.984 5.438-11.816 5.438c-1.247 0-2.389-0.497-3.275-1.321-1.142 0.833-2.5 1.321-3.966 1.321-1.76 0-3.37-0.701-4.626-1.864-1.637 1.174-3.578 1.864-5.67 1.864-1.871 0-3.625-0.554-5.146-1.51-1.539 1.115-3.371 1.769-5.345 1.769-2.354 0-4.511-0.923-6.201-2.46-1.019 1.759-2.787 2.927-4.807 2.927-3.156 0-12.352-1.672-12.352-5.192s9.2-7.555 12.3-7.555z" fill="#C6F1FF"/>
<path d="m1164.8 29.916c-0.496 0-0.979 0.054-1.442 0.15-0.612-5.302-5.462-9.432-11.354-9.432-1.598 0-3.115 0.305-4.498 0.852-2.101-1.585-8.568-1.978-11.494-1.978-5.104 0-5.684 2.344-7.502 6.462-0.226-0.016-0.449-0.031-0.681-0.031-3.417 0-6.354 1.886-7.674 4.591-0.245-0.028-0.494-0.048-0.748-0.048-3.294 0-15.726 3.634-15.726 6.681s12.432 4.354 15.726 4.354c1.45 0 2.776-0.48 3.812-1.275 1.326 0.804 2.908 1.275 4.61 1.275 2.046 0 3.921-0.676 5.38-1.799 1.903 1.133 4.162 1.799 6.594 1.799 2.178 0 4.217-0.534 5.985-1.458 1.79 1.076 3.921 1.707 6.216 1.707 2.734 0 5.244-0.891 7.211-2.375 1.186 1.698 3.242 2.825 5.588 2.825 3.674 0 14.401-1.657 14.401-5.054 0-3.395-10.8-7.246-14.4-7.246z" fill="#C6F1FF"/>
<path d="m1284.1 25.489c-0.304 0-0.597 0.033-0.878 0.091-0.371-3.219-3.316-5.727-6.896-5.727-0.969 0-1.892 0.186-2.729 0.518-1.275-0.962-5.203-1.201-6.979-1.201-3.101 0-3.451 1.423-4.556 3.923-0.138-0.01-0.272-0.019-0.413-0.019-2.074 0-3.857 1.146-4.659 2.788-0.148-0.019-0.3-0.029-0.454-0.029-2 0-9.547 2.207-9.547 4.057s7.547 2.644 9.547 2.644c0.881 0 1.688-0.292 2.313-0.774 0.806 0.488 1.767 0.774 2.8 0.774 1.241 0 2.381-0.411 3.268-1.092 1.154 0.688 2.527 1.092 4.002 1.092 1.322 0 2.562-0.325 3.635-0.885 1.087 0.653 2.382 1.036 3.773 1.036 1.661 0 3.186-0.541 4.379-1.441 0.719 1.031 1.969 1.715 3.394 1.715 2.229 0 8.743-1.006 8.743-3.068s-6.4-4.402-8.6-4.402z" fill="#C6F1FF"/>
<path d="m1221.2 5.357c-0.229 0-0.455 0.025-0.672 0.07-0.284-2.465-2.539-4.386-5.279-4.386-0.741 0-1.447 0.142-2.092 0.396-0.977-0.737-3.984-0.919-5.345-0.919-2.374 0-2.646 1.09-3.489 3.005-0.104-0.008-0.209-0.015-0.313-0.015-1.591 0-2.954 0.877-3.569 2.135-0.113-0.013-0.229-0.022-0.348-0.022-1.531 0-7.312 1.69-7.312 3.106 0 1.417 5.779 2.025 7.312 2.025 0.675 0 1.293-0.223 1.771-0.593 0.615 0.374 1.354 0.593 2.146 0.593 0.95 0 1.821-0.314 2.501-0.836 0.885 0.527 1.936 0.836 3.064 0.836 1.012 0 1.961-0.249 2.783-0.678 0.832 0.5 1.823 0.793 2.891 0.793 1.271 0 2.438-0.414 3.354-1.104 0.549 0.79 1.507 1.313 2.598 1.313 1.708 0 6.697-0.771 6.697-2.35s-5.1-3.369-6.8-3.369z" fill="#C6F1FF"/>
<path d="m0 89.746s15.601-8.608 45.003-0.51 41.922-0.477 68.999-0.788c24.332-5.782 50.349-5.624 61.007-0.703s42.321 6.828 53.989-0.625 35.349-2.953 46.009-0.537c10.66 2.416 16.829-0.197 25.338-0.297 15.182-0.178 24.004 5.201 45.997-0.542s67.98 1.256 83.32 6.256 27.992-3.095 38.33-7.714 16.964-0.207 25.342-0.31c9.092-0.111 12.979-5.02 26.987-0.331s21.537-0.266 32.016-0.397c22.786-0.285 51.67 7.265 64.998-0.825s12.664 3.077 25.996-0.34 26.242-0.35 38.018-0.512c7.753-0.106 6.98-6.376 21.981-0.308s36.043-0.534 47.331-0.735c11.464-0.204 17.939-0.36 18.336-0.456 42.951-10.37 84.855 0.696 87-2.071 2.146-2.767 57.25-23.914 72.25-18.835s16.709 11.734 28.436 13.71c11.729 1.976 51.314-8.21 61.814-7.21s35.908 15.381 44.5 14 32.867-33.52 50.25-30.875c30.667 4.667 38.359-5.898 47.359-5.898s132.07 12.802 156.56 6.44c21.167-5.5 22.706-9.792 36.834-1.605s28.5 12.272 40.5 9.272 21.753 8.167 32.25 8.167 36.584 0.368 50.584-1.5 35.489 27 56.489 10 66.1 13.75 102.1 3.333 83 15.989 88 14.828c1.009-0.234 16.333-5.828 54.348 0.603 13.881 2.348 36.92-3.952 47.311 0.809 10.389 4.761 39.254 0.706 61.361 1.116 14.092 0.262 21.625 5.158 42.313-0.355s53.767 1.939 74.667 7.372c10.268 2.669 21.287-5.996 41.333-7.372 12.698-0.871 35.247 6.78 43.654 4.233 21.68-6.566 49.987 14.82 74.013 4.206 24.025-10.614 26.782 4.79 41.199 3.538s77.875-11.981 101.54 1.308c23.66 13.29 73.615-8.043 82.266-4.845 12.008 4.441 13.557 6.131 18.333 6.228 27.993 0.568 57.333-5.686 69.333-2.676s24.334 0.498 24.334 0.498v78.178l-2500-6v-88.924h0.1z" fill="#68ABC0"/>
<path d="m2500 122.17s-27.52 0.433-31.76-1.16c-4.24-1.592-3.488 1.381-9.739-0.354s-8.302-4.353-21.776-0.794c-13.474 3.559-60.436 4.516-70.955-2.588-10.519-7.103-42.02-14.104-47.52-11.104s-8.5-1.5-16 2.5c-7.5 4-29.25 8-38 3.5s-23.75-3.75-23.75-3.75-57.99 6.157-65.49 0.544-25.26-9.522-33.26-6.521-4.268-12.018-28.5-5.772-45.471 9.733-45.471 9.733l-24.006-0.875s-23.259 2.348-43.517-1.588-26.6-15.19-31.1-15.783c-3.789-0.496-2.667 7.167-16.333 7.167-7.276 0-5.131 10.493-14.167 7.106-19.996-7.495-36.166 4.561-45.499 3.228s-24.032-9.548-32.667-14.667-30.666 15.333-50.333 13.333-20.001-14-28.334-16.667-44.63 4.247-54.981 6.29c-10.351 2.043-36.176-11.508-48.3-13.29-12.125-1.782-23.358-0.5-23.358-0.5s-14.889 5.635-25.783 3.567c-10.896-2.067-12.291-24.394-26.189-21.629-13.897 2.765-61.51 21.492-61.51 21.492l-10.662-8.306s-4-4.129-12.845-2.193-19.372 10.654-19.372 10.654-34.523-18.109-39.469-18.473c-4.945-0.363-11.686-3.302-12.695-4.207-3.25-2.906-11.238-2.234-16.245 0.805-5.005 3.039-10.583 2.003-16.005 4.039-26.354 9.897-57 25.778-57 25.778s-31.934-43.646-44-54.335-70.9 12.635-70.9 12.635l-63.5-9.833s-22.704 6.65-30.261 12.167c-2.739 2-8.993-5.021-12.118-5.771-3.211-0.771-7.58 8.556-12.455 10.104s-0.008-2.959-9.625 2.125c-9.046 4.783-15.375 0.875-26.375-0.125s-11.151-0.049-18-2.049-11.104 3.181-20.385 10.782-56 15.517-56 15.517-18.639-6.931-28.75-16.125c-0.924-0.84-3.472-1.402-4.375-2.125-1.154-0.923-3.035-3.205-4.125-3.875-1.903-1.17-3.076 0.985-4.625 0.875-2.23-0.158-4.331 0.196-7.25 2.125-1.012 0.668-3.704 2.667-4.75 3.5-1.626 1.294-7.379 0.571-9.01 2.121-8.836 8.403-11.782 19.582-11.782 19.582s-49.85-19.328-58.52-20.995-43.33 21.333-43.33 21.333-42.167 2.833-50 0.412c-0.323-0.1-10.267-3.956-25.833-3.912-7.969 0.022-20.668 4.748-31.833 4.833-11.624 0.088-21.837-4.461-36.333-4.315-3.107 0.031-12.152 7.156-15.375 7.19-9.791 0.103-17.41-5.792-27.75-2.875-12.38 3.491-35.924-18.51-44.542-12.833s-4.507 2.895-12.833 3c-11.384 0.144-25.939 18.18-37.75 18.333-10.16 0.132-12.37-3.889-22.75-3.75-1.831 0.024-14.164 5.931-16 5.956-9.994 0.134-21-1.661-30-6.456-13.948-7.431-8.5-1.25-21.75-4.25-22.618-5.121-19.498 8.814-41.852 6.354-25.808-2.839-103.66 5.38-128.15-0.854-20.014-5.095-52.917 14.5-71.25 0.333-7.539-5.825-13.833 7.833-20.167 5.939-9.879-2.955-19.687 5.263-28.333 5.395-32.875 0.499-27.735-6.612-38.167-8.167-11.61-1.731-32.523-7.165-41.928-2.333s-29.239 7.5-47.718 2.731c-10.499-2.709-26.704 3.22-26.704 3.22v57.378l2500 0.459v-38.96z" fill="#4A7D88"/>
<path d="m2477.7 133.32s-82.697-26.911-110.68-19.538c-27.985 7.371-59.5-2.363-90 4.553-30.5 6.918-49-16.765-58.75-12.167-10.006 4.718-14.75-11.75-26.5-3.728-19.168 13.087-58.75 6.728-77.25 14.729-18.5 8-45.5-32.5-55.5-24s-29.5 7.5-40.5 17c-11 9.5-59.79 17.769-79 13.5-22.5-5-56.834-13.219-68.167-15.333-9.097-1.696-19.333 6.667-28.833 5.448-9.5-1.223-9.75 0.637-23.167 3.602s-47.833-8.715-51.083-10.894c-3.25-2.179-21 8.98-27.916 8.98-5.665 0-22.733-25.349-36.418-34.25h0.734l-1.742-3.712h0.738l-1.312-2.789h0.35l-2.182-4.637-2.183 4.637h0.351l-1.312 2.789h0.739l-0.417 0.888c-0.748-0.157-1.479-0.252-2.18-0.228-1.409 0.05-2.845 0.227-4.298 0.496l-0.854-1.816h0.479l-0.854-1.808h0.229l-1.414-3.005-1.414 3.005h0.229l-0.854 1.808h0.479l-1.132 2.406h0.739l-0.259 0.549c-0.384 0.115-0.768 0.235-1.153 0.359l-1.395-2.968h0.875l-1.556-3.305h0.413l-2.585-5.494-2.585 5.494h0.416l-1.557 3.305h0.877l-2.068 4.397h1.354l-0.907 1.928c-8.503 3.648-16.844 7.863-23.711 8.149-5.024 0.209-8.071 2.861-10.378 5.512l-0.71-1.509h0.354l-2.209-4.696-2.21 4.696h0.354l-1.313 2.79-0.345-0.778h0.259l-1.614-3.652-1.616 3.652h0.259l-0.973 2.196h0.549l-0.422 0.953c-2.474-2.019-4.827-4.165-6.938-6.223-5.176-5.047-8.923-9.51-9.565-9.939-4.051-2.7-41.479-41-48.999-35.651-3.408 2.423-10.776-5.404-17.354-6.974-7.936-1.895-17.45 0.164-21.5-0.75-7.2-1.673-16.4 15.374-27.4 14.374-9.163-0.833-29.075 19.539-43.564 26.661l-0.393-0.835h0.504l-0.895-1.901h0.238l-1.488-3.162-1.486 3.162h0.238l-0.896 1.901h0.506l-1.189 2.531h0.715c-0.443 0.139-0.883 0.262-1.312 0.362l-0.561-1.188h1.155l-1.768-3.759h0.748l-1.328-2.825h0.354l-2.21-4.696-2.21 4.696h0.355l-1.33 2.825h0.75l-1.771 3.759h1.156l-0.574 1.22c-1.14-0.191-2.263-0.456-3.374-0.78l-0.406-0.922h0.604l-0.926-2.094h0.392l-0.696-1.574h0.188l-1.158-2.617-1.157 2.617h0.188l-0.697 1.574h0.395l-0.713 1.608c-8.895-3.633-17.152-9.895-26.383-9.895-2.21 0-4.227-0.301-6.099-0.805l-0.437-0.981h0.606l-0.926-2.094h0.392l-0.696-1.574h0.188l-1.158-2.617-1.158 2.617h0.188l-0.697 1.574h0.393l-0.703 1.593c-0.45-0.215-0.894-0.441-1.322-0.679l-0.198-0.447h0.433l-0.658-1.488h0.279l-0.496-1.119h0.133l-0.824-1.86-0.822 1.86h0.134l-0.495 1.119h0.277l-0.188 0.426c-9.729-6.71-14.747-18.141-23.889-13.69-6.028 2.935-16.129 2.313-29 11.5-0.962 0.686-1.884 1.293-2.777 1.843l-0.263-0.593h0.476l-0.843-1.904h0.225l-1.401-3.165-1.399 3.165h0.226l-0.844 1.904h0.476l-1.13 2.529h0.732l-0.039 0.088c-7.522 3.395-13.312 2.01-22.212 0.191l-0.673-1.518h0.928l-1.417-3.2h0.601l-1.063-2.407h0.282l-1.771-4-1.771 4h0.284l-1.063 2.407h0.6l-1.416 3.2h0.927l-0.179 0.402c-0.961-0.187-1.948-0.455-2.955-0.798l-0.938-2.123h1.51l-2.309-5.216h0.979l-1.735-3.923h0.464l-2.889-6.52-2.885 6.52h0.463l-1.734 3.923h0.979l-1.174 2.652c-12.272-7.862-24.187-20.959-24.187-20.959l-8.616-11.305s-24.468-18.53-32.968-19.696-37.593 9.495-37.593 9.495l-23.9 13.895s-4.655 5.032-10 2.803c-3.111-1.297-7.781 9.011-11.427 10.807-1.829 0.901-16.7 9.491-18.638 10.437-6.479 3.163-11.683 5.423-16.326 7.263v-20.7c0.086-0.131 0.146-0.277 0.146-0.445 0-0.457-0.37-0.826-0.826-0.826-0.457 0-0.827 0.37-0.827 0.826 0 0.167 0.062 0.313 0.147 0.444v0.764c-1.249 0.02-5.646 0.133-5.003 0.775 0.729 0.732-4.974 0.987-5.193 0.997l1.137 2.247-1.135 2.432c0.25 0.06 6.801 1.643 5.727 0.568-0.94-0.939 3.25 0.046 4.47 0.347v13.101c-7.029 2.725-12.9 4.561-20.251 7.271-3.127 1.153-6.074 2.117-8.866 2.929l-1.235-2.791h0.905l-1.604-3.627h0.429l-2.669-6.03-2.669 6.03h0.429l-1.604 3.627h0.903l-2.136 4.825h1.167c-0.854 0.18-1.701 0.35-2.521 0.5l-0.298-0.67h0.699l-1.24-2.807h0.328l-2.062-4.666-2.066 4.666h0.332l-1.242 2.807h0.7l-0.668 1.508c-10.69 1.289-18.134 0.19-23.964 0.046l-0.466-1.054h0.492l-0.753-1.701h0.317l-0.564-1.279h0.148l-0.938-2.125-0.94 2.125h0.15l-0.566 1.279h0.32l-0.754 1.701h0.491l-0.389 0.875c-0.581-0.064-1.207-0.151-1.854-0.25l-0.46-1.041h0.724l-1.104-2.5h0.47l-0.833-1.88h0.222l-1.383-3.125-1.385 3.125h0.223l-0.832 1.88h0.469l-1.105 2.5h0.725l-0.104 0.238c-0.727-0.151-1.475-0.315-2.24-0.489l-0.938-2.123h0.604l-1.076-2.43h0.7l-1.787-4.04-1.788 4.04h0.287l-1.076 2.43h0.606l-0.381 0.858c-15.359-3.875-35.225-10.165-42.748-10.143-1.88 0.006-3.778 0.26-5.674 0.661l-1.097-2.476h0.671l-1.189-2.688h0.316l-1.979-4.469-1.979 4.469h0.318l-1.19 2.688h0.672l-1.582 3.575h1.033l-0.317 0.723c-0.618 0.217-1.23 0.442-1.841 0.671l-0.83-1.877h0.427l-0.758-1.71h0.202l-1.26-2.843-1.259 2.843h0.203l-0.758 1.71h0.427l-1.007 2.274h0.658l-0.619 1.398c-4.282 1.718-8.194 3.269-11.366 3.453-2.252 0.13-10.446 5.194-15.797 0.484-12.801-11.269-22.443-21.677-28.892-24.609-9.95-4.56-32.06 15.617-32.06 15.617s-5.223 10.685-12.842 9.885c-7.617-0.8-11.186 7.384-26 3.667-0.465-0.117-0.965-0.211-1.498-0.285l-0.086-0.195h0.51l-0.777-1.76h0.328l-0.586-1.323h0.156l-0.974-2.2-0.976 2.2h0.156l-0.586 1.323h0.33l-0.779 1.76h-0.056l-0.499-1.126h0.235l-0.417-0.943h0.109l-0.692-1.567-0.694 1.567h0.111l-0.417 0.943h0.233l-0.541 1.223c-3.309 0.223-7.146 0.822-11.271 1.681l-0.531-1.2h0.33l-0.586-1.323h0.156l-0.976-2.2-0.974 2.2h0.156l-0.586 1.323h0.33l-0.778 1.76h0.509l-0.042 0.095c-0.447 0.103-0.896 0.208-1.349 0.316l-0.92-2.081h0.426l-0.757-1.71h0.202l-1.26-2.843-1.259 2.843h0.202l-0.758 1.71h0.428l-1.008 2.274h0.658l-0.409 0.925c-18.73 4.936-39.54 13.099-43.18 15.281-4.024 2.415-15.05 4.991-21.493-2.028-3.34-3.639-8.673 0.869-12.84-2.639-10.72-9.025-42.118 15.275-51.182 6.762-9.16-8.6-18.99-7.433-21.66-11.1s-12 4.167-15.67 7.302c-3.67 3.135-77.67 6.611-77.67 6.611l-12.854 0.315s-28.289 12.18-37.306 5.438c-9.667-7.228-21.333-6.772-26-10.333s-9.333-2.667-23.667 12c-14.334 14.666-38.068 1.539-51.119-3.721-13.051-5.261-21.214-28.612-39.549-19.03s-41.319 3.617-48.506-3.671c-7.188-7.288-8.742 6.506-16.504 5.265-29.537-4.725-25.238 30.992-69.238 16.992-10.031-3.192-5.686 4.63-18.75-7.5-3.5-3.25-28.5 22.75-47.5 24.75-16.106 1.695-33.413-25.083-48.25-18.25s-36.307-6.101-45 0-16.583 5.5-26.231 10.257c-9.638 4.75-56.009 1.37-56.009 1.37v73.871h2500v-57.81l-22.3-0.54zm-1644.3-53.464c-0.165-0.002-0.332-0.003-0.5-0.003h0.5v0.003zm803.6 20.022l-0.001-0.002h0.002v0.002zm0.3-0.598l-0.349-0.786h0.718l-0.4 0.786z" fill="#4C5A5B"/>
<path d="m876.51 66.782s-0.357 2.911 4.768 1.919c4.78-0.926 4.991-4.146 7.477-3.066 2.363 1.028-0.948 4.124 0.5 4.521 3.625 0.992 5.15-1.848 8-2.315 5.385-0.881 3 5.622 5.875 3.748 2.641-1.721 3.417-12.088 5.75-8.267 4.939 8.09 8 10.252 9.625 4.515 1.724-6.082 7.893-2.116 9.27-0.953s-19.604-20.215-29.603-21.933c-9.54-1.637-21.68 21.831-21.68 21.831z" fill="#fff"/>
<path d="m1194.2 20.662s3.189 2.505 5.605 1.005c3.99-2.477 11.25-1.333 4.5 5.167s4.539 5.333 6.25 3.833c1.712-1.5 3.834-3.333 6.334 0.417s-8.895 12.111-1.475 11.133c6.625-0.873 14.504-8.248 17.891-11.723 3.568-3.661 0.984 13.298 5.984 13.298 3.333 0 4.284-6.127 7.75-10.458 2.667-3.333 4.443 7.833 7.334 0.833 0.832-2.016-0.004-3.215 5.682-2 0.389 0.083 6.734 1.678 5.062-0.833-3.592-5.385-25.451-35.667-38.076-30.417-11 4.332-32.8 18.984-32.8 19.745z" fill="#fff"/>
<path d="m1565.3 48.338c-1.657-1.668-4.31-7.377-5.835-9.814-1.525-2.438-3.182-6.595-7.467-7.31s-10.326 2.869-14.66 5.827-4.809 3.245-9.695 3.581c-4.889 0.336-4.766 2.208-5.039 2.403 0 0 0.026 2.807 3.026 2.307s7.499 3 5.333 5.167-1.859 4.833 0.57 3.333c2.429-1.5 5.381-1.759 6.18-2.625 1.5-1.625 4.291-0.208 1.625 4.083-2.239 3.604 3.666 5.167 6 1s4.863-8.667 6.696-6 0.7 5.429 3.407 4.951c2.834-0.5 2.558-3.04 3.654-4.336 2.438-2.875 2.018 0.175 4.615-0.99 1.209-0.542-0.953 6.99 1.791 5.833 1.584-0.667 4.399-1.428 5.605-1.399 2.625 0.062 3.16 1.786 3.854 1.19 2.688-2.312 5.318 0.567 6.438-0.562 0.988-0.999-9.625-7.062-11.688-7.188-2-0.126-3 1.94-4.4 0.549z" fill="#fff"/>
<path d="m1369.7 55.417c-0.33 0.256-1.354 2.896 0.229 2.562 1.584-0.334 4.134-1.828 5.967-1.25 1.832 0.578 2.307 1.612 3.473 1.279s-0.25-2.008 1-1.842 2.007 1.346 2.938 1c0.932-0.346-0.65-1.951-0.65-1.951s-1.544-2.435-5.119-2.361-7.5 2.306-7.8 2.563z" fill="#fff"/>
<path d="m1073.1 57.114c0.346 0.23 1.561 2.789-0.042 2.573-1.603-0.217-4.255-1.522-6.04-0.812-1.786 0.71-2.182 1.776-3.37 1.53-1.188-0.247 0.104-2.021-1.132-1.764-1.235 0.257-1.902 1.489-2.855 1.212s0.508-1.994 0.508-1.994 1.361-2.541 4.934-2.729 7.7 1.753 8 1.984z" fill="#fff"/>
<path d="m1290 35.708c-0.584 0.195-1.697 3.336 1.012 3.293 0.99-0.016 2.252-0.37 3.604-0.77 0.443-0.132 2.188-1.109 1.98 1.265-0.205 2.33 0.833 2.038 1.625 1.371 1.165-0.982 2.777-2.38 4-2.576 2.548-0.407 1.25 1.205 3.125 1.375 2 0.181 1.697-3.101 3.791-2.708s3.215 2.287 4.824 2.112c1.607-0.175-0.893-2.059-0.893-2.059s-2.346-2.976-8.393-3.553c-6-0.577-14 2.056-14.6 2.25z" fill="#fff"/>
<path d="m767.52 135.64c24.276-5.75 210.92-55.814 361-17.401 145.59 37.263 292.56 7.317 348-4.452 97.952-20.799 241.53 17.842 253.39 25.073 71.264 22.978 102.24 6.369 269.93 5.921 45.791-0.122 96.895 15.931 152.92 11.9 261.2-18.79 347.3 14.63 347.3 14.63v51.271l-2500-1.5v-43.902s140.15-49.354 323.14-31.059c69.888 6.986 153.99-12.429 230.26-14.786 107.78-3.32 199.9 7.67 214.12 4.31z" fill="#B5C049"/>
		<path d="m1421.7 130.07c-3.264-0.427-65.244-8.435-138.38-11.762-7.614-23.538-29.712-40.562-55.784-40.562-25.991 0-48.025 16.916-55.714 40.336-75.812 3.326-142.55 12.402-145.96 12.871-17.434 2.398-29.623 18.475-27.227 35.912 2.19 15.963 15.854 27.53 31.53 27.53 1.443 0 2.905-0.101 4.379-0.302 0.459-0.061 22.219-3.02 54.471-6.145v23.717h20v-25.547c33.859-2.912 75.16-5.506 114.87-5.506 47.196 0 95.903 3.336 132.13 6.581v24.474h15v-23.068c25.57 2.492 42.035 4.617 42.43 4.669 1.403 0.183 2.794 0.271 4.169 0.271 15.761 0 29.463-11.692 31.561-27.742 2.2-17.44-10.1-33.43-27.5-35.71z" fill="#592F1A"/>
		<path d="m1421.7 127.06c-3.264-0.425-65.244-8.433-138.38-11.761-7.614-23.541-29.712-40.563-55.784-40.563-25.991 0-48.025 16.917-55.714 40.338-75.812 3.323-142.55 12.401-145.96 12.871-17.434 2.395-29.623 18.473-27.227 35.906 2.19 15.967 15.854 27.533 31.53 27.533 1.443 0 2.905-0.1 4.379-0.301 0.98-0.137 99.26-13.486 189.34-13.486 91.457 0 188.59 12.531 189.56 12.658 1.403 0.188 2.794 0.271 4.169 0.271 15.761 0 29.463-11.693 31.561-27.742 2.2-17.45-10.1-33.45-27.5-35.73z" fill="#C16C33"/>
		<path d="m1030.2 186.28c-13.279 0-24.657-9.938-26.469-23.118-2.009-14.615 8.246-28.14 22.859-30.15 2.825-0.387 70.039-9.518 145.49-12.826l3.528-0.154 1.104-3.357c7.229-22.022 27.666-36.82 50.857-36.82 23.292 0 43.757 14.879 50.923 37.025l1.091 3.371 3.539 0.162c72.745 3.311 135.32 11.381 137.95 11.723 14.629 1.914 24.975 15.369 23.062 29.998-1.733 13.279-13.123 23.293-26.491 23.293-1.18 0-2.356-0.076-3.503-0.229-0.973-0.127-98.501-12.701-190.22-12.701-90.108 0-189.08 13.399-190.05 13.535-1.2 0.17-2.4 0.26-3.6 0.26zm197.3-104.63c-22.41 0-42.159 14.298-49.145 35.58l-1.491 4.542-4.774 0.209c-75.367 3.307-142.5 12.428-145.32 12.812-13.628 1.875-23.191 14.488-21.318 28.117 1.688 12.291 12.297 21.561 24.682 21.561 1.138 0 2.292-0.079 3.428-0.232 0.974-0.136 100.07-13.555 190.3-13.555 91.836 0 189.48 12.592 190.46 12.719 1.067 0.141 2.167 0.211 3.27 0.211 12.467 0 23.086-9.339 24.701-21.723 1.782-13.643-7.864-26.191-21.508-27.975-2.624-0.342-65.131-8.401-137.8-11.709l-4.789-0.219-1.476-4.562c-7-21.399-26.8-35.777-49.3-35.777z" fill="#FEFCE9"/>
			<path d="m1044.7 149.86c0.668 4.96 1.58 9.889 2.246 14.85 0.146 1.098 0.433 2.397 0.362 3.526-0.437 0.224-0.908 0.368-1.395 0.435-1.778 0.24-1.497-0.916-1.676-2.229-0.291-2.118-0.631-4.202-0.949-6.344-0.074 0.477-0.417 3.008-0.592 3.332-0.199 0.355-0.473 0.582-0.877 0.641-0.405 0.057-0.745-0.006-1.115 0.102-0.833-1.033-1.387-2.432-2.047-3.594 0.307 1.596 0.586 3.195 0.811 4.803 0.146 1.045 0.413 2.947 0.221 3.93-0.28 0.15-0.595 0.275-0.914 0.32-0.595 0.084-1.204 0.035-1.76-0.188-0.121-0.666-0.217-1.335-0.314-2.03-0.213-1.5-2.345-15.681-1.733-16.48 0.375-0.104 0.729-0.375 1.136-0.434 0.574-0.08 0.993 0.518 1.177 1.037 1.172 1.994 2.218 4.526 3.366 6.633 0.134-0.701 0.269-1.402 0.401-2.104 0.263-1.311 0.526-2.621 0.792-3.932 0.113-0.59 0.182-1.31 0.412-1.859 0.049-0.053 0.098-0.104 0.146-0.156 0 0 1.445-0.414 1.527-0.426 0.3-0.05 0.6 0.05 0.8 0.16z" fill="#fff"/>
			<path d="m1050.4 148.28c0.065 0.072 0.11 0.203 0.124 0.311 0.045 0.352-0.08 0.666-0.067 0.965 0.009 0.354 0.018 0.708 0.025 1.062 0.095 2.006 0.225 4.035 0.482 6.021 0.26 1.985 0.851 6.083 2.029 7.54 0.228 0.27 0.714 0.425 1.012 0.387 1.971-0.254 1.924-3.438 1.742-4.861-0.438-3.435-1.148-6.834-1.591-10.297-0.037-0.295-0.156-0.58-0.194-0.875-0.058-0.457 0.157-0.947 0.677-1.014 0.41-0.053 0.934 0.126 1.326-0.061 0.825 0.143 0.998 1.976 1.079 2.619 0.102 0.805 0.121 1.621 0.222 2.426 0.344 2.738 1.099 5.424 1.442 8.189 0.38 3.034-0.008 6.297-3.699 6.77-2.532 0.326-4.506-1.322-5.327-3.588-0.562-1.535-0.781-3.199-0.99-4.781-0.12-0.912-0.241-1.824-0.362-2.735-0.141-1.046-0.964-7.269-0.649-7.829 0.109-0.232 0.434-0.302 0.682-0.334 0.054-0.008 0.383-0.051 0.472-0.008 0.243-0.061 0.479-0.146 0.754-0.182 0.272-0.037 0.558 0.01 0.812 0.25 0.1-0.01 0.1 0 0.1 0z" fill="#fff"/>
			<path d="m1066.6 151.33c-0.571-0.15-0.672-2.863-2.626-1.594-0.568 0.342-0.78 1.104-0.702 1.746 0.41 3.324 7.639 5.247 7.622 9.665-0.034 3.245-1.72 3.798-2.563 4.308-0.009 0-0.018 0.002-0.024 0.002-0.646 0.322-1.201 0.498-1.929 0.584-1.188 0.144-2.525-0.512-3.389-1.278-0.185-0.168-0.326-0.423-0.541-0.614-0.442-0.49-1.072-1.148-1.155-1.82-0.023-0.188 0.003-0.41 0.092-0.584-0.009 0-0.019 0.002-0.027 0.002 0.261-0.576 1.531-0.731 2.102-0.803 0.596-0.072 0.84 0.58 1.061 1.045-0.001-0.01-0.002-0.019-0.003-0.027 0.406 0.631 0.819 1.101 1.658 1 0.863-0.104 1.574-0.598 1.462-1.537-0.172-1.45-1.554-2.432-2.595-3.312-0.703-0.57-1.363-1.252-1.948-1.973 0.009-0.001 0.019-0.002 0.028-0.003-0.666-0.71-1.47-1.401-1.936-2.271 0.001 0.01 0.002 0.018 0.003 0.025-0.42-0.711-0.735-1.49-0.84-2.32-0.289-2.338 1.336-4.475 3.745-4.764 1.505-0.182 3.206 0.354 4.123 1.555-0.01-0.009-0.021-0.017-0.031-0.023 0.447 0.492 0.95 1.25 1.025 1.896 0.122 1.047-0.768 1.016-1.531 1.104-0.5 0.02-0.9 0.04-1.3-0.03z" fill="#fff"/>
			<path d="m1073.4 161.27c-0.385-3.36-0.854-6.735-1.239-10.097-0.065-0.562-0.603-4.777-0.104-5.025 0.441-0.27 0.992-0.303 1.484-0.359 0.684-0.076 1.283-0.172 1.38 0.688 0.078 0.7 0.05 1.438 0.103 2.14 0.229 2.533 0.562 5.027 0.848 7.555 0.147 1.318 0.195 2.701 0.342 4.019 0.104 0.915 0.283 1.792 0.385 2.681 0.054 0.482 0.058 1.002-0.023 1.5-0.525 0.438-1.407 0.621-2.104 0.729-0.634-0.037-0.834-0.857-0.895-1.368-0.1-0.82-0.1-1.61-0.2-2.45z" fill="#fff"/>
			<path d="m1087.7 160.09c0.025 0.27-0.108 0.529-0.246 0.789-0.789 1.361-1.819 2.99-3.547 3.176-1.188 0.127-2.458-0.252-3.384-0.967-1.464-1.119-1.885-2.678-2.076-4.426-0.138-1.238-0.192-2.482-0.331-3.746-0.358-3.252-1.105-9.465 3.411-10.277 0.055-0.006 0.108-0.012 0.166-0.018 2.001-0.215 4.637 1.44 4.819 3.488-0.654 0.342-1.351 0.82-2.113 0.9-0.138 0.016-0.302 0.033-0.44 0.021-0.538-0.65-0.712-1.775-1.833-1.654-0.246 0.024-0.453 0.156-0.627 0.338-1.001 0.979-0.943 2.525-0.858 3.82 0.154 2.188 0.393 4.365 0.626 6.545 0.116 1.076 0.536 3.424 2.078 3.26 1.219-0.131 0.766-1.823 2.119-1.967 0.5-0.06 2.1-0.06 2.1 0.72z" fill="#fff"/>
			<path d="m1103.6 156.75c-0.338 0.195-1.117 0.348-1.473 0.381-0.188 0.02-0.404 0.065-0.553-0.057-0.001-0.009-0.002-0.018-0.002-0.027-0.828-1.523-1.384-3.076-2.071-4.533 0.277 2.939 0.277 6.416 0.655 9.531-0.355 0.252-0.5 0.186-0.869 0.328-0.264 0.08-0.558 0.162-0.8 0.187-0.974 0.094-0.964-1.212-1.031-1.912-0.146-1.535-0.192-3.134-0.341-4.668-0.206-2.699-0.304-5.435-0.455-8.138-0.03-0.895-0.217-2.533-0.05-3.393 0.001 0.008 0.002 0.018 0.002 0.026 1.676-0.106 2.688-0.8 2.983-0.013 0.594 1.603 1.858 5.723 2.554 7.289 0.567-1.848 1.843-7.207 2.599-8.36 0.184-0.017 0.365-0.033 0.548-0.05 0.576-0.051 1.269-0.057 1.815 0.22 0.019 0.216 0.039 0.431 0.06 0.674 0.483 5.472 0.588 11.001 0.886 16.489 0.01 0.1 0.019 0.197 0.025 0.295 0.026 0.297-0.032 0.546-0.35 0.656 0.058 0.05-0.575-0.03-0.63-0.025-2.354 0.211-1.481-1.307-1.636-3.003-0.198-2.183-0.448-4.36-0.565-6.55-0.6 1.3-1.2 3.26-1.4 4.64z" fill="#fff"/>
			<path d="m1117.2 158.36c0.152-0.013 0.307-0.024 0.461-0.038 0.399 0.211 0.592 0.576 0.625 0.98 0.035 0.432-0.07 1.146-0.341 1.494-0.438-0.021-0.871 0.017-1.303 0.053-1.14 0.094-2.237 0.294-3.4 0.393-0.567 0.049-1.388 0.037-1.782-0.443-0.271-0.928-0.582-3.264-0.669-4.26-0.007-0.082 0.008-0.219 0-0.328-0.107-1.563-0.243-3.127-0.375-4.664-0.219-2.533-0.627-5.023-0.847-7.559-0.018-0.189-0.033-0.377-0.049-0.566-0.062-1.024 0.536-1.16 1.413-1.233 1.232-0.104 2.49-0.267 3.727-0.367 0.63-0.052 1.292-0.077 1.927-0.075 0.334 0.705 0.366 1.436 0.537 2.182-0.938 0.348-1.709 0.355-2.694 0.438-0.656 0.055-1.307 0.217-1.936 0.271-0.015 0.164 0 0.326 0.011 0.461 0.054 0.619 0.725 5.939 0.694 5.941 0.218-0.019 0.432-0.09 0.65-0.109 0.682-0.057 1.429 0.018 2.062 0.047 0.043 0.186 0.062 0.402 0.074 0.564 0.042 0.512 0.001 1.029-0.066 1.523-0.162 0.041-0.321 0.105-0.483 0.121-1.384 0.169-1.844 0.234-2.033 0.251-0.08 0.007-0.14-0.017-0.195-0.038 0.008 0.1 0.017 0.197 0.025 0.297 0.134 1.592 0.461 3.189 0.567 4.785 1.2 0.25 2.3-0.01 3.4-0.1z" fill="#fff"/>
			<path d="m1120.2 151.88c-0.049-0.619-0.151-1.234-0.202-1.854-0.104-1.321-0.127-2.647-0.232-3.998-0.012-0.136-0.021-0.271-0.032-0.403-0.099-1.24-0.345-3.312-0.104-4.471 0.504-0.283 1.103-0.387 1.679-0.432 0.146-0.012 0.293-0.022 0.438-0.033 1.65-0.074 4.458-0.229 5.583 1.206-0.009 0.001-0.018 0.001-0.025 0.002 0.939 1.181 1.094 3.284 1.201 4.769 0.084 1.16 0.06 2.303 0.146 3.488 0.063 0.891 0.182 1.75 0.249 2.667 0.066 0.918 0.252 3.074 0.04 3.901-0.171 0.638-0.562 1.264-0.934 1.777-1.23 1.772-4.403 1.904-6.354 2.059-0.243 0.021-0.433 0.035-0.624 0.021-0.207-0.553-0.338-1.166-0.385-1.76-0.104-1.294-0.153-2.62-0.256-3.915 0-1.04 0-2.04-0.1-3.04zm2.9 1.7c0.106 1.377 0.105 2.787 0.212 4.162 0.036-0.002 0.072-0.006 0.109-0.008 0.705-0.055 1.343-0.266 1.982-0.477 0.666-0.188 0.779-0.873 0.846-1.447 0.156-1.206 0-2.551-0.063-3.768-0.129-1.728-0.123-3.49-0.252-5.217-0.139-1.861-0.18-3.516-2.563-3.332-0.301 0.021-0.548 0.041-0.846 0.118 0.076 2.058 0.043 4.122 0.201 6.173 0.2 1.28 0.4 2.54 0.5 3.81z" fill="#fff"/>
			<path d="m1135.1 157.86c0.033 0.484 0.016 1.002 0.048 1.486-0.596 0.041-1.148 0.271-1.69 0.308-0.189 0.015-0.408 0.002-0.574-0.041 0.009 0 0.018-0.001 0.025-0.002-0.527-0.151-0.606-0.526-0.644-1.013-0.042-0.594-0.19-1.152-0.26-1.744-0.177-1.344-0.302-2.719-0.397-4.066-0.194-2.754-0.444-5.502-0.64-8.228-0.048-0.675-0.154-1.399-0.233-2.125-0.068-0.214-0.108-0.399-0.126-0.615-0.019-0.271 0.02-0.517 0.059-0.765 0.347-0.159 0.778-0.271 1.165-0.299 0.466-0.033 0.939 0.043 1.386 0.092 0.538 0.994 0.688 3.615 0.77 4.775 0.21 3.049 0.666 6.082 0.875 9.133-0.1 1.06 0 2.05 0.1 3.11z" fill="#fff"/>
			<path d="m1146.5 156.36c0.261 0.717 0.647 1.262 0.773 2.041-0.505 0.627-1.928 0.495-2.684 0.57-0.724-1.555-1.207-3.232-1.612-4.889-0.545 0.008-1.094-0.039-1.637-0.004-0.244 0.017-0.487 0.059-0.73 0.102-0.151 1.014-0.559 2.747-0.573 3.751 0 0.435-0.007 0.731-0.312 1.077-0.426 0.137-0.856 0.191-1.292 0.221-0.759 0.051-1.009-0.042-1.063-0.877-0.054-0.783 0.188-1.667 0.327-2.463 0.401-2.143 0.753-4.279 1.076-6.441 0.456-3.094 0.692-6.201 1.236-9.326 0.324-0.102 0.678-0.178 1.008-0.199 0.438-0.026 0.855 0 1.271 0.057 0.513 1.566 0.644 3.268 0.99 4.872 0.451 1.952 1.031 3.812 1.561 5.729 0.554 1.918 1.057 3.895 1.688 5.781h-0.1zm-4.7-4.99c0.163-0.011 0.327-0.021 0.488-0.059-0.245-0.878-0.588-1.941-0.646-2.859-0.007-0.107-0.072-0.267-0.107-0.4-0.119 1.121-0.353 2.22-0.443 3.336 0.1 0.01 0.3-0.01 0.6-0.02z" fill="#fff"/>
			<path d="m1162.8 138.77c0.027 0.541 0.132 1.051 0.158 1.591 0.035 0.729-0.312 0.962-0.998 0.995-0.771 0.037-1.539 0.021-2.308 0.059-0.303 0.017-0.604 0.03-0.902 0.074 0.084 1.666 0.168 3.332 0.252 4.998 0.027 0.566 0.081 1.08 0.136 1.618 0.521-0.026 1.062-0.134 1.607-0.161 0.382-0.02 0.769 0.071 1.13 0.188-0.032 0.463 0.043 0.894 0.063 1.353 0.019 0.353-0.021 0.624-0.115 0.954-0.676 0.168-1.358 0.146-2.04 0.184-0.163 0.008-0.325 0.016-0.488 0.051 0.111 2.207 0.223 4.414 0.334 6.621 0.013 0.242-0.084 0.492-0.209 0.713-0.486 0.053-0.97 0.131-1.459 0.156-0.298 0.016-0.624 0.006-0.925-0.033-0.22-1.045-0.248-2.102-0.306-3.18-0.079-1.541-0.271-3.074-0.35-4.588-0.098-1.863-0.141-3.73-0.239-5.596-0.093-1.783-0.399-3.936-0.085-5.792 1.421-0.238 2.881-0.229 4.334-0.386 0.521-0.051 1.011-0.184 1.534-0.209 0.22-0.01 0.496 0.004 0.723 0.129 0.1 0.09 0.1 0.18 0.2 0.27z" fill="#fff"/>
			<path d="m1175 157.28c-0.515 0.103-1.078 0.179-1.622 0.2-0.081 0.003-0.162 0.006-0.244 0.01-0.857-0.344-0.671-1.164-0.674-1.895 0.082-3.983-1.215-4.364-1.712-4.479-0.303-0.096-1.665-0.01-2.073 0.009 0.075 1.729 0.259 3.428 0.334 5.156 0.019 0.434-0.015 0.895-0.162 1.28-0.352 0.017-0.704 0.06-1.054 0.103-0.161 0.032-0.294 0.121-0.43 0.127-0.244 0.01-0.465-0.033-0.709-0.051-0.466-0.684-1.062-14.357-1.312-16.838 0 0.01 0.001 0.02 0.001 0.025-0.076-0.457-0.122-0.889-0.146-1.348-0.052-1.135 0.351-1.371 1.479-1.42 1.458-0.066 4.099-0.152 5.37 0.637 1.581 0.965 2.117 3.437 2.183 5.139 0.022 0.566 0.021 1.137 0.04 1.703 0.054 1.324 0.225 2.914-1.023 3.805 0.019 0 0.036-0.001 0.055-0.002 1.401 0.863 2.083 4.413 2.142 5.953 0.021 0.541-0.011 1.109-0.152 1.63-0.1 0.07-0.2 0.15-0.3 0.24zm-4.9-16.51c-0.498-0.061-1.072-0.035-1.566-0.014-0.141 0.006-0.274 0.012-0.385 0.043 0.324 2.396 0.131 4.869 0.536 7.261 0.102-0.004 0.2-0.009 0.3-0.013 2.483-0.107 2.826-1.094 2.734-3.338 0.1-1.16 0-3.68-1.5-3.94z" fill="#fff"/>
			<path d="m1177.7 146.91c-0.127-1.24-0.255-2.48-0.303-3.752-0.045-1.217 0.192-2.228 0.591-3.352 0 0.009 0 0.018 0.001 0.025 0.127-0.301 0.304-0.742 0.514-0.992 1.769-2.096 5.75-2.661 7.312-0.189 1.127 1.779 1.123 4.404 1.321 6.455 0.121 1.297 0.188 2.621 0.228 3.945 0.046 1.541 0.178 3.189-0.433 4.668-0.379 0.932-0.867 1.895-1.576 2.646-0.657 0.67-1.524 0.725-2.392 0.754-0.732 0.023-1.248 0.014-1.991-0.256 0.009 0 0.018-0.002 0.026-0.002-1.264-0.416-2.112-1.388-2.346-2.517-0.5-2.44-0.7-4.95-0.9-7.44zm4.8 7.12c2.335-0.078 2.487-3.059 2.434-4.762-0.025-0.838-0.079-1.622-0.215-2.456-0.212-1.511-0.205-2.999-0.472-4.507-0.072-0.538-0.146-1.158-0.571-1.523-0.396-0.365-0.98-0.562-1.501-0.545-1.235 0.041-1.751 1.006-1.905 2.094 0-0.009 0-0.018-0.001-0.025-0.061 0.598-0.124 1.168-0.102 1.789-0.3 4.75 0.8 9.99 2.4 9.94z" fill="#fff"/>
			<path d="m1200 141.92c0.035 1.73-0.034 3.52 0 5.276 0.05 2.354 0.099 4.731 0.146 7.087 0.008 0.432 0.089 1.702-0.229 2.033-0.161 0.111-1.145-0.111-2.198 0.021-0.173-0.43-0.237-0.887-0.247-1.32-0.059-2.625-0.036-5.223-0.096-7.873-0.009-0.307-0.016-0.613-0.021-0.919-0.093 0.3-0.187 0.599-0.281 0.899v-0.027c-0.379 1.334-1.261 3.305-1.611 4.504-0.508 0.066-1.015 0.132-1.521 0.199-0.594-1.934-1.038-3.33-1.661-5.182 0.046 2.786-0.1 5.551-0.024 8.336 0.016 0.596 0.106 1.024-0.23 1.575-0.241 0.114-0.886 0.349-1.157 0.354-0.567 0.017-0.825-0.438-0.84-0.95-0.067-5.022-0.136-10.048-0.204-15.067-0.021-0.812-0.308-2.188 0.085-2.871 0.209-0.062 0.419-0.121 0.63-0.182 0.272-0.034 0.905-0.023 1.156 0.104 0.417 0.178 0.448 0.312 0.569 0.715 0.339 1.398 0.894 2.711 1.284 4.056v-0.026c0.383 1.02 0.709 2.065 1.172 3.057 0.867-2.539 1.324-5.281 2.341-7.768 0.33-0.008 0.688-0.041 1.017-0.051 0.605-0.014 1.188 0.109 1.66 0.479 0 1.12 0.1 2.34 0.1 3.53z" fill="#fff"/>
			<path d="m1211.4 139c-0.191 0.002-0.354 0.031-0.549 0.033-0.355 0.004-0.714-0.017-1.072-0.066-0.005-0.352-0.038-0.729-0.042-1.107-0.006-0.436 0.043-0.865 0.231-1.223 1.072-0.121 2.174-0.161 3.272-0.174 0.715-0.008 1.432-0.096 2.118-0.103 0.356-0.003 0.716 0.103 0.968 0.37 0.002 0.189 0.003 0.379 0.005 0.568 0.005 0.514 0.01 1.082-0.234 1.543-0.631 0.06-1.235 0.066-1.896 0.072-0.102 0.002-0.202 0.002-0.303 0.004 0.001 0.09 0.002 0.18 0.002 0.271 0.012 1.083 0.132 2.138 0.145 3.218 0.006 0.596-0.069 1.245-0.063 1.868 0.009 0.974 0.104 1.946 0.166 2.92 0.141 3.001 0.252 5.976 0.473 8.978-0.486 0.166-1.028 0.281-1.543 0.287-0.436 0.004-0.867-0.045-1.25-0.229-0.279-2.945-0.291-5.896-0.354-8.844-0.044-1.406-0.116-2.811-0.133-4.221-0.016-1.162 0.108-2.326 0.096-3.463-0.2-0.25-0.2-0.47-0.2-0.71z" fill="#fff"/>
			<path d="m1225 146.75c0.27-2.166 0.182-4.383 0.26-6.547-0.001-0.812-0.004-1.705 0.297-2.49 0.358-0.107 0.715-0.188 1.103-0.189 0.384 0 0.77 0.081 1.126 0.217v0.54c0 3.868-0.081 7.737-0.188 11.579-0.053 1.542-0.024 4.869-0.296 6.33-0.299 0.082-0.624 0.137-0.977 0.139-0.298 0-0.598-0.027-0.923-0.055-0.598-0.352-0.446-6.031-0.448-6.734v-0.379c-0.546 0.002-1.091 0.059-1.636 0.141-0.108 0-0.219 0-0.326 0.002-0.492 0.002-0.955-0.051-1.446-0.049-0.183 1.812-0.173 3.681-0.164 5.492 0.007 1.164-0.156 1.65-1.429 1.657-0.842 0.007-1.169-0.45-1.176-1.292-0.037-5.545 0.062-11.119 0.022-16.666-0.002-0.298 0.051-0.595 0.214-0.84 0.522-0.003 1.045-0.006 1.567-0.062h-0.027c0.139 0 0.249 0 0.385-0.002 0.854-0.004 0.692 0.861 0.695 1.459 0.001 0.403 0.032 0.812 0.034 1.217 0.011 2.164-0.118 4.302-0.107 6.438 1 0.08 2.1 0.08 3.3 0.08z" fill="#fff"/>
			<path d="m1236.5 153.86c0.154 0.001 0.308 0.002 0.462 0.004 0.379 0.245 0.54 0.625 0.537 1.031-0.003 0.434-0.171 1.135-0.473 1.458-0.435-0.058-0.866-0.062-1.302-0.063-1.14-0.006-2.253 0.098-3.418 0.094-0.568-0.002-1.384-0.086-1.733-0.6-0.188-0.947-0.292-3.301-0.292-4.302 0.001-0.081 0.026-0.218 0.026-0.325 0.03-1.568 0.033-3.138 0.036-4.68 0.006-2.543-0.183-5.061-0.179-7.604 0-0.188 0.001-0.379 0.001-0.568 0.03-1.027 0.634-1.107 1.515-1.105 1.237 0.004 2.504-0.045 3.741-0.039 0.632 0.004 1.293 0.035 1.925 0.094 0.271 0.731 0.238 1.463 0.344 2.222-0.965 0.265-1.731 0.204-2.721 0.198-0.66-0.004-1.316 0.104-1.949 0.101-0.028 0.163-0.028 0.325-0.028 0.46-0.001 0.622 0.196 5.979 0.169 5.979 0.219 0 0.438-0.053 0.656-0.051 0.684 0.002 1.42 0.141 2.048 0.228 0.025 0.188 0.024 0.403 0.022 0.567-0.002 0.514-0.089 1.026-0.199 1.514-0.164 0.025-0.327 0.078-0.491 0.078-1.393 0.045-1.856 0.072-2.046 0.072-0.082 0-0.138-0.029-0.191-0.055 0 0.1 0 0.198-0.001 0.299-0.005 1.594 0.18 3.219 0.146 4.815 1.2 0.33 2.4 0.17 3.5 0.18z" fill="#fff"/>
			<path d="m1253.6 137.27c0.471-0.045 0.938-0.092 1.435-0.081 0.248 0.005 0.55 0.038 0.824 0.099 0.155 0.381 0.229 0.789 0.222 1.25-0.006 0.297-0.068 0.592-0.104 0.918-0.069 0.811-0.032 1.703-0.051 2.514-0.084 4.166-0.005 8.309-0.09 12.474-0.015 0.704-0.138 1.403-0.342 2.104-0.328 0.049-0.653 0.096-1.006 0.088-1.329-0.025-1.486-0.299-1.463-1.596 0.004-0.299-0.042-0.65-0.036-0.977 0.013-0.703 0.105-1.404 0.12-2.107 0.019-0.975-0.047-1.922-0.028-2.896-0.982 0.009-2.019 0.045-3.03 0.109-0.193 1.945-0.226 3.812-0.257 5.787-0.007 0.404-0.067 0.836-0.237 1.239-0.435 0.074-0.896 0.202-1.333 0.195-1.085-0.017-1.018-0.935-1.006-1.72 0.045-3.191 0.417-6.353 0.519-9.543 0.021-1.568 0.183-3.135 0.206-4.705 0.018-1.164 0.061-2.271 0.353-3.432 0.44 0.006 0.827-0.096 1.295-0.089 1.156 0.021 0.999 1.231 0.984 2.072-0.043 2.596-0.307 5.136-0.346 7.731 0.437 0.008 0.817 0.014 1.201 0.021 0.654 0.012 1.123-0.17 1.726-0.212 0.1-3.1 0.4-6.16 0.4-9.24z" fill="#fff"/>
			<path d="m1260.8 146.52c0.929 0.022 1.883 0.127 2.812 0.178 0.155 0.329 0.243 1.144 0.233 1.522-0.006 0.242-0.045 0.648-0.321 0.804-0.659 0.118-1.286 0.075-1.912 0.06-0.264-0.006-0.527-0.013-0.791-0.02-0.008 0.324-0.016 0.648-0.022 0.975-0.03 1.297-0.063 2.649-0.015 3.95 0.271 0.089 0.566 0.149 0.867 0.156 0.761 0.019 1.498-0.097 2.258-0.077 0.463 0.012 1.115 0.002 1.099 0.625-0.009 0.324-0.101 0.646-0.108 1.025-0.005 0.188-0.019 0.648-0.131 0.809-0.312 0.396-2.479 0.286-2.991 0.273-1.302-0.032-3.694 0.238-3.654-1.627 0.01-0.406 0.125-0.756 0.189-1.188 0.072-0.782 0.118-1.621 0.137-2.459 0.04-1.729-0.087-3.466-0.048-5.196 0.043-1.976 0.088-3.949 0.131-5.924 0.029-1.298-0.188-2.656 1.544-2.615 0.551 0.012 1.069 0.188 1.591 0.198 0.551 0.015 1.129 0.003 1.707-0.011h-0.026c0.578-0.096 1.267-0.076 1.846-0.061 0.373 1.498 0.813 2.322-0.78 2.441-1.074 0.053-2.142-0.001-3.213-0.027-0.026 0-0.083 0.024-0.083 0.024-0.1 2.07-0.2 4.12-0.3 6.18z" fill="#fff"/>
			<path d="m1275.4 157.18c-0.354-0.012-0.702-0.105-1.082-0.119-0.49-0.748-0.68-1.646-0.782-2.543-0.002 0.027-0.002 0.054-0.003 0.08-0.163-0.816-0.46-1.719-0.516-2.588-0.323-0.039-0.704-0.078-1.029-0.088-0.409-0.012-0.818 0-1.198-0.012-0.432 1.584-0.916 3.192-1.104 4.784-0.63 0.194-1.443 0.253-2.067 0.233-0.062-0.002-0.126-0.004-0.189-0.006-0.047-0.271-0.094-0.543-0.085-0.812 0.017-0.484 0.137-0.998 0.205-1.48 0.401-3.508 1.322-7 2.302-10.379 0.644-2.174 1.503-4.203 1.657-6.473 0.387-0.042 0.773-0.084 1.158-0.07 0.331 0.012 0.659 0.049 0.99 0.061 0.437 1.746 0.537 3.645 0.776 5.439 0.192 1.604 0.386 3.18 0.632 4.758 0.304 2.06 0.604 4.119 0.901 6.178 0.112 0.707 0.374 1.746 0.349 2.447 0 0.48-0.6 0.6-0.9 0.59zm-2.8-8.33c-0.001 0.009-0.001 0.019-0.001 0.026-0.104-0.979-0.208-1.982-0.423-2.963-0.273 0.883-0.497 1.824-0.663 2.766-0.052 0.188-0.104 0.376-0.154 0.564 0.438 0.014 0.873 0 1.282 0.014v-0.41z" fill="#fff"/>
			<path d="m1280.6 157.04c-0.108-0.004-0.243-0.01-0.35-0.067 0.033 0.021 0.069 0.039 0.104 0.06-0.046-0.002-0.091-0.004-0.136-0.006-0.542-0.021-1.331-0.023-1.44-0.705 0 0.01-0.001 0.018-0.001 0.027-0.133-0.791 0.062-3.059 0.096-3.95 0.06-1.567 0.547-13.948 1.177-14.521 0.369-0.312 2.104-0.299 2.571-0.28 1.182 0.046 3.513 0.36 4.353 1.317 1.024 1.127 1.171 5.305 1.103 6.873-0.062 1.432-0.322 2.99-1.483 3.941 0.229 0.391 0.512 0.777 0.658 1.191 0.443 1.074 0.286 4.67 0.229 5.939-0.007 0.153-0.014 0.307-0.021 0.459-0.337 0.229-0.775 0.318-1.208 0.301-0.542-0.022-1.385-0.033-1.805-0.4-0.172-1.118 0.071-2.354 0.118-3.488 0.036-0.865 0.054-1.947-0.239-2.744-0.287-0.283-0.832-0.359-1.214-0.375-0.407-0.018-0.848 0.02-1.286 0.111-0.039 1.025-0.332 5.672-0.954 6.297-0.2 0.02-0.3 0.02-0.4 0.01zm1.6-16.64c-0.057 1.46-0.17 2.917-0.227 4.377-0.021 0.522-0.041 1.046-0.062 1.567-0.021 0.514-0.012 1.002-0.005 1.518 0.336 0.014 0.673 0.026 1.011 0.04 1.037 0.042 2.383-0.036 2.489-1.333-0.01 0.01-0.02 0.018-0.027 0.025 0.062-1.514 0.157-3.105 0-4.604-0.108-1.277-1.337-1.572-2.462-1.617-0.2-0.01-0.5-0.02-0.7 0.02z" fill="#fff"/>
			<path d="m1292.3 140.41c-0.19-0.01-0.355 0.01-0.551 0-0.354-0.018-0.712-0.061-1.066-0.131 0.019-0.352 0.008-0.73 0.023-1.109 0.02-0.433 0.095-0.863 0.303-1.205 1.078-0.059 2.178-0.035 3.278 0.021 0.716 0.034 1.434-0.013 2.122 0.022 0.355 0.019 0.709 0.145 0.941 0.427-0.01 0.188-0.019 0.379-0.026 0.567-0.026 0.512-0.058 1.08-0.325 1.526-0.635 0.022-1.238-0.008-1.896-0.04-0.101-0.005-0.199-0.01-0.303-0.016-0.004 0.091-0.009 0.181-0.013 0.271-0.054 1.082 0.006 2.141-0.047 3.221-0.028 0.594-0.146 1.238-0.173 1.859-0.047 0.975-0.015 1.949-0.007 2.926-0.037 3.004-0.103 5.979-0.061 8.988-0.496 0.139-1.043 0.221-1.558 0.193-0.434-0.02-0.864-0.094-1.234-0.301-0.104-2.959 0.061-5.901 0.169-8.85 0.04-1.406 0.051-2.814 0.116-4.22 0.053-1.162 0.246-2.317 0.299-3.453 0.1-0.24 0.1-0.46 0.1-0.7z" fill="#fff"/>
			<path d="m1310.5 158.89c-1.11-0.067-2.539-0.721-3.365-1.475-0.673-0.607-0.774-1.209-0.86-2.082-0.312-2.565-0.044-5.883 0.107-8.504 0.11-1.943 0.47-4.391 2.062-5.732-0.009 0-0.019-0.002-0.025-0.002 0.756-0.688 1.755-1.252 2.799-1.188 2.005 0.121 3.83 1.376 4.478 3.261 0.377 1 0.329 2.162 0.263 3.217-0.055 0.811 0.031 1.627-0.021 2.465-0.157 2.457-0.549 7.203-2.263 8.91-1 0.93-1.9 1.2-3.2 1.12zm-1.3-11.22c-0.095 1.594-0.301 3.209-0.398 4.854-0.059 0.999-0.077 2.244 0.552 3.122-0.011 0-0.02-0.001-0.027-0.001 0.252 0.34 0.706 0.478 1.111 0.556 2.645 0.405 2.264-2.652 2.305-3.328 0.035-0.566-0.007-1.193 0.028-1.761 0.054-0.864 0.216-1.724 0.271-2.586 0.081-1.296 0.076-2.543 0.158-3.864 0.068-1.107-0.229-2.05-1.546-2.129-1.345-0.082-2.12 1.418-2.188 2.551-0.2 0.87-0.4 1.7-0.4 2.59z" fill="#fff"/>
			<path d="m1325.8 140.71c-0.038 0.539 0.01 1.059-0.029 1.598-0.053 0.729-0.426 0.918-1.108 0.869-0.769-0.053-1.531-0.16-2.298-0.213-0.303-0.021-0.604-0.043-0.906-0.035-0.113 1.664-0.229 3.328-0.341 4.992-0.04 0.565-0.047 1.082-0.058 1.623 0.519 0.035 1.068-0.008 1.614 0.031 0.382 0.024 0.755 0.159 1.103 0.318-0.087 0.455-0.062 0.893-0.096 1.352-0.023 0.35-0.1 0.614-0.229 0.932-0.688 0.088-1.367-0.014-2.048-0.061-0.163-0.012-0.327-0.021-0.491-0.007-0.151 2.204-0.302 4.408-0.452 6.61-0.017 0.244-0.142 0.48-0.292 0.688-0.489-0.007-0.979 0.016-1.469-0.02-0.296-0.02-0.62-0.066-0.914-0.143-0.093-1.062 0.004-2.115 0.075-3.193 0.103-1.539 0.095-3.084 0.193-4.596 0.123-1.863 0.304-3.723 0.428-5.586 0.115-1.781 0.066-3.953 0.602-5.762 1.439-0.068 2.892 0.113 4.353 0.133 0.523 0.01 1.023-0.064 1.548-0.027 0.218 0.018 0.49 0.062 0.702 0.213 0.1 0.1 0.1 0.2 0.1 0.29z" fill="#fff"/>
			<path d="m1344.5 145.34c-0.271 0.248-1.087 0.478-1.507 0.552-0.012-0.001-0.021-0.001-0.028-0.002-0.026-0.002-0.057 0.022-0.084 0.021 0.019-0.008 0.038-0.015 0.058-0.021-0.027 0.024-0.058 0.021-0.058 0.021-0.056 0.022-0.111 0.019-0.193 0.01-1.04-0.086-0.489-1.695-2.081-1.828-2.354-0.191-2.436 3.195-2.613 4.73-0.075 0.707-0.15 1.416-0.228 2.125-0.153 1.233-0.34 2.521-0.44 3.791-0.088 1.077-0.01 3.145 1.429 3.264 1.14 0.094 1.378-0.811 2.11-1.428 0.812 0.123 1.492 0.451 2.136 0.939 0.04 0.167 0.057 0.304 0.043 0.465-0.052 0.594-0.496 1.344-0.939 1.738 0.01 0 0.021 0.002 0.027 0.002-0.81 0.855-2.099 1.291-3.263 1.195-4.025-0.328-4.616-4.981-4.368-8.166 0.218-2.776 0.862-7.912 2.725-10.125 0.882-1.016 2.252-1.557 3.598-1.445 1.618 0.135 2.589 1.111 3.274 2.445 0.239 0.426 0.476 0.908 0.542 1.404 0.1 0.13 0 0.24 0 0.34z" fill="#fff"/>
			<path d="m1353.7 162.18c-0.352-0.033-0.695-0.146-1.073-0.181-0.447-0.775-0.581-1.685-0.636-2.584-0.002 0.027-0.006 0.054-0.009 0.08-0.114-0.826-0.358-1.744-0.361-2.613-0.322-0.057-0.7-0.118-1.026-0.146-0.408-0.037-0.816-0.048-1.196-0.082-0.521 1.557-1.101 3.135-1.377 4.713-0.642 0.16-1.458 0.168-2.081 0.114-0.062-0.005-0.126-0.011-0.188-0.017-0.031-0.274-0.062-0.549-0.038-0.818 0.041-0.484 0.196-0.988 0.292-1.467 0.603-3.479 1.726-6.91 2.898-10.229 0.768-2.133 1.744-4.109 2.029-6.365 0.391-0.021 0.777-0.039 1.161-0.004 0.33 0.031 0.656 0.088 0.985 0.117 0.336 1.77 0.326 3.67 0.464 5.475 0.099 1.613 0.201 3.197 0.354 4.789 0.186 2.072 0.364 4.146 0.546 6.219 0.07 0.713 0.271 1.764 0.207 2.464-0.1 0.48-0.7 0.57-1 0.53zm-2.3-8.46c-0.002 0.009-0.002 0.018-0.002 0.025-0.05-0.982-0.096-1.99-0.252-2.982-0.325 0.867-0.603 1.791-0.822 2.723-0.062 0.186-0.124 0.369-0.188 0.555 0.437 0.039 0.872 0.051 1.281 0.088v-0.41z" fill="#fff"/>
			<path d="m1367.3 157.54c0.052 0.303 0.042 0.655 0.009 0.979-0.105 1.049-0.532 2.528-1.32 3.291-1.09 1.03-2.685 1.413-4.145 1.269-2.213-0.221-4.305-2.322-4.084-4.64 0.108-1.131 0.955-1.104 1.853-1.019 0.462 0.045 0.911 0.199 1.296 0.48-0.146 0.938 0.328 2.232 1.41 2.342 1.027 0.102 1.84-0.605 1.938-1.602 0.189-1.855-2.284-4.579-3.51-5.842 0.009 0.012 0.017 0.021 0.025 0.031-1.631-1.601-2.377-2.729-2.153-5.074 0.262-2.746 2.426-4.553 5.28-4.27 1.314 0.131 2.975 0.979 3.475 2.309-0.008-0.01-0.017-0.021-0.022-0.029 0.264 0.682 0.684 1.699 0.606 2.428-0.089 0.862-1.415 0.891-2.098 0.82-0.301-0.031-0.652-0.096-0.88-0.309-0.448-0.479 0.062-1.188-0.694-1.891-0.332-0.277-0.72-0.533-1.158-0.576-0.328-0.033-0.741 0.252-0.981 0.445 0.01 0.001 0.019 0.002 0.026 0.003-0.458 0.444-0.789 1.011-0.852 1.655-0.016 0.136-0.003 0.3 0.012 0.438 0.176 1.916 5.511 5.25 5.965 8.782 0.1-0.01 0.1-0.01 0.1-0.02z" fill="#fff"/>
			<path d="m1375.2 148.01c-0.479 0.355-0.733 0.164-1.081 0.809-0.611 1.077-1.4 8.721-1.595 10.521-0.083 0.781-0.116 1.865 0.84 2.131-0.01 0-0.018-0.002-0.025-0.002 0.133 0.041 0.214 0.049 0.35 0.064 0.649 0.068 1.22-0.142 1.479-0.767 0.308-0.537 0.403-0.937 1.137-0.854 0.705 0.078 2.079 0.801 1.983 1.635-0.067 0.619-0.689 1.041-1.09 1.432 0.001-0.01 0.002-0.018 0.003-0.027-0.361 0.312-0.754 0.625-1.237 0.816 0.009 0.001 0.019 0.002 0.025 0.003-0.749 0.353-1.809 0.537-2.646 0.446-1.296-0.139-2.494-0.946-3.142-2.075-0.812-1.392-0.771-3.074-0.61-4.608 0.166-1.587 0.549-3.152 0.852-4.725 0.542-2.799 0.982-7.299 4.695-7.801-0.001 0.01-0.002 0.02-0.003 0.027 0.312-0.074 0.641-0.039 0.915-0.011 2.548 0.276 2.917 1.708 4.131 3.478-0.399 0.606-0.781 0.812-1.378 1.207 0.009 0.002 0.018 0.002 0.025 0.004-0.352 0.179-0.655 0.445-1.064 0.398-1.037-0.111-0.53-1.963-2.062-2.129-0.1-0.02-0.2-0.01-0.4 0.03z" fill="#fff"/>
			<path d="m1390.2 163.63c0.13 0.752 0.412 1.357 0.399 2.146-0.611 0.524-1.986 0.144-2.746 0.08-0.434-1.657-0.611-3.396-0.713-5.099-0.539-0.09-1.072-0.232-1.613-0.297-0.242-0.026-0.491-0.028-0.737-0.031-0.333 0.97-1.041 2.605-1.237 3.589-0.076 0.426-0.138 0.719-0.499 1.005-0.441 0.059-0.878 0.035-1.312-0.016-0.755-0.086-0.986-0.221-0.893-1.055 0.089-0.779 0.482-1.604 0.763-2.365 0.777-2.035 1.508-4.073 2.214-6.146 1.001-2.962 1.791-5.976 2.887-8.954 0.338-0.041 0.698-0.054 1.027-0.016 0.438 0.051 0.844 0.152 1.243 0.281 0.225 1.633 0.051 3.33 0.104 4.971 0.094 2 0.334 3.936 0.511 5.918 0.203 1.986 0.347 4.02 0.629 5.988l-0.1 0.01zm-3.8-5.75c0.162 0.021 0.326 0.039 0.492 0.031-0.086-0.91-0.231-2.016-0.125-2.93 0.012-0.107-0.022-0.275-0.034-0.413-0.32 1.079-0.744 2.119-1.035 3.202 0.2 0.05 0.4 0.07 0.6 0.11z" fill="#fff"/>
			<path d="m1395.8 148.15c0.096-0.777 0.479-0.977 1.22-0.886 0.385 0.048 0.726 0.198 1.104 0.274 1.812 0.389 2.827 0.271 4.326 1.582 0.001-0.008 0.002-0.019 0.004-0.027 1.684 1.39 0.637 4.992 0.583 6.896-0.075 1.652-0.104 3.367-0.317 5.03-0.239 1.853-0.672 4.332-2.273 5.489-0.993 0.691-2.562 0.547-3.75 0.398-1.132-0.143-2.273-0.42-3.392-0.695 0.9-6 1.7-12.03 2.6-18.05zm2 4.18c0.001-0.01 0.003-0.02 0.004-0.026-0.649 2.754-1.032 5.624-1.405 8.385-0.056 0.457-0.354 3.063-0.683 3.05 0.434 0.055 0.886 0.166 1.318 0.221 2.054 0.258 2.508-0.719 2.734-2.519 0.079-0.616 0.13-1.237 0.205-1.829 0.228-1.771 0.815-5.322 0.721-6.972-0.002 0.019-0.004 0.036-0.007 0.054 0.02-0.354-0.14-1.3-0.409-1.58-0.37-0.348-1.665-0.646-2.18-0.738 0.1 0.66 0 1.34-0.2 1.97z" fill="#fff"/>
			<path d="m1409.1 152.53c-0.076 0.572-0.151 1.145-0.229 1.717-0.208 1.555-0.625 3.027-0.832 4.582-0.178 1.314-0.206 2.592-0.382 3.908-0.084 0.616-0.248 1.25-0.332 1.865-0.084 0.645-0.099 1.352-0.185 1.995-0.047 0.349-0.123 0.72-0.276 1.055-0.621 0.354-1.623 0.249-2.327 0.185-0.413-0.41-0.505-0.967-0.433-1.529 0.042-0.322 0.145-0.664 0.211-0.98 0.477-2.148 0.789-4.346 1.075-6.519 0.386-2.95 0.528-5.935 0.911-8.856 0.197-1.502 1.125-1.162 2.3-1.008 0.629 0.083 1.084 0.227 0.987 0.95-0.2 0.89-0.5 1.76-0.6 2.64z" fill="#fff"/>
			<path d="m1416.6 169.23c-0.47-1.351-0.477-3.673-0.548-5.131-0.693 0.04-1.548 0.03-2.251-0.065-0.297 0.824-0.594 1.648-0.891 2.473 0.002-0.01 0.003-0.018 0.004-0.026-0.364 0.853-0.52 1.595-1.089 2.335-0.792-0.025-1.545-0.129-2.328-0.234 0.283-1.49 0.969-2.898 1.467-4.332 0.979-2.953 1.984-5.873 3.162-8.797 0.552-1.4 1.603-3.769 1.824-5.185 0.413 0.028 0.78-0.002 1.188 0.056 0.163 0.022 0.321 0.072 0.512 0.125 0.651 0.311 0.595 0.93 0.594 1.53 0.207 4.862-0.02 9.832 0.645 14.681-0.009-0.012-0.017-0.021-0.022-0.031 0.124 0.865 0.308 1.902 0.182 2.787-0.014 0.099-0.026 0.197-0.042 0.295-0.563-0.082-1.139-0.107-1.729-0.191-0.135-0.02-0.271-0.038-0.404-0.057-0.2-0.09-0.3-0.16-0.4-0.24zm-0.9-10.78c-0.413 0.98-0.778 2.023-1.035 3.08 0.463-0.018 0.926-0.035 1.389-0.053 0.036-1.251-0.246-2.602-0.066-3.889-0.072 0.318-0.197 0.629-0.316 0.885-0.1-0.02-0.1-0.02 0-0.03z" fill="#fff"/>
			<path d="m1225.3 120.09c-1.982 0-3.729-0.027-5.343-0.082-1.638-0.057-3.276-0.096-4.913-0.137l-2.766-0.07c-0.278-0.008-0.554-0.02-0.831-0.033-0.417-0.02-0.834-0.04-1.25-0.04l-0.161 0.001c-0.544 0-0.942-0.184-1.233-0.318-0.083-0.039-0.166-0.078-0.253-0.106-0.3-0.099-0.561-0.332-0.703-0.64l-0.053-0.103c-0.345-0.683-0.774-1.532-0.687-2.565 0.037-0.445 0.123-0.896 0.25-1.342-0.006-0.005-0.019-0.039-0.055-0.098-0.074-0.125-0.167-0.239-0.256-0.354l-0.168-0.222c-0.13-0.176-0.2-0.392-0.2-0.608v-0.301c0-0.125 0.023-0.25 0.067-0.367l0.177-0.477c0.147-0.4 0.294-0.801 0.472-1.191 0.082-0.181 0.116-0.327 0.118-0.483 0.001-0.141-0.003-0.261-0.007-0.359-0.029-0.796 0.208-1.181 0.641-1.457-0.056-0.555 0.088-1.086 0.422-1.551 0.074-0.104 0.072-0.251 0.026-0.669-0.029-0.365-0.001-0.723 0.082-1.057 0.041-0.176 0.104-0.363 0.167-0.549 0.052-0.146 0.105-0.291 0.131-0.439 0.071-0.476 0.12-0.999 0.156-1.689 0.021-0.339 0.091-0.636 0.155-0.897 0.063-0.269 0.121-0.5 0.096-0.674-0.042-0.291-0.022-0.562-0.009-0.78l0.01-0.17c0.007-0.22 0.017-0.422 0.041-0.62l0.139-1.113c0.088-0.703 0.176-1.407 0.252-2.112 0.029-0.3 0.041-0.605 0.055-0.923l0.021-0.484c0.011-0.173 0.062-0.338 0.148-0.48-0.021-0.083-0.038-0.171-0.049-0.264-0.054-0.433-0.076-0.868-0.098-1.303l-0.018-0.356c-0.037-0.446 0.083-0.75 0.248-0.955-0.032-0.304-0.048-0.533-0.063-0.764l-0.007-0.106c-0.021-0.283 0.079-0.562 0.272-0.769 0.193-0.208 0.465-0.325 0.749-0.325h0.479c0.092 0 0.183 0.012 0.271 0.036l0.241 0.063c0.134 0.035 0.267 0.069 0.396 0.107 0.178-0.121 0.396-0.207 0.591-0.207h0.302c0.102 0 0.201 0.015 0.299 0.044l0.21 0.064c0.163 0.05 0.325 0.1 0.487 0.147 0.488-0.11 0.913-0.003 1.314 0.274 0.07 0.047 0.15 0.088 0.229 0.13 0.089 0.046 0.176 0.093 0.259 0.142 0.522 0.307 0.912 0.77 1.183 1.413 0.266 0.627 0.318 1.25 0.363 1.798l0.01 0.111c0.347 0.039 0.713 0.065 1.111 0.082l0.118 0.002c0.464 0 0.589-0.119 0.687-0.25 0.251-0.342 0.692-0.562 1.124-0.562 0.475 0.021 0.959 0.043 1.453 0.124 0.062 0.01 0.131 0.011 0.2 0.014 0.236 0.012 0.68 0.033 1.077 0.273 0.031-0.003 0.063-0.005 0.097-0.005l0.194-0.002c0.31-0.001 0.42-0.01 0.478-0.057 0.281-0.238 0.576-0.414 0.86-0.583 0.11-0.067 0.226-0.134 0.338-0.207 0.42-0.27 0.97-0.198 1.308 0.168l0.142 0.155c0.009 0.009 0.018 0.019 0.024 0.028 0.41-0.35 0.922-0.551 1.502-0.589 0.343-0.018 0.683-0.146 1.076-0.294l0.235-0.088c0.591-0.216 1.148-0.326 1.664-0.326 0.012 0 0.103 0.001 0.111 0.002 0 0 0.062-0.001 0.11-0.001 0.038-0.045 0.076-0.083 0.105-0.113 0.194-0.245 0.601-0.567 1.271-0.567 0.763 0.014 1.396 0.023 2.067 0.001 0.576-0.019 1.152-0.021 1.729-0.022 1.175-0.003 2.285-0.005 3.387-0.157 0.271-0.039 0.549-0.06 0.827-0.079 0.156-0.011 0.312-0.021 0.468-0.038 0.035-0.004 0.154-0.011 0.188-0.011 0.657 0 1.161 0.439 1.266 1.098 0.438 0.544 0.894 1.105 1.442 1.511 0.262 0.193 0.417 0.499 0.417 0.825v0.958c0 0.13-0.025 0.26-0.073 0.381l-0.137 0.332c-0.09 0.213-0.183 0.425-0.25 0.644-0.109 0.342-0.206 0.684-0.303 1.026-0.091 0.317-0.182 0.634-0.278 0.949 0.066 0.217 0.061 0.454-0.029 0.673-0.062 0.157-0.106 0.263-0.16 0.37l-0.353 0.782c-0.334 0.736-0.667 1.471-0.987 2.212-0.011 0.025-0.021 0.062-0.035 0.11 0.331 0.119 0.553 0.321 0.689 0.447 0.025 0.025 0.053 0.051 0.083 0.074 0.744 0.554 0.59 1.347 0.54 1.608l-0.066 0.404c-0.049 0.302-0.096 0.587-0.104 0.847-0.002 0.3-0.006 0.766-0.366 1.177 0.05 0.905 0.083 1.74 0.115 2.576l0.113 2.625c0.066 1.457 0.135 2.914 0.19 4.373 0.016 0.437 0.011 0.867 0.006 1.308l-0.004 0.489c0.007 0.049 0.01 0.097 0.01 0.146 0 0.562-0.498 1.032-1.062 1.032l-1.422 0.08c-1.023 0.06-2.049 0.116-3.072 0.151-1.69 0.055-3.377 0.078-5.062 0.102l-1.646 0.021c-1.6 0.03-3.5 0.05-5.5 0.05zm-15.1-2.41c0.448 0 0.896 0.021 1.346 0.042 0.265 0.013 0.528 0.024 0.792 0.032l2.758 0.07c1.646 0.041 3.289 0.08 4.936 0.137 1.588 0.054 3.312 0.08 5.271 0.08 1.938 0 3.871-0.024 5.809-0.049l1.639-0.021c1.677-0.023 3.354-0.047 5.026-0.1 1.007-0.035 2.016-0.095 3.023-0.15l0.551-0.03c0.004-0.302 0.004-0.603-0.009-0.901-0.058-1.451-0.124-2.904-0.188-4.355l-0.115-2.639c-0.033-0.852-0.065-1.704-0.117-2.555-0.013-0.203-0.051-0.788 0.366-1.301 0-0.02 0.001-0.034 0.001-0.036 0.011-0.395 0.071-0.763 0.129-1.119l0.042-0.265c-0.318-0.055-0.627-0.236-0.877-0.521-0.338-0.385-0.512-0.885-0.467-1.337 0.032-0.392 0.105-0.717 0.235-1.007 0.32-0.746 0.659-1.493 1-2.241l0.097-0.214c-0.101-0.271-0.083-0.576 0.061-0.839 0.058-0.106 0.116-0.204 0.176-0.296 0.037-0.059 0.074-0.111 0.099-0.169 0.099-0.311 0.19-0.639 0.283-0.966 0.103-0.364 0.207-0.727 0.321-1.086 0.087-0.275 0.198-0.548 0.312-0.82l0.05-0.122v-0.265c-0.579-0.507-1.038-1.081-1.452-1.598-0.057-0.071-0.107-0.149-0.153-0.231-0.224 0.016-0.446 0.031-0.668 0.063-1.245 0.171-2.479 0.174-3.667 0.177-0.557 0.001-1.11 0.002-1.665 0.021-0.659 0.023-1.325 0.016-1.989 0.003-0.573 0.681-1.299 0.681-1.547 0.681l-0.166-0.004h-0.002c-0.307 0-0.637 0.069-0.992 0.2l-0.217 0.082c-0.485 0.184-1.035 0.392-1.688 0.423-0.199 0.013-0.275 0.082-0.332 0.146-0.608 0.707-1.654 0.799-2.37 0.21-0.101 0.064-0.188 0.127-0.268 0.193-0.635 0.534-1.328 0.537-1.787 0.539l-0.438 0.067c-0.364 0.074-0.733-0.062-0.969-0.332-0.022-0.001-0.046-0.001-0.069-0.002-0.145-0.007-0.287-0.016-0.426-0.038-0.271-0.044-0.565-0.067-0.848-0.083-0.516 0.529-1.218 0.798-2.093 0.798l-0.199-0.004c-0.571-0.023-1.089-0.066-1.584-0.132-0.845-0.121-1.375-0.677-1.46-1.527l-0.037-0.411c-0.038-0.453-0.069-0.843-0.209-1.171-0.123-0.292-0.243-0.391-0.334-0.444l-0.176-0.096c-0.103-0.054-0.204-0.109-0.302-0.168-0.09 0.019-0.191 0.03-0.292 0.03-0.111 0-0.3-0.03-0.406-0.066-0.167-0.045-0.372-0.107-0.582-0.171-0.461 0.271-0.824 0.25-1.175 0.165-0.017 0.24-0.079 0.512-0.252 0.767l0.007 0.151c0.018 0.382 0.035 0.765 0.082 1.143 0.008 0.067 0.057 0.192 0.102 0.313 0.041 0.111 0.082 0.223 0.117 0.336 0.021 0.06 0.044 0.148 0.068 0.248l0.025 0.104c0.104 0.388-0.028 0.8-0.338 1.055-0.034 0.028-0.069 0.054-0.105 0.077-0.011 0.165-0.021 0.328-0.039 0.49-0.078 0.722-0.167 1.437-0.256 2.151l-0.138 1.112c-0.019 0.143-0.021 0.279-0.024 0.417l-0.015 0.259c-0.011 0.134-0.02 0.272-0.009 0.348 0.082 0.565-0.036 1.056-0.132 1.449-0.042 0.175-0.09 0.349-0.101 0.528-0.04 0.754-0.095 1.339-0.179 1.891-0.048 0.299-0.138 0.559-0.214 0.788-0.043 0.122-0.086 0.244-0.114 0.368-0.033 0.132-0.043 0.26-0.033 0.382 0.058 0.533 0.137 1.294-0.399 2.052-0.036 0.051-0.104 0.146 0.036 0.438 0.173 0.351 0.13 0.769-0.107 1.078-0.113 0.146-0.294 0.296-0.479 0.378l0.001 0.003c-0.046 0.019-0.088 0.035-0.127 0.05 0.002 0.077 0.003 0.162 0.002 0.256-0.007 0.444-0.102 0.854-0.298 1.296-0.158 0.351-0.287 0.705-0.417 1.059l-0.062 0.166c0.098 0.128 0.189 0.26 0.272 0.398 0.348 0.576 0.437 1.139 0.268 1.719-0.091 0.316-0.149 0.639-0.179 0.951-0.035 0.416 0.161 0.844 0.405 1.33 0.036 0.017 0.072 0.033 0.107 0.049 0.145 0.066 0.279 0.13 0.349 0.13l0.5-0.03z" fill="#FEFCE9"/>
			<path d="m1230.4 108.1c0.047-0.079 0.357-0.224 0.404-1.257 0.045-0.898 0.016-1.159-0.102-1.395-0.088-0.179-0.126-0.427-0.111-0.382 0.016 0.047 0.425 0.082 0.286-0.007-0.503-0.333-0.331-1.304-0.013-1.917 0.123-0.229 0.078-1.098-0.123-1.516-0.199-0.395-0.271-0.728-0.346-0.838 0.099 0.084 0.201 0.051 0.185 0.029-0.291-0.375-0.266-0.777-0.427-1.021-0.488-0.729-1.092-0.866-1.752-1.057 0.169-0.094 0.104-0.527 0.025-0.404-0.156 0.253-1.025 0.261-1.962 0.193-1.107-0.082-1.257-0.696-2.474-0.696-0.832 0-1.201 0.088-1.521 0.518-0.203 0.276-0.345 0.277-0.345 0.277-0.253-0.095-1.308-0.298-2.011 0.494-0.637 0.716-0.951 1.837-1.127 1.971-0.051 0.037 0.188 0.029 0.25-0.027-0.1 0.428 0.018 1.121 0.074 1.241 0.103 0.218 0.312 0.771 0.057 0.964-0.721 0.822-0.365 2.867-0.211 3.034 0.121 0.127 0.146 0.165 0.121 0.41-0.199 1.873 0.401 2.018 0.516 2.295 0.094 0.242-0.15 0.283 0.071 0.78 0.131 0.297 0.136 0.425 0.081 0.732-0.02 0.091 0.25-0.13 0.271-0.24 0.036 0.281 0.227 0.785 0.368 1.18 0.15 0.41 0.646 0.703 0.735 1.086 0.022 0.099 0.205-0.18 0.198-0.381 0.126 0.526 0.54 0.682 0.833 1.026 0.233 0.267 0.346 0.5 0.57 0.601 0.225 0.098 0.542 0.264 0.569 0.363 0.011 0.042 0.099-0.062 0.092-0.238 0.186 0.315 0.73 0.416 1.137 0.855 0 0 0.122 0.148 0.122 0.104 0-0.064 0.111-0.184 0.162-0.213 0.291-0.184 0.62-0.211 0.779-0.51 0.127-0.225 0.519-0.102 0.805-0.214 0.507-0.192 0.58-0.416 0.621-0.542 0.005 0.098 0.154 0.211 0.154 0.195-0.01-0.273 0.542-0.455 0.67-0.641 0.201-0.306 0.5-0.398 0.65-0.58 0.196-0.244 0.287-0.807 0.277-0.861 0.035 0.051 0.15 0.207 0.16 0.1 0.002-0.059 0.033-0.076 0.275-0.312 0.551-0.542 0.553-1.104 0.565-1.404 0.021-0.451 0.09-0.181 0.216-0.155 0.127 0.028-0.351-0.384-0.011-0.733-0.1-0.31-0.2-0.81-0.2-0.89zm-0.5-1.28c0.02 1.229-0.936 1.885-2.076 1.885-0.035 0 0.209-0.374-0.044-0.165-0.124 0.104-0.431 0.181-0.594 0.169-0.176-0.009-0.354-0.034-0.528-0.052-0.656-0.073-1.328-0.161-1.624 0.149-0.102 0.151-0.063 0.142-0.204 0-0.354-0.353-0.916-0.496-1.201-0.804-0.812-0.884-0.475-0.854-0.88-1.384-0.358-0.472-0.458-0.646-0.608-0.737-0.156-0.099 0.023 0.351 0.194 0.867 0.182 0.564-0.069 0.719-0.005 1.008-0.09-0.263-0.213-0.354-0.209-0.299 0.021 0.255-0.705 0.651-0.972 1.287-0.165 0.397-0.079 0.004-0.308-0.508-0.521-1.169-0.586-1.202-0.494-1.789 0.062-0.379-0.039-0.946-0.156-1.041-0.115-0.092 0.179-0.097 0.25 0.083 0.104 0.238 0.123-0.075-0.078-0.324-0.283-0.357-0.078-0.77 0.061-1.379 0.137-0.608 0.096-0.99-0.083-1.507-0.043-0.131 0.037-0.079 0.128 0.021 0.174 0.186 0.137 0.387 0.41 0.465 0.274 0.082-0.107-0.136 0.043-0.63 0.148-0.494 0.033-1.582-0.078-1.831-0.012-0.076 0.005-0.068 0.037-0.028 0.229 0.287 0.869 0.319 1.076 0.528 0.463 0.491 0.588 0.714 0.834 1.381 0.088 0.249 0.088 0.782 0.045 0.922-0.005 0.021 0.154-0.021 0.164-0.084 0.135 0.435 0.281 1.025 0.722 1.416 0.405 0.358-0.042-0.625 0.149-1.067 0.33-0.769 0.154-1.34 0.12-2.199-0.035-0.863-0.218-0.423 1.027-0.351 0.747 0.042 1.263 0.071 2.144-0.021 0.315-0.032 0.379 0.166 0.901 0.182 0.14 0.008-0.181-0.196-0.109-0.291 0.53 0.196 1.729 0.517 1.753 2.179 0.023 1.79-2.059 1.653-2.414 1.458-0.129-0.07 0.026 0.17 0.115 0.236 0.16 0.107 0.294 0.137 0.634 0.171-0.125 0.101-0.081 0.244-0.059 0.217 0.106-0.139 0.32-0.228 0.581-0.194 1.5 0.11 1.7 1.11 1.7 2.03z" fill="#FDF7EE"/>
<polygon points="945.62 117.02 943.19 111.53 944.22 111.53 942.39 107.4 942.88 107.4 939.84 100.54 936.8 107.4 937.29 107.4 935.46 111.53 936.49 111.53 934.06 117.02 935.65 117.02 934.06 120.62 945.62 120.62 944.03 117.02" fill="#8B9833"/>
<polygon points="966.08 112.7 962.26 104.07 963.88 104.07 961 97.578 961.77 97.578 956.99 86.791 952.22 97.578 952.98 97.578 950.11 104.07 951.73 104.07 947.91 112.7 950.41 112.7 947.91 118.34 966.08 118.34 963.58 112.7" fill="#8B9833"/>
<rect y="119.48" x="938.46" height="3.178" width="2.242" fill="#506163"/>
<rect y="116.76" x="955.87" height="3.178" width="2.242" fill="#506163"/>
	<polygon points="798.28 131.27 795.85 125.78 796.88 125.78 795.06 121.65 795.54 121.65 792.51 114.79 789.47 121.65 789.96 121.65 788.13 125.78 789.16 125.78 786.73 131.27 788.32 131.27 786.73 134.86 798.28 134.86 796.7 131.27" fill="#8B9833"/>
	<polygon points="822.01 132.57 817.69 122.81 819.52 122.81 816.27 115.47 817.14 115.47 811.74 103.27 806.34 115.47 807.2 115.47 803.96 122.81 805.78 122.81 801.47 132.57 804.29 132.57 801.47 138.95 822.01 138.95 819.18 132.57" fill="#8B9833"/>
	<rect y="133.72" x="791.12" height="3.178" width="2.241" fill="#506163"/>
	<polygon points="835.43 125.52 833.53 121.23 834.33 121.23 832.9 118 833.28 118 830.91 112.64 828.54 118 828.92 118 827.49 121.23 828.3 121.23 826.4 125.52 827.64 125.52 826.4 128.33 835.43 128.33 834.18 125.52" fill="#8B9833"/>
	<rect y="127.44" x="829.83" height="2.482" width="1.753" fill="#506163"/>
	<rect y="137.15" x="810.47" height="3.593" width="2.535" fill="#506163"/>
	<polygon points="898.49 134.8 894.17 125.04 896 125.04 892.75 117.7 893.62 117.7 888.22 105.51 882.82 117.7 883.69 117.7 880.44 125.04 882.27 125.04 877.95 134.8 880.77 134.8 877.95 141.18 898.49 141.18 895.66 134.8" fill="#8B9833"/>
	<polygon points="908.65 124.49 906.75 120.2 907.55 120.2 906.12 116.98 906.5 116.98 904.13 111.62 901.76 116.98 902.14 116.98 900.71 120.2 901.51 120.2 899.62 124.49 900.86 124.49 899.62 127.3 908.65 127.3 907.4 124.49" fill="#8B9833"/>
	<rect y="126.41" x="903.05" height="2.482" width="1.753" fill="#506163"/>
	<rect y="139.39" x="886.95" height="3.593" width="2.535" fill="#506163"/>
	<polygon points="735.59 150.14 730.18 137.9 732.47 137.9 728.4 128.7 729.48 128.7 722.71 113.4 715.94 128.7 717.03 128.7 712.95 137.9 715.25 137.9 709.83 150.14 713.37 150.14 709.83 158.15 735.59 158.15 732.05 150.14" fill="#8B9833"/>
	<polygon points="748.33 137.21 745.95 131.84 746.96 131.84 745.16 127.79 745.64 127.79 742.67 121.06 739.69 127.79 740.17 127.79 738.38 131.84 739.38 131.84 737 137.21 738.56 137.21 737 140.73 748.33 140.73 746.77 137.21" fill="#8B9833"/>
	<rect y="139.62" x="741.31" height="3.113" width="2.198" fill="#506163"/>
	<polygon points="660.13 135.81 655.82 126.09 657.65 126.09 654.41 118.78 655.28 118.78 649.9 106.63 644.52 118.78 645.39 118.78 642.15 126.09 643.97 126.09 639.67 135.81 642.48 135.81 639.67 142.16 660.13 142.16 657.32 135.81" fill="#8B9833"/>
	<rect y="140.15" x="647.44" height="5.624" width="3.971" fill="#506163"/>
	<rect y="155.89" x="721.12" height="4.506" width="3.179" fill="#506163"/>
	<polygon points="1060 110.56 1056.2 101.93 1057.8 101.93 1054.9 95.441 1055.7 95.441 1050.9 84.654 1046.1 95.441 1046.9 95.441 1044 101.93 1045.7 101.93 1041.8 110.56 1044.3 110.56 1041.8 116.21 1060 116.21 1057.5 110.56" fill="#8B9833"/>
	<polygon points="1078.2 108.05 1075.8 102.56 1076.8 102.56 1075 98.431 1075.4 98.431 1072.4 91.567 1069.4 98.431 1069.9 98.431 1068 102.56 1069.1 102.56 1066.6 108.05 1068.2 108.05 1066.6 111.64 1078.2 111.64 1076.6 108.05" fill="#8B9833"/>
	<rect y="110.5" x="1071" height="3.177" width="2.242" fill="#506163"/>
	<polygon points="1020.6 107.04 1019 103.28 1019.7 103.28 1018.4 100.45 1018.7 100.45 1016.7 95.75 1014.6 100.45 1014.9 100.45 1013.7 103.28 1014.4 103.28 1012.7 107.04 1013.8 107.04 1012.7 109.5 1020.6 109.5 1019.5 107.04" fill="#8B9833"/>
	<rect y="108.72" x="1015.7" height="2.176" width="1.536" fill="#506163"/>
	<rect y="114.62" x="1049.8" height="3.178" width="2.242" fill="#506163"/>
	<polygon points="1514.7 117.06 1512.3 111.58 1513.3 111.58 1511.5 107.45 1512 107.45 1509 100.58 1505.9 107.45 1506.4 107.45 1504.6 111.58 1505.6 111.58 1503.2 117.06 1504.8 117.06 1503.2 120.66 1514.7 120.66 1513.2 117.06" fill="#8B9833"/>
	<polygon points="1542.1 137.89 1537.8 128.14 1539.6 128.14 1536.4 120.81 1537.2 120.81 1531.8 108.63 1526.4 120.81 1527.3 120.81 1524.1 128.14 1525.9 128.14 1521.6 137.89 1524.4 137.89 1521.6 144.26 1542.1 144.26 1539.3 137.89" fill="#8B9833"/>
	<rect y="119.52" x="1507.6" height="3.178" width="2.243" fill="#506163"/>
	<rect y="142.47" x="1530.6" height="3.589" width="2.532" fill="#506163"/>
	<polygon points="1488.6 130.67 1484.8 122.04 1486.4 122.04 1483.5 115.55 1484.3 115.55 1479.5 104.76 1474.7 115.55 1475.5 115.55 1472.6 122.04 1474.2 122.04 1470.4 130.67 1472.9 130.67 1470.4 136.32 1488.6 136.32 1486.1 130.67" fill="#8B9833"/>
	<rect y="134.73" x="1478.4" height="3.178" width="2.242" fill="#506163"/>
	<polygon points="1564.9 117.74 1562.5 112.25 1563.5 112.25 1561.7 108.12 1562.1 108.12 1559.1 101.26 1556.1 108.12 1556.6 108.12 1554.7 112.25 1555.8 112.25 1553.3 117.74 1554.9 117.74 1553.3 121.33 1564.9 121.33 1563.3 117.74" fill="#8B9833"/>
	<polygon points="1585.3 113.42 1581.5 104.79 1583.1 104.79 1580.3 98.298 1581 98.298 1576.3 87.511 1571.5 98.298 1572.3 98.298 1569.4 104.79 1571 104.79 1567.2 113.42 1569.7 113.42 1567.2 119.06 1585.3 119.06 1582.8 113.42" fill="#8B9833"/>
	<rect y="120.2" x="1557.7" height="3.176" width="2.243" fill="#506163"/>
	<rect y="117.48" x="1575.1" height="3.178" width="2.243" fill="#506163"/>
	<polygon points="1691.9 132.92 1694 128.12 1693.1 128.12 1694.7 124.51 1694.3 124.51 1696.9 118.51 1699.6 124.51 1699.2 124.51 1700.8 128.12 1699.9 128.12 1702 132.92 1700.6 132.92 1702 136.06 1691.9 136.06 1693.3 132.92" fill="#8B9833"/>
	<polygon points="1674 129.14 1677.3 121.6 1675.9 121.6 1678.4 115.92 1677.8 115.92 1681.9 106.49 1686.1 115.92 1685.4 115.92 1688 121.6 1686.5 121.6 1689.9 129.14 1687.7 129.14 1689.9 134.08 1674 134.08 1676.2 129.14" fill="#8B9833"/>
	<rect y="135.07" x="1696.2" height="2.778" width="1.961" fill="#506163"/>
	<polygon points="1763.5 148.73 1766.7 141.5 1765.4 141.5 1767.8 136.06 1767.2 136.06 1771.2 127.02 1775.2 136.06 1774.5 136.06 1776.9 141.5 1775.6 141.5 1778.8 148.73 1776.7 148.73 1778.8 153.46 1763.5 153.46 1765.6 148.73" fill="#8B9833"/>
	<rect y="151.96" x="1770" height="4.185" width="2.954" fill="#506163"/>
	<rect y="132.69" x="1681" height="2.777" width="1.961" fill="#506163"/>
	<polygon points="1838.9 161.5 1841.6 155.44 1840.5 155.44 1842.5 150.89 1841.9 150.89 1845.3 143.32 1848.6 150.89 1848.1 150.89 1850.1 155.44 1849 155.44 1851.7 161.5 1849.9 161.5 1851.7 165.46 1838.9 165.46 1840.7 161.5" fill="#8B9833"/>
	<polygon points="1816.3 156.73 1820.6 147.21 1818.8 147.21 1821.9 140.04 1821.1 140.04 1826.4 128.14 1831.6 140.04 1830.8 140.04 1834 147.21 1832.2 147.21 1836.4 156.73 1833.6 156.73 1836.4 162.96 1816.3 162.96 1819.1 156.73" fill="#8B9833"/>
	<rect y="164.21" x="1844.3" height="3.506" width="2.475" fill="#506163"/>
	<rect y="161.21" x="1825.1" height="3.505" width="2.476" fill="#506163"/>
	<polygon points="1634.2 122.25 1636.9 116.12 1635.8 116.12 1637.8 111.5 1637.3 111.5 1640.7 103.84 1644.1 111.5 1643.5 111.5 1645.6 116.12 1644.4 116.12 1647.1 122.25 1645.4 122.25 1647.1 126.26 1634.2 126.26 1636 122.25" fill="#8B9833"/>
	<polygon points="1608.5 135.28 1612.8 125.64 1611 125.64 1614.2 118.39 1613.3 118.39 1618.6 106.34 1624 118.39 1623.1 118.39 1626.3 125.64 1624.5 125.64 1628.8 135.28 1626 135.28 1628.8 141.58 1608.5 141.58 1611.3 135.28" fill="#8B9833"/>
	<rect y="124.99" x="1639.7" height="3.549" width="2.506" fill="#506163"/>
	<rect y="139.81" x="1617.4" height="3.549" width="2.505" fill="#506163"/>
<path d="m850.2 45.315c-0.644 0-1.266 0.067-1.865 0.184-0.79-6.519-7.049-11.597-14.654-11.597-2.061 0-4.021 0.375-5.803 1.048-2.711-1.949-6.171-3.121-9.942-3.121-6.591 0-12.228 3.571-14.572 8.635-0.29-0.021-0.581-0.04-0.878-0.04-4.41 0-8.199 2.32-9.902 5.647-0.316-0.035-0.639-0.062-0.966-0.062-4.251 0-12.114 4.923-12.114 8.67s7.863 4.899 12.114 4.899c1.872 0 4.386 1.008 5.72 0.03 1.709 0.988 2.951-0.03 5.148-0.03 2.641 0 5.061-0.832 6.941-2.212 2.455 1.394 5.371 2.212 8.509 2.212 2.812 0 5.44-0.657 7.727-1.792 2.31 1.324 5.06 2.1 8.021 2.1 3.53 0 6.771-1.097 9.309-2.92 1.525 2.087 4.184 3.473 7.213 3.473 4.738 0 13.801-1.583 13.801-5.759-0.02-4.174-9.08-9.365-13.82-9.365z" fill="#C6F1FF"/>
<path d="m1615.9 61.377c0.424 0 0.834 0.042 1.229 0.116 0.521-4.088 4.653-7.272 9.674-7.272 1.36 0 2.653 0.235 3.829 0.657 1.791-1.222 6.236-3.972 8.729-3.972 4.35 0 5.906 4.254 7.457 7.429 0.189-0.013 0.384-0.024 0.578-0.024 2.91 0 5.412 1.455 6.536 3.541 0.21-0.022 0.421-0.037 0.64-0.037 2.807 0 11.932 2.312 11.932 4.662s-9.125 3.847-11.932 3.847c-1.236 0-2.367-0.37-3.248-0.983-1.131 0.62-2.478 0.983-3.928 0.983-1.744 0-3.34-0.521-4.584-1.387-1.619 0.874-3.545 1.387-5.613 1.387-1.854 0-3.594-0.412-5.102-1.124-1.523 0.83-3.34 1.317-5.294 1.317-2.331 0-4.468-0.688-6.144-1.831-1.01 1.309-2.764 2.178-4.762 2.178-3.129 0-5.663-2.124-5.663-4.743 0-2.62 2.6-4.744 5.7-4.744z" fill="#C6F1FF"/>
<ellipse cy="212.66" cx="1098.5" rx="17.932" ry="4" fill="#592F1A"/>
<ellipse cy="212.66" cx="1362.5" rx="17.932" ry="4" fill="#592F1A"/>
</svg>
