<?xml version="1.0" encoding="UTF-8" standalone="no"?>
<!-- Generator: Adobe Illustrator 16.0.4, SVG Export Plug-In . SVG Version: 6.00 Build 0)  -->
<!DOCTYPE svg  PUBLIC '-//W3C//DTD SVG 1.1//EN'  'http://www.w3.org/Graphics/SVG/1.1/DTD/svg11.dtd'>
<svg id="Layer_1" xmlns="http://www.w3.org/2000/svg" xml:space="preserve" height="187.04px" viewBox="0 0 2500 187.042" width="2500px" version="1.1" y="0px" x="0px" xmlns:xlink="http://www.w3.org/1999/xlink" enable-background="new 0 0 2500 187.042">
<path d="m1373.6 39.002c-0.343 0-0.674 0.04-0.992 0.111-0.42-3.937-3.749-7-7.795-7-1.098 0-2.141 0.227-3.086 0.632-1.443-1.176-3.283-1.883-5.289-1.883-3.506 0-6.504 2.155-7.752 5.211-0.154-0.012-0.312-0.023-0.469-0.023-2.346 0-4.359 1.4-5.268 3.408-0.169-0.021-0.34-0.036-0.514-0.036-2.264 0-8.902 2.483-8.902 4.744 0 2.262 6.641 3.446 8.902 3.446 0.994 0 1.904-0.356 2.614-0.946 0.909 0.597 1.995 0.946 3.165 0.946 1.404 0 2.691-0.502 3.693-1.335 1.306 0.841 2.855 1.335 4.525 1.335 1.494 0 2.895-0.396 4.107-1.082 1.229 0.799 2.691 1.267 4.268 1.267 1.878 0 3.602-0.662 4.951-1.762 0.812 1.26 2.225 2.096 3.836 2.096 2.521 0 10.373-1.444 10.373-3.965 0-2.52-7.8-5.164-10.3-5.164z" fill="#C6F1FF"/>
<path d="m1464.9 46.398c0.427 0 0.843 0.056 1.242 0.156 0.526-5.494 2.188-7.848 7.257-7.848 1.374 0 5.188-1.608 6.373-1.042 1.807-1.642 5.856-4.706 8.369-4.706 4.391 0 6.403 5.086 7.967 9.352 0.193-0.017 0.387-0.033 0.585-0.033 2.938 0 5.463 1.955 6.6 4.758 0.212-0.03 0.425-0.05 0.644-0.05 2.832 0 11.816 2.838 11.816 5.996s-8.984 5.438-11.816 5.438c-1.247 0-2.389-0.497-3.275-1.321-1.142 0.833-2.5 1.321-3.966 1.321-1.76 0-3.37-0.701-4.626-1.864-1.637 1.174-3.578 1.864-5.67 1.864-1.871 0-3.625-0.554-5.146-1.51-1.539 1.115-3.371 1.769-5.345 1.769-2.354 0-4.511-0.923-6.201-2.46-1.019 1.759-2.787 2.927-4.807 2.927-3.156 0-12.352-1.672-12.352-5.192s9.2-7.555 12.3-7.555z" fill="#C6F1FF"/>
<path d="m1164.8 29.916c-0.496 0-0.979 0.054-1.442 0.15-0.612-5.302-5.462-9.432-11.354-9.432-1.598 0-3.115 0.305-4.498 0.852-2.101-1.585-8.568-1.978-11.494-1.978-5.104 0-5.684 2.344-7.502 6.462-0.226-0.016-0.449-0.031-0.681-0.031-3.417 0-6.354 1.886-7.674 4.591-0.245-0.028-0.494-0.048-0.748-0.048-3.294 0-15.726 3.634-15.726 6.681s12.432 4.354 15.726 4.354c1.45 0 2.776-0.48 3.812-1.275 1.326 0.804 2.908 1.275 4.61 1.275 2.046 0 3.921-0.676 5.38-1.799 1.903 1.133 4.162 1.799 6.594 1.799 2.178 0 4.217-0.534 5.985-1.458 1.79 1.076 3.921 1.707 6.216 1.707 2.734 0 5.244-0.891 7.211-2.375 1.186 1.698 3.242 2.825 5.588 2.825 3.674 0 14.401-1.657 14.401-5.054 0-3.395-10.8-7.246-14.4-7.246z" fill="#C6F1FF"/>
<path d="m1284.1 25.489c-0.304 0-0.597 0.033-0.878 0.091-0.371-3.219-3.316-5.727-6.896-5.727-0.969 0-1.892 0.186-2.729 0.518-1.275-0.962-5.203-1.201-6.979-1.201-3.101 0-3.451 1.423-4.556 3.923-0.138-0.01-0.272-0.019-0.413-0.019-2.074 0-3.857 1.146-4.659 2.788-0.148-0.019-0.3-0.029-0.454-0.029-2 0-9.547 2.207-9.547 4.057s7.547 2.644 9.547 2.644c0.881 0 1.688-0.292 2.313-0.774 0.806 0.488 1.767 0.774 2.8 0.774 1.241 0 2.381-0.411 3.268-1.092 1.154 0.688 2.527 1.092 4.002 1.092 1.322 0 2.562-0.325 3.635-0.885 1.087 0.653 2.382 1.036 3.773 1.036 1.661 0 3.186-0.541 4.379-1.441 0.719 1.031 1.969 1.715 3.394 1.715 2.229 0 8.743-1.006 8.743-3.068s-6.4-4.402-8.6-4.402z" fill="#C6F1FF"/>
<path d="m1221.2 5.357c-0.229 0-0.455 0.025-0.672 0.07-0.284-2.465-2.539-4.386-5.279-4.386-0.741 0-1.447 0.142-2.092 0.396-0.977-0.737-3.984-0.919-5.345-0.919-2.374 0-2.646 1.09-3.489 3.005-0.104-0.008-0.209-0.015-0.313-0.015-1.591 0-2.954 0.877-3.569 2.135-0.113-0.013-0.229-0.022-0.348-0.022-1.531 0-7.312 1.69-7.312 3.106 0 1.417 5.779 2.025 7.312 2.025 0.675 0 1.293-0.223 1.771-0.593 0.615 0.374 1.354 0.593 2.146 0.593 0.95 0 1.821-0.314 2.501-0.836 0.885 0.527 1.936 0.836 3.064 0.836 1.012 0 1.961-0.249 2.783-0.678 0.832 0.5 1.823 0.793 2.891 0.793 1.271 0 2.438-0.414 3.354-1.104 0.549 0.79 1.507 1.313 2.598 1.313 1.708 0 6.697-0.771 6.697-2.35s-5.1-3.369-6.8-3.369z" fill="#C6F1FF"/>
<path d="m0 89.746s15.601-8.608 45.003-0.51 41.922-0.477 68.999-0.788c24.332-5.782 50.349-5.624 61.007-0.703s42.321 6.828 53.989-0.625 35.349-2.953 46.009-0.537c10.66 2.416 16.829-0.197 25.338-0.297 15.182-0.178 24.004 5.201 45.997-0.542s67.98 1.256 83.32 6.256c15.334 5 27.992-3.095 38.33-7.714s16.964-0.207 25.342-0.31c9.092-0.111 12.979-5.02 26.987-0.331s21.537-0.266 32.016-0.397c22.786-0.285 51.67 7.265 64.998-0.825s12.664 3.077 25.996-0.34 26.242-0.35 38.018-0.512c7.753-0.106 6.98-6.376 21.981-0.308s36.043-0.534 47.331-0.735c11.464-0.204 17.939-0.36 18.336-0.456 42.951-10.37 84.855 0.696 87-2.071 2.146-2.767 57.25-23.914 72.25-18.835s16.709 11.734 28.436 13.71c11.729 1.976 51.314-8.21 61.814-7.21s35.908 15.381 44.5 14 32.867-33.52 50.25-30.875c30.667 4.667 38.359-5.898 47.359-5.898s132.07 12.802 156.56 6.44c21.167-5.5 22.706-9.792 36.834-1.605s28.5 12.272 40.5 9.272 21.753 8.167 32.25 8.167 36.584 0.368 50.584-1.5 35.489 27 56.489 10 66.1 13.75 102.1 3.333 83 15.989 88 14.828c1.009-0.234 16.333-5.828 54.348 0.603 13.881 2.348 36.92-3.952 47.311 0.809 10.389 4.761 39.254 0.706 61.361 1.116 14.092 0.262 21.625 5.158 42.313-0.355s53.767 1.939 74.667 7.372c10.268 2.67 21.287-5.996 41.333-7.372 12.698-0.871 35.247 6.78 43.654 4.233 21.68-6.566 49.987 14.82 74.013 4.206 24.025-10.614 26.782 4.79 41.199 3.538s77.875-11.981 101.54 1.309c23.66 13.289 73.615-8.043 82.266-4.846 12.008 4.441 13.557 6.131 18.333 6.229 27.993 0.567 57.333-5.687 69.333-2.676 12 3.01 24.334 0.498 24.334 0.498v78.178l-2500-6v-88.924h0.1z" fill="#68ABC0"/>
<path d="m2500 122.17s-27.52 0.433-31.76-1.16c-4.24-1.592-3.488 1.381-9.739-0.354s-8.302-4.353-21.776-0.794c-13.474 3.559-60.436 4.516-70.955-2.588s-42.02-14.104-47.52-11.104-8.5-1.5-16 2.5-29.25 8-38 3.5-23.75-3.75-23.75-3.75-57.99 6.156-65.49 0.543c-7.5-5.612-25.26-9.521-33.26-6.521s-4.268-12.018-28.5-5.772c-24.232 6.246-45.471 9.733-45.471 9.733l-24.006-0.875s-23.259 2.349-43.517-1.588-26.6-15.19-31.1-15.783c-3.789-0.496-2.667 7.167-16.333 7.167-7.276 0-5.131 10.494-14.167 7.106-19.996-7.495-36.166 4.562-45.499 3.228-9.333-1.332-24.032-9.547-32.667-14.667s-30.666 15.333-50.333 13.333-20.001-14-28.334-16.667-44.63 4.247-54.981 6.29c-10.351 2.043-36.176-11.508-48.3-13.29-12.125-1.782-23.358-0.5-23.358-0.5s-14.889 5.635-25.783 3.567c-10.896-2.067-12.291-24.394-26.189-21.629-13.897 2.765-61.51 21.492-61.51 21.492l-10.662-8.306s-4-4.129-12.845-2.193-19.372 10.654-19.372 10.654-34.523-18.109-39.469-18.473c-4.945-0.363-11.686-3.302-12.695-4.207-3.25-2.906-11.238-2.234-16.245 0.805-5.005 3.039-10.583 2.003-16.005 4.039-26.354 9.897-57 25.778-57 25.778s-31.934-43.646-44-54.335-70.9 12.635-70.9 12.635l-63.5-9.833s-22.704 6.65-30.261 12.167c-2.739 2-8.993-5.021-12.118-5.771-3.211-0.771-7.58 8.556-12.455 10.104s-0.008-2.959-9.625 2.125c-9.046 4.783-15.375 0.875-26.375-0.125s-11.151-0.049-18-2.049-11.104 3.181-20.385 10.782-56 15.517-56 15.517-18.639-6.931-28.75-16.125c-0.924-0.84-3.472-1.402-4.375-2.125-1.154-0.923-3.035-3.205-4.125-3.875-1.903-1.17-3.076 0.985-4.625 0.875-2.23-0.158-4.331 0.196-7.25 2.125-1.012 0.668-3.704 2.667-4.75 3.5-1.626 1.294-7.379 0.571-9.01 2.121-8.836 8.403-11.782 19.582-11.782 19.582s-49.85-19.328-58.52-20.995-43.33 21.333-43.33 21.333-42.167 2.833-50 0.412c-0.323-0.1-10.267-3.956-25.833-3.912-7.969 0.022-20.668 4.748-31.833 4.833-11.624 0.088-21.837-4.461-36.333-4.315-3.107 0.031-12.152 7.156-15.375 7.19-9.791 0.103-17.41-5.792-27.75-2.875-12.38 3.491-35.924-18.51-44.542-12.833s-4.507 2.895-12.833 3c-11.384 0.144-25.939 18.18-37.75 18.333-10.16 0.133-12.37-3.889-22.75-3.75-1.831 0.024-14.164 5.931-16 5.957-9.994 0.133-21-1.662-30-6.457-13.948-7.431-8.5-1.25-21.75-4.25-22.618-5.121-19.498 8.814-41.852 6.354-25.808-2.839-103.66 5.38-128.15-0.854-20.014-5.095-52.917 14.5-71.25 0.333-7.539-5.825-13.833 7.833-20.167 5.939-9.879-2.955-19.687 5.263-28.333 5.396-32.875 0.498-27.735-6.613-38.167-8.168-11.61-1.73-32.523-7.165-41.928-2.332-9.405 4.832-29.239 7.5-47.718 2.73-10.499-2.709-26.704 3.22-26.704 3.22v57.379l2500 0.459v-38.96z" fill="#4A7D88"/>
<path d="m2477.7 133.32s-82.697-26.911-110.68-19.538c-27.985 7.371-59.5-2.363-90 4.553-30.5 6.918-49-16.765-58.75-12.166-10.006 4.717-14.75-11.75-26.5-3.729-19.168 13.087-58.75 6.729-77.25 14.729s-45.5-32.5-55.5-24c-10 8.5-29.5 7.5-40.5 17s-59.79 17.77-79 13.5c-22.5-5-56.834-13.219-68.167-15.332-9.097-1.696-19.333 6.666-28.833 5.447-9.5-1.223-9.75 0.637-23.167 3.602s-47.833-8.715-51.083-10.895c-3.25-2.179-21 8.98-27.916 8.98-5.665 0-22.733-25.349-36.418-34.25h0.734l-1.742-3.712h0.738l-1.312-2.789h0.35l-2.182-4.637-2.183 4.637h0.351l-1.312 2.789h0.739l-0.417 0.888c-0.748-0.157-1.479-0.252-2.18-0.228-1.409 0.05-2.845 0.227-4.298 0.496l-0.854-1.816h0.479l-0.854-1.808h0.229l-1.414-3.005-1.414 3.005h0.229l-0.854 1.808h0.479l-1.132 2.406h0.739l-0.259 0.549c-0.384 0.115-0.768 0.235-1.153 0.359l-1.395-2.968h0.875l-1.556-3.305h0.413l-2.585-5.494-2.585 5.494h0.416l-1.557 3.305h0.877l-2.068 4.397h1.354l-0.907 1.928c-8.503 3.648-16.844 7.863-23.711 8.149-5.024 0.209-8.071 2.861-10.378 5.512l-0.71-1.509h0.354l-2.209-4.696-2.21 4.696h0.354l-1.313 2.79-0.345-0.777h0.259l-1.614-3.652-1.616 3.652h0.259l-0.973 2.195h0.549l-0.422 0.953c-2.474-2.019-4.827-4.165-6.938-6.223-5.176-5.047-8.923-9.51-9.565-9.939-4.051-2.7-41.479-41-48.999-35.651-3.408 2.423-10.776-5.404-17.354-6.974-7.936-1.895-17.45 0.164-21.5-0.75-7.2-1.663-16.4 15.384-27.4 14.384-9.163-0.833-29.075 19.539-43.564 26.661l-0.393-0.835h0.504l-0.895-1.901h0.238l-1.488-3.162-1.486 3.162h0.238l-0.896 1.901h0.506l-1.189 2.531h0.715c-0.443 0.139-0.883 0.262-1.312 0.362l-0.561-1.188h1.155l-1.768-3.759h0.748l-1.328-2.825h0.354l-2.21-4.696-2.21 4.696h0.355l-1.33 2.825h0.75l-1.771 3.759h1.156l-0.574 1.22c-1.14-0.191-2.263-0.456-3.374-0.78l-0.406-0.922h0.604l-0.926-2.094h0.392l-0.696-1.574h0.188l-1.158-2.617-1.157 2.617h0.188l-0.697 1.574h0.395l-0.713 1.608c-8.895-3.633-17.152-9.895-26.383-9.895-2.21 0-4.227-0.301-6.099-0.805l-0.437-0.981h0.606l-0.926-2.094h0.392l-0.696-1.574h0.188l-1.158-2.617-1.158 2.617h0.188l-0.697 1.574h0.393l-0.703 1.593c-0.45-0.215-0.894-0.441-1.322-0.679l-0.198-0.447h0.433l-0.658-1.488h0.279l-0.496-1.119h0.133l-0.824-1.86-0.822 1.86h0.134l-0.495 1.119h0.277l-0.188 0.426c-9.729-6.71-14.747-18.141-23.889-13.69-6.028 2.935-16.129 2.313-29 11.5-0.962 0.686-1.884 1.293-2.777 1.843l-0.263-0.593h0.476l-0.843-1.904h0.225l-1.401-3.165-1.399 3.165h0.226l-0.844 1.904h0.476l-1.13 2.529h0.732l-0.039 0.088c-7.522 3.395-13.312 2.01-22.212 0.191l-0.673-1.518h0.928l-1.417-3.2h0.601l-1.063-2.407h0.282l-1.771-4-1.771 4h0.284l-1.063 2.407h0.6l-1.416 3.2h0.927l-0.179 0.402c-0.961-0.187-1.948-0.455-2.955-0.798l-0.938-2.123h1.51l-2.309-5.216h0.979l-1.735-3.923h0.464l-2.889-6.52-2.885 6.52h0.463l-1.734 3.923h0.979l-1.174 2.652c-12.272-7.862-24.187-20.959-24.187-20.959l-8.616-11.305s-24.468-18.53-32.968-19.696-37.593 9.495-37.593 9.495l-23.9 13.895s-4.655 5.032-10 2.803c-3.111-1.297-7.781 9.011-11.427 10.807-1.829 0.901-16.7 9.491-18.638 10.437-6.479 3.163-11.683 5.423-16.326 7.263v-20.7c0.086-0.131 0.146-0.277 0.146-0.445 0-0.457-0.37-0.826-0.826-0.826-0.457 0-0.827 0.37-0.827 0.826 0 0.167 0.062 0.313 0.147 0.444v0.764c-1.249 0.02-5.646 0.133-5.003 0.775 0.729 0.732-4.974 0.987-5.193 0.997l1.137 2.247-1.135 2.432c0.25 0.06 6.801 1.643 5.727 0.568-0.94-0.939 3.25 0.046 4.47 0.347v13.101c-7.029 2.725-12.9 4.561-20.251 7.271-3.127 1.153-6.074 2.117-8.866 2.929l-1.235-2.791h0.905l-1.604-3.627h0.429l-2.669-6.03-2.669 6.03h0.429l-1.604 3.627h0.903l-2.136 4.825h1.167c-0.854 0.18-1.701 0.35-2.521 0.5l-0.298-0.67h0.699l-1.24-2.807h0.328l-2.062-4.666-2.066 4.666h0.332l-1.242 2.807h0.7l-0.668 1.508c-10.69 1.289-18.134 0.19-23.964 0.046l-0.466-1.054h0.492l-0.753-1.701h0.317l-0.564-1.279h0.148l-0.938-2.125-0.94 2.125h0.15l-0.566 1.279h0.32l-0.754 1.701h0.491l-0.389 0.875c-0.581-0.064-1.207-0.151-1.854-0.25l-0.46-1.041h0.724l-1.104-2.5h0.47l-0.833-1.88h0.222l-1.383-3.125-1.385 3.125h0.223l-0.832 1.88h0.469l-1.105 2.5h0.725l-0.104 0.238c-0.727-0.151-1.475-0.315-2.24-0.489l-0.938-2.123h0.604l-1.076-2.43h0.7l-1.787-4.04-1.788 4.04h0.287l-1.076 2.43h0.606l-0.381 0.858c-15.359-3.875-35.225-10.165-42.748-10.143-1.88 0.006-3.778 0.26-5.674 0.661l-1.097-2.476h0.671l-1.189-2.688h0.316l-1.979-4.469-1.979 4.469h0.318l-1.19 2.688h0.672l-1.582 3.575h1.033l-0.317 0.723c-0.618 0.217-1.23 0.442-1.841 0.671l-0.83-1.877h0.427l-0.758-1.71h0.202l-1.26-2.843-1.259 2.843h0.203l-0.758 1.71h0.427l-1.007 2.274h0.658l-0.619 1.398c-4.282 1.718-8.194 3.269-11.366 3.453-2.252 0.13-10.446 5.194-15.797 0.484-12.801-11.269-22.443-21.677-28.892-24.609-9.95-4.56-32.06 15.617-32.06 15.617s-5.223 10.685-12.842 9.885c-7.617-0.8-11.186 7.384-26 3.667-0.465-0.117-0.965-0.211-1.498-0.285l-0.086-0.195h0.51l-0.777-1.76h0.328l-0.586-1.323h0.156l-0.974-2.2-0.976 2.2h0.156l-0.586 1.323h0.33l-0.779 1.76h-0.056l-0.499-1.126h0.235l-0.417-0.943h0.109l-0.692-1.567-0.694 1.567h0.111l-0.417 0.943h0.233l-0.541 1.223c-3.309 0.223-7.146 0.822-11.271 1.681l-0.531-1.2h0.33l-0.586-1.323h0.156l-0.976-2.2-0.974 2.2h0.156l-0.586 1.323h0.33l-0.778 1.76h0.509l-0.042 0.095c-0.447 0.103-0.896 0.208-1.349 0.316l-0.92-2.081h0.426l-0.757-1.71h0.202l-1.26-2.843-1.259 2.843h0.202l-0.758 1.71h0.428l-1.008 2.274h0.658l-0.409 0.925c-18.73 4.936-39.54 13.099-43.18 15.281-4.024 2.416-15.05 4.992-21.493-2.027-3.34-3.639-8.673 0.869-12.84-2.639-10.72-9.025-42.118 15.275-51.182 6.762-9.16-8.6-18.99-7.433-21.66-11.1s-12 4.167-15.67 7.302c-3.67 3.135-77.67 6.611-77.67 6.611l-12.854 0.314s-28.289 12.18-37.306 5.438c-9.667-7.228-21.333-6.771-26-10.332-4.667-3.562-9.333-2.667-23.667 12-14.334 14.666-38.068 1.539-51.119-3.721-13.051-5.262-21.214-28.613-39.549-19.031s-41.319 3.617-48.506-3.671c-7.188-7.288-8.742 6.506-16.504 5.265-29.537-4.725-25.238 30.992-69.238 16.992-10.031-3.191-5.686 4.631-18.75-7.5-3.5-3.25-28.5 22.75-47.5 24.75-16.106 1.695-33.413-25.082-48.25-18.25-14.837 6.834-36.307-6.101-45 0-8.693 6.102-16.583 5.5-26.231 10.258-9.638 4.76-56.009 1.38-56.009 1.38v69.245l2500-2.372v-50.812l-22.3-0.54zm-1644.3-53.464c-0.165-0.002-0.332-0.003-0.5-0.003h0.5v0.003zm803.6 20.022l-0.001-0.002h0.002v0.002zm0.3-0.597l-0.349-0.787h0.718l-0.4 0.787z" fill="#4C5A5B"/>
<path d="m876.51 66.782s-0.357 2.911 4.768 1.919c4.78-0.926 4.991-4.146 7.477-3.066 2.363 1.028-0.948 4.124 0.5 4.521 3.625 0.992 5.15-1.848 8-2.315 5.385-0.881 3 5.622 5.875 3.748 2.641-1.721 3.417-12.088 5.75-8.267 4.939 8.09 8 10.252 9.625 4.515 1.724-6.082 7.893-2.116 9.27-0.953s-19.604-20.215-29.603-21.933c-9.54-1.637-21.68 21.831-21.68 21.831z" fill="#fff"/>
<path d="m1194.2 20.662s3.189 2.505 5.605 1.005c3.99-2.477 11.25-1.333 4.5 5.167s4.539 5.333 6.25 3.833c1.712-1.5 3.834-3.333 6.334 0.417s-8.895 12.111-1.475 11.133c6.625-0.873 14.504-8.248 17.891-11.723 3.568-3.661 0.984 13.298 5.984 13.298 3.333 0 4.284-6.127 7.75-10.458 2.667-3.333 4.443 7.833 7.334 0.833 0.832-2.016-0.004-3.215 5.682-2 0.389 0.083 6.734 1.678 5.062-0.833-3.592-5.385-25.451-35.667-38.076-30.417-11 4.332-32.8 18.984-32.8 19.745z" fill="#fff"/>
<path d="m1565.3 48.338c-1.657-1.668-4.31-7.377-5.835-9.814-1.525-2.438-3.182-6.595-7.467-7.31s-10.326 2.869-14.66 5.827-4.809 3.245-9.695 3.581c-4.889 0.336-4.766 2.208-5.039 2.403 0 0 0.026 2.807 3.026 2.307s7.499 3 5.333 5.167-1.859 4.833 0.57 3.333c2.429-1.5 5.381-1.759 6.18-2.625 1.5-1.625 4.291-0.208 1.625 4.083-2.239 3.604 3.666 5.167 6 1s4.863-8.667 6.696-6 0.7 5.429 3.407 4.951c2.834-0.5 2.558-3.04 3.654-4.336 2.438-2.875 2.018 0.175 4.615-0.99 1.209-0.542-0.953 6.99 1.791 5.833 1.584-0.667 4.399-1.428 5.605-1.399 2.625 0.062 3.16 1.786 3.854 1.19 2.688-2.312 5.318 0.567 6.438-0.562 0.988-0.999-9.625-7.062-11.688-7.188-2-0.126-3 1.94-4.4 0.549z" fill="#fff"/>
<path d="m1369.7 55.417c-0.33 0.256-1.354 2.896 0.229 2.562 1.584-0.334 4.134-1.828 5.967-1.25 1.832 0.578 2.307 1.612 3.473 1.279s-0.25-2.008 1-1.842 2.007 1.346 2.938 1c0.932-0.346-0.65-1.951-0.65-1.951s-1.544-2.435-5.119-2.361-7.5 2.306-7.8 2.563z" fill="#fff"/>
<path d="m1073.1 57.114c0.346 0.23 1.561 2.789-0.042 2.573-1.603-0.217-4.255-1.522-6.04-0.812-1.786 0.71-2.182 1.776-3.37 1.53-1.188-0.247 0.104-2.021-1.132-1.764-1.235 0.257-1.902 1.489-2.855 1.212s0.508-1.994 0.508-1.994 1.361-2.541 4.934-2.729 7.7 1.753 8 1.984z" fill="#fff"/>
<path d="m1290 35.708c-0.584 0.195-1.697 3.336 1.012 3.293 0.99-0.016 2.252-0.37 3.604-0.77 0.443-0.132 2.188-1.109 1.98 1.265-0.205 2.33 0.833 2.038 1.625 1.371 1.165-0.982 2.777-2.38 4-2.576 2.548-0.407 1.25 1.205 3.125 1.375 2 0.181 1.697-3.101 3.791-2.708s3.215 2.287 4.824 2.112c1.607-0.175-0.893-2.059-0.893-2.059s-2.346-2.976-8.393-3.553c-6-0.577-14 2.056-14.6 2.25z" fill="#fff"/>
<path d="m767.52 134.22c24.276-5.75 210.92-55.814 361-17.401 145.59 37.263 292.56 7.317 348-4.452 97.952-20.799 241.53 17.842 253.39 25.073 5.254 3.203 84.42-6.312 223.24-3.364 56.854 1.207 123.72 26.646 199.6 21.186 261.2-18.8 347.3 14.63 347.3 14.63v17.146h-2500v-11.276s140.15-49.354 323.14-31.059c117.54 11.75 216.84-23.063 309.36-10.85 55.5 7.32 127.66 2.1 135.02 0.36z" fill="#B5C049"/>
<polygon points="945.62 117.02 943.19 111.53 944.22 111.53 942.39 107.41 942.88 107.41 939.84 100.54 936.8 107.41 937.29 107.41 935.46 111.53 936.49 111.53 934.06 117.02 935.65 117.02 934.06 120.62 945.62 120.62 944.03 117.02" fill="#8B9833"/>
<polygon points="966.08 112.7 962.26 104.07 963.88 104.07 961 97.578 961.77 97.578 956.99 86.791 952.22 97.578 952.98 97.578 950.11 104.07 951.73 104.07 947.91 112.7 950.41 112.7 947.91 118.34 966.08 118.34 963.58 112.7" fill="#8B9833"/>
<rect y="119.48" x="938.46" height="3.178" width="2.242" fill="#506163"/>
<rect y="116.76" x="955.87" height="3.178" width="2.242" fill="#506163"/>
	<polygon points="807.9 124.38 805.46 118.89 806.49 118.89 804.67 114.76 805.15 114.76 802.12 107.9 799.08 114.76 799.57 114.76 797.74 118.89 798.77 118.89 796.34 124.38 797.93 124.38 796.34 127.97 807.9 127.97 806.31 124.38" fill="#8B9833"/>
	<polygon points="831.62 125.68 827.3 115.92 829.13 115.92 825.88 108.58 826.75 108.58 821.35 96.383 815.95 108.58 816.82 108.58 813.57 115.92 815.4 115.92 811.08 125.68 813.9 125.68 811.08 132.06 831.62 132.06 828.8 125.68" fill="#8B9833"/>
	<rect y="126.84" x="800.73" height="3.178" width="2.241" fill="#506163"/>
	<polygon points="845.04 118.63 843.14 114.34 843.94 114.34 842.51 111.12 842.9 111.12 840.52 105.75 838.15 111.12 838.53 111.12 837.1 114.34 837.91 114.34 836.01 118.63 837.25 118.63 836.01 121.44 845.04 121.44 843.8 118.63" fill="#8B9833"/>
	<rect y="120.55" x="839.44" height="2.482" width="1.753" fill="#506163"/>
	<rect y="130.26" x="820.08" height="3.593" width="2.535" fill="#506163"/>
	<polygon points="898.49 134.8 894.17 125.04 896 125.04 892.75 117.7 893.62 117.7 888.22 105.51 882.82 117.7 883.69 117.7 880.44 125.04 882.27 125.04 877.95 134.8 880.77 134.8 877.95 141.18 898.49 141.18 895.66 134.8" fill="#8B9833"/>
	<polygon points="908.65 124.49 906.75 120.2 907.55 120.2 906.12 116.98 906.5 116.98 904.13 111.62 901.76 116.98 902.14 116.98 900.71 120.2 901.51 120.2 899.62 124.49 900.86 124.49 899.62 127.3 908.65 127.3 907.4 124.49" fill="#8B9833"/>
	<rect y="126.41" x="903.05" height="2.482" width="1.753" fill="#506163"/>
	<rect y="139.39" x="886.95" height="3.593" width="2.535" fill="#506163"/>
	<polygon points="725.16 149.48 720.84 139.72 722.67 139.72 719.42 132.38 720.28 132.38 714.89 120.19 709.48 132.38 710.35 132.38 707.1 139.72 708.94 139.72 704.61 149.48 707.44 149.48 704.61 155.87 725.16 155.87 722.33 149.48" fill="#8B9833"/>
	<polygon points="735.31 139.17 733.41 134.88 734.22 134.88 732.79 131.66 733.17 131.66 730.8 126.3 728.42 131.66 728.81 131.66 727.38 134.88 728.18 134.88 726.28 139.17 727.52 139.17 726.28 141.98 735.31 141.98 734.07 139.17" fill="#8B9833"/>
	<rect y="141.09" x="729.71" height="2.482" width="1.753" fill="#506163"/>
	<rect y="154.07" x="713.62" height="3.593" width="2.535" fill="#506163"/>
	<polygon points="1060 110.56 1056.2 101.93 1057.8 101.93 1054.9 95.441 1055.7 95.441 1050.9 84.654 1046.1 95.441 1046.9 95.441 1044 101.93 1045.7 101.93 1041.8 110.56 1044.3 110.56 1041.8 116.21 1060 116.21 1057.5 110.56" fill="#8B9833"/>
	<polygon points="1078.2 108.05 1075.8 102.56 1076.8 102.56 1075 98.431 1075.4 98.431 1072.4 91.567 1069.4 98.431 1069.9 98.431 1068 102.56 1069.1 102.56 1066.6 108.05 1068.2 108.05 1066.6 111.64 1078.2 111.64 1076.6 108.05" fill="#8B9833"/>
	<rect y="110.5" x="1071" height="3.177" width="2.242" fill="#506163"/>
	<polygon points="1020.6 107.04 1019 103.28 1019.7 103.28 1018.4 100.45 1018.7 100.45 1016.7 95.75 1014.6 100.45 1014.9 100.45 1013.7 103.28 1014.4 103.28 1012.7 107.04 1013.8 107.04 1012.7 109.5 1020.6 109.5 1019.5 107.04" fill="#8B9833"/>
	<rect y="108.72" x="1015.7" height="2.176" width="1.536" fill="#506163"/>
	<rect y="114.62" x="1049.8" height="3.178" width="2.242" fill="#506163"/>
	<polygon points="1514.7 117.06 1512.3 111.58 1513.3 111.58 1511.5 107.45 1512 107.45 1509 100.58 1505.9 107.45 1506.4 107.45 1504.6 111.58 1505.6 111.58 1503.2 117.06 1504.8 117.06 1503.2 120.66 1514.7 120.66 1513.2 117.06" fill="#8B9833"/>
	<polygon points="1542.1 137.89 1537.8 128.14 1539.6 128.14 1536.4 120.81 1537.2 120.81 1531.8 108.63 1526.4 120.81 1527.3 120.81 1524.1 128.14 1525.9 128.14 1521.6 137.89 1524.4 137.89 1521.6 144.26 1542.1 144.26 1539.3 137.89" fill="#8B9833"/>
	<rect y="119.52" x="1507.6" height="3.178" width="2.243" fill="#506163"/>
	<rect y="142.47" x="1530.6" height="3.589" width="2.532" fill="#506163"/>
	<polygon points="1488.6 130.67 1484.8 122.04 1486.4 122.04 1483.5 115.55 1484.3 115.55 1479.5 104.76 1474.7 115.55 1475.5 115.55 1472.6 122.04 1474.2 122.04 1470.4 130.67 1472.9 130.67 1470.4 136.32 1488.6 136.32 1486.1 130.67" fill="#8B9833"/>
	<rect y="134.73" x="1478.4" height="3.178" width="2.242" fill="#506163"/>
	<polygon points="1564.9 117.74 1562.5 112.25 1563.5 112.25 1561.7 108.12 1562.1 108.12 1559.1 101.26 1556.1 108.12 1556.6 108.12 1554.7 112.25 1555.8 112.25 1553.3 117.74 1554.9 117.74 1553.3 121.33 1564.9 121.33 1563.3 117.74" fill="#8B9833"/>
	<polygon points="1585.3 113.42 1581.5 104.79 1583.1 104.79 1580.3 98.298 1581 98.298 1576.3 87.511 1571.5 98.298 1572.3 98.298 1569.4 104.79 1571 104.79 1567.2 113.42 1569.7 113.42 1567.2 119.06 1585.3 119.06 1582.8 113.42" fill="#8B9833"/>
	<rect y="120.2" x="1557.7" height="3.176" width="2.243" fill="#506163"/>
	<rect y="117.48" x="1575.1" height="3.178" width="2.243" fill="#506163"/>
	<polygon points="1799.6 142.88 1797.2 137.39 1798.2 137.39 1796.4 133.26 1796.8 133.26 1793.8 126.4 1790.8 133.26 1791.3 133.26 1789.4 137.39 1790.5 137.39 1788 142.88 1789.6 142.88 1788 146.47 1799.6 146.47 1798 142.88" fill="#8B9833"/>
	<polygon points="1820 138.56 1816.2 129.93 1817.8 129.93 1815 123.44 1815.7 123.44 1811 112.65 1806.2 123.44 1806.9 123.44 1804.1 129.93 1805.7 129.93 1801.9 138.56 1804.4 138.56 1801.9 144.2 1820 144.2 1817.5 138.56" fill="#8B9833"/>
	<rect y="145.34" x="1792.4" height="3.176" width="2.243" fill="#506163"/>
	<rect y="142.62" x="1809.8" height="3.178" width="2.243" fill="#506163"/>
	<polygon points="1691.9 132.92 1694 128.12 1693.1 128.12 1694.7 124.51 1694.3 124.51 1696.9 118.51 1699.6 124.51 1699.2 124.51 1700.8 128.12 1699.9 128.12 1702 132.92 1700.6 132.92 1702 136.06 1691.9 136.06 1693.3 132.92" fill="#8B9833"/>
	<polygon points="1674 129.14 1677.3 121.6 1675.9 121.6 1678.4 115.92 1677.8 115.92 1681.9 106.49 1686.1 115.92 1685.4 115.92 1688 121.6 1686.5 121.6 1689.9 129.14 1687.7 129.14 1689.9 134.08 1674 134.08 1676.2 129.14" fill="#8B9833"/>
	<rect y="135.07" x="1696.2" height="2.778" width="1.961" fill="#506163"/>
	<polygon points="1727.8 142.94 1730.5 136.82 1729.4 136.82 1731.4 132.21 1730.9 132.21 1734.2 124.56 1737.6 132.21 1737.1 132.21 1739.1 136.82 1738 136.82 1740.7 142.94 1738.9 142.94 1740.7 146.95 1727.8 146.95 1729.6 142.94" fill="#8B9833"/>
	<rect y="145.68" x="1733.3" height="3.545" width="2.502" fill="#506163"/>
	<rect y="132.69" x="1681" height="2.777" width="1.961" fill="#506163"/>
	<polygon points="1634.2 122.25 1636.9 116.12 1635.8 116.12 1637.8 111.5 1637.3 111.5 1640.7 103.84 1644.1 111.5 1643.5 111.5 1645.6 116.12 1644.4 116.12 1647.1 122.25 1645.4 122.25 1647.1 126.26 1634.2 126.26 1636 122.25" fill="#8B9833"/>
	<polygon points="1608.5 135.28 1612.8 125.64 1611 125.64 1614.2 118.39 1613.3 118.39 1618.6 106.34 1624 118.39 1623.1 118.39 1626.3 125.64 1624.5 125.64 1628.8 135.28 1626 135.28 1628.8 141.58 1608.5 141.58 1611.3 135.28" fill="#8B9833"/>
	<rect y="124.99" x="1639.7" height="3.549" width="2.506" fill="#506163"/>
	<rect y="139.81" x="1617.4" height="3.549" width="2.505" fill="#506163"/>
<path d="m850.2 45.315c-0.644 0-1.266 0.067-1.865 0.184-0.79-6.519-7.049-11.597-14.654-11.597-2.061 0-4.021 0.375-5.803 1.048-2.711-1.949-6.171-3.121-9.942-3.121-6.591 0-12.228 3.571-14.572 8.635-0.29-0.021-0.581-0.04-0.878-0.04-4.41 0-8.199 2.32-9.902 5.647-0.316-0.035-0.639-0.062-0.966-0.062-4.251 0-12.114 4.923-12.114 8.67s7.863 4.899 12.114 4.899c1.872 0 4.386 1.008 5.72 0.03 1.709 0.988 2.951-0.03 5.148-0.03 2.641 0 5.061-0.832 6.941-2.212 2.455 1.394 5.371 2.212 8.509 2.212 2.812 0 5.44-0.657 7.727-1.792 2.31 1.324 5.06 2.1 8.021 2.1 3.53 0 6.771-1.097 9.309-2.92 1.525 2.087 4.184 3.473 7.213 3.473 4.738 0 13.801-1.583 13.801-5.759-0.02-4.174-9.08-9.365-13.82-9.365z" fill="#C6F1FF"/>
<path d="m1615.9 61.377c0.424 0 0.834 0.042 1.229 0.116 0.521-4.088 4.653-7.272 9.674-7.272 1.36 0 2.653 0.235 3.829 0.657 1.791-1.222 6.236-3.972 8.729-3.972 4.35 0 5.906 4.254 7.457 7.429 0.189-0.013 0.384-0.024 0.578-0.024 2.91 0 5.412 1.455 6.536 3.541 0.21-0.022 0.421-0.037 0.64-0.037 2.807 0 11.932 2.312 11.932 4.662s-9.125 3.847-11.932 3.847c-1.236 0-2.367-0.37-3.248-0.983-1.131 0.62-2.478 0.983-3.928 0.983-1.744 0-3.34-0.521-4.584-1.387-1.619 0.874-3.545 1.387-5.613 1.387-1.854 0-3.594-0.412-5.102-1.124-1.523 0.83-3.34 1.317-5.294 1.317-2.331 0-4.468-0.688-6.144-1.831-1.01 1.309-2.764 2.178-4.762 2.178-3.129 0-5.663-2.124-5.663-4.743 0-2.62 2.6-4.744 5.7-4.744z" fill="#C6F1FF"/>
	<polygon points="1255.5 138.59 1251.6 129.96 1253.3 129.96 1250.4 123.47 1251.2 123.47 1246.4 112.68 1241.6 123.47 1242.4 123.47 1239.5 129.96 1241.1 129.96 1237.3 138.59 1239.8 138.59 1237.3 144.23 1255.5 144.23 1253 138.59" fill="#8B9833"/>
	<polygon points="1273.6 136.08 1271.2 130.58 1272.2 130.58 1270.4 126.46 1270.9 126.46 1267.9 119.6 1264.8 126.46 1265.3 126.46 1263.5 130.58 1264.5 130.58 1262.1 136.08 1263.7 136.08 1262.1 139.67 1273.6 139.67 1272.1 136.08" fill="#8B9833"/>
	<rect y="138.53" x="1266.5" height="3.178" width="2.241" fill="#506163"/>
	<polygon points="1216.1 135.07 1214.4 131.31 1215.1 131.31 1213.9 128.48 1214.2 128.48 1212.1 123.78 1210 128.48 1210.4 128.48 1209.1 131.31 1209.8 131.31 1208.2 135.07 1209.3 135.07 1208.2 137.53 1216.1 137.53 1215 135.07" fill="#8B9833"/>
	<rect y="136.75" x="1211.2" height="2.178" width="1.536" fill="#506163"/>
	<rect y="142.65" x="1245.3" height="3.178" width="2.242" fill="#506163"/>
	<polygon points="1129.9 124.33 1127.5 118.84 1128.5 118.84 1126.7 114.71 1127.2 114.71 1124.2 107.84 1121.1 114.71 1121.6 114.71 1119.8 118.84 1120.8 118.84 1118.4 124.33 1120 124.33 1118.4 127.92 1129.9 127.92 1128.3 124.33" fill="#8B9833"/>
	<polygon points="1157.3 145.15 1153 135.4 1154.8 135.4 1151.6 128.07 1152.4 128.07 1147 115.89 1141.6 128.07 1142.5 128.07 1139.3 135.4 1141.1 135.4 1136.8 145.15 1139.6 145.15 1136.8 151.53 1157.3 151.53 1154.5 145.15" fill="#8B9833"/>
	<rect y="126.78" x="1122.8" height="3.178" width="2.243" fill="#506163"/>
	<rect y="149.73" x="1145.8" height="3.59" width="2.533" fill="#506163"/>
	<polygon points="1425.6 124.95 1423.2 119.46 1424.2 119.46 1422.4 115.33 1422.9 115.33 1419.8 108.47 1416.8 115.33 1417.3 115.33 1415.5 119.46 1416.5 119.46 1414.1 124.95 1415.7 124.95 1414.1 128.54 1425.6 128.54 1424 124.95" fill="#8B9833"/>
	<polygon points="1447.2 129.66 1443.4 121.03 1445 121.03 1442.2 114.54 1442.9 114.54 1438.2 103.75 1433.4 114.54 1434.1 114.54 1431.3 121.03 1432.9 121.03 1429.1 129.66 1431.6 129.66 1429.1 135.3 1447.2 135.3 1444.7 129.66" fill="#8B9833"/>
	<rect y="127.41" x="1418.5" height="3.176" width="2.242" fill="#506163"/>
	<rect y="133.71" x="1437" height="3.179" width="2.242" fill="#506163"/>
	<polygon points="1346.5 153.22 1348.6 148.42 1347.7 148.42 1349.3 144.82 1348.9 144.82 1351.5 138.82 1354.2 144.82 1353.8 144.82 1355.4 148.42 1354.5 148.42 1356.6 153.22 1355.2 153.22 1356.6 156.36 1346.5 156.36 1347.9 153.22" fill="#8B9833"/>
	<polygon points="1328.6 149.44 1331.9 141.9 1330.5 141.9 1333 136.22 1332.4 136.22 1336.6 126.79 1340.7 136.22 1340.1 136.22 1342.6 141.9 1341.2 141.9 1344.5 149.44 1342.3 149.44 1344.5 154.38 1328.6 154.38 1330.8 149.44" fill="#8B9833"/>
	<rect y="155.37" x="1350.8" height="2.778" width="1.961" fill="#506163"/>
	<rect y="152.99" x="1335.6" height="2.776" width="1.961" fill="#506163"/>
</svg>
