<?xml version="1.0" encoding="UTF-8" standalone="no"?>
<!-- Generator: Adobe Illustrator 16.0.4, SVG Export Plug-In . SVG Version: 6.00 Build 0)  -->
<!DOCTYPE svg  PUBLIC '-//W3C//DTD SVG 1.1//EN'  'http://www.w3.org/Graphics/SVG/1.1/DTD/svg11.dtd'>
<svg id="Layer_1" xmlns="http://www.w3.org/2000/svg" xml:space="preserve" height="210px" viewBox="0 0 2500 210" width="2500px" version="1.1" y="0px" x="0px" xmlns:xlink="http://www.w3.org/1999/xlink" enable-background="new 0 0 2500 210">
<rect width="2500" height="174.92" fill="#B5C049"/>
<polygon points="2500 210 0 210 0 159.1 892.97 158.86 1259.1 163.35 1535 160.46 2500 159.1" fill="#ABE0FA"/>
<g fill="#8B9833">
	<path d="m1327.8 116.01c0.074 0.063 0.148 0.112 0.223 0.135l-0.2-0.13z"/>
	<path d="m1323.5 107.51s-0.598 0.065-1.256 1.262c-0.879-4.274-1.451-5.473-1.451-5.473s0.146 1.5-0.24 5.233c-3.119-10.893-3.312-8.799-3.312-8.799s2.787 8.224 1.295 13.629l-0.008 0.088c-0.098 0.923-0.219 1.521-0.369 1.663 0 0 1.371 0.21 3.445 0 2.07-0.211 3.107-0.716 3.107-0.716-4-2.35-1.1-6.88-1.1-6.88z"/>
	<path d="m1322.9 114.54l-0.152 0.049c0.1 0 0.2-0.02 0.2-0.05z"/>
	<path d="m1321 113.75l-0.066 0.036c0-0.01 0.1-0.02 0.1-0.04z"/>
</g>
<g fill="#8B9833">
	<path d="m1401.5 110.52c0.078 0.067 0.158 0.119 0.236 0.144l-0.2-0.14z"/>
	<path d="m1396.9 101.47s-0.637 0.069-1.338 1.344c-0.938-4.554-1.547-5.831-1.547-5.831s0.156 1.599-0.257 5.575c-3.323-11.605-3.529-9.373-3.529-9.373s2.972 8.761 1.38 14.521l-0.008 0.094c-0.104 0.982-0.234 1.62-0.395 1.771 0 0 1.463 0.225 3.671 0s3.312-0.763 3.312-0.763c-4.5-2.51-1.4-7.33-1.4-7.33z"/>
	<path d="m1396.3 108.96l-0.164 0.053c0.1 0 0.1-0.02 0.2-0.05z"/>
	<path d="m1394.2 108.11l-0.07 0.039c0.1 0 0.1-0.01 0.1-0.04z"/>
</g>
<path d="m1387 97.862c-1.501-5.292-7.197-25.387-7.197-25.387h-48.27s3.295 22.934-5.107 32.624c-8.401 9.689-21.953 10.989-20.08 11.65 2.939 1.037 1.623 2.36 14.031 0.189 14.595-2.554 17.969 0.188 20.594 5.483 10.828-4.013 12.746-6.906 17.242-6.097 2.568 0.462 5.955 1.559 8.477 4.735 1.459 0.285 3.566-9.133 4.732-8.75 9.154 3 10 8.564 14.036 10.111 2.324 0.892 1.542-14.144 1.542-14.144s9.97 4.74 14.144 5.494c4.4 0.76-12.4-10.62-13.9-15.908z" fill="#592F1A"/>
<g fill="#8B9833">
	<path d="m814.09 89.471c0.079 0.067 0.158 0.119 0.237 0.144l-0.24-0.144z"/>
	<path d="m809.48 80.416s-0.637 0.069-1.338 1.344c-0.938-4.554-1.547-5.831-1.547-5.831s0.157 1.599-0.256 5.575c-3.324-11.605-3.529-9.373-3.529-9.373s2.971 8.761 1.38 14.521l-0.009 0.094c-0.104 0.982-0.233 1.62-0.394 1.771 0 0 1.462 0.225 3.671 0 2.207-0.225 3.311-0.763 3.311-0.763-4.38-2.519-1.28-7.338-1.28-7.338z"/>
	<path d="m808.84 87.906l-0.164 0.053c0.05-0.003 0.11-0.021 0.16-0.053z"/>
	<path d="m806.79 87.059l-0.071 0.039c0.02-0.001 0.05-0.016 0.07-0.039z"/>
</g>
<g fill="#8B9833">
	<path d="m717.3 118.35c0.079 0.067 0.158 0.119 0.237 0.144l-0.24-0.14z"/>
	<path d="m712.69 109.3s-0.637 0.069-1.338 1.344c-0.938-4.554-1.547-5.831-1.547-5.831s0.157 1.599-0.256 5.575c-3.324-11.605-3.529-9.373-3.529-9.373s2.971 8.761 1.38 14.521l-0.009 0.094c-0.104 0.982-0.233 1.62-0.394 1.771 0 0 1.462 0.225 3.671 0 2.207-0.225 3.311-0.763 3.311-0.763-4.39-2.51-1.28-7.33-1.28-7.33z"/>
	<path d="m712.05 116.79l-0.164 0.053c0.05 0 0.11-0.02 0.16-0.05z"/>
	<path d="m710 115.94l-0.071 0.039c0.02 0 0.05-0.02 0.07-0.04z"/>
</g>
<g fill="#8B9833">
	<path d="m925.59 138.65c0.028 0.063 0.061 0.119 0.102 0.156l-0.1-0.16z"/>
	<path d="m922.88 136.17l-0.114-0.016c0.03 0.01 0.06 0.02 0.11 0.02z"/>
	<path d="m921.88 135.05l-0.054 0.002c0.01 0.01 0.03 0.01 0.05 0z"/>
</g>
<g fill="#8B9833">
	<path d="m1135.3 113.72c0.079 0.067 0.158 0.119 0.237 0.144l-0.2-0.14z"/>
	<path d="m1130.7 104.66s-0.637 0.069-1.338 1.344c-0.938-4.554-1.547-5.831-1.547-5.831s0.157 1.599-0.256 5.575c-3.324-11.605-3.529-9.373-3.529-9.373s2.971 8.761 1.38 14.521l-0.009 0.094c-0.104 0.982-0.233 1.62-0.394 1.771 0 0 1.462 0.225 3.671 0 2.207-0.225 3.311-0.763 3.311-0.763-4.5-2.51-1.4-7.33-1.4-7.33z"/>
	<path d="m1130.1 112.15l-0.164 0.053c0.1 0 0.1-0.02 0.2-0.05z"/>
	<path d="m1128 111.31l-0.071 0.039c0.1-0.01 0.1-0.02 0.1-0.04z"/>
</g>
<g fill="#8B9833">
	<path d="m1033.8 125.15c-0.08 0.067-0.159 0.119-0.238 0.144l0.2-0.14z"/>
	<path d="m1038.4 116.1s0.636 0.069 1.337 1.344c0.938-4.554 1.547-5.831 1.547-5.831s-0.157 1.599 0.257 5.575c3.323-11.605 3.529-9.373 3.529-9.373s-2.971 8.761-1.381 14.521l0.01 0.094c0.104 0.982 0.232 1.62 0.393 1.771 0 0-1.462 0.225-3.67 0s-3.311-0.763-3.311-0.763c4.5-2.51 1.4-7.33 1.4-7.33z"/>
	<path d="m1039.1 123.59l0.164 0.053c-0.1 0-0.2-0.02-0.2-0.05z"/>
	<path d="m1041.1 122.74l0.072 0.039s-0.1-0.02-0.1-0.04z"/>
</g>
<g fill="#8B9833">
	<path d="m635.25 139.79c-0.08 0.067-0.159 0.119-0.238 0.144l0.24-0.14z"/>
	<path d="m639.86 130.73s0.636 0.069 1.337 1.344c0.938-4.554 1.547-5.831 1.547-5.831s-0.157 1.599 0.257 5.575c3.323-11.605 3.529-9.373 3.529-9.373s-2.971 8.761-1.381 14.521l0.01 0.094c0.104 0.982 0.232 1.62 0.393 1.771 0 0-1.462 0.225-3.67 0s-3.311-0.763-3.311-0.763c4.38-2.52 1.28-7.34 1.28-7.34z"/>
	<path d="m640.5 138.22l0.164 0.053c-0.06 0-0.11-0.02-0.16-0.05z"/>
	<path d="m642.55 137.38l0.072 0.039c-0.02-0.01-0.05-0.02-0.07-0.04z"/>
</g>
<g fill="#8B9833">
	<path d="m593.39 91.642c-0.08 0.067-0.159 0.119-0.238 0.144l0.24-0.144z"/>
	<path d="m598 82.587s0.636 0.069 1.337 1.344c0.938-4.554 1.547-5.831 1.547-5.831s-0.157 1.599 0.257 5.575c3.323-11.605 3.529-9.373 3.529-9.373s-2.971 8.761-1.381 14.521l0.01 0.094c0.104 0.982 0.232 1.62 0.393 1.771 0 0-1.462 0.225-3.67 0s-3.311-0.763-3.311-0.763c4.38-2.519 1.28-7.338 1.28-7.338z"/>
	<path d="m598.64 90.077l0.164 0.053c-0.05-0.003-0.11-0.022-0.16-0.053z"/>
	<path d="m600.69 89.229l0.072 0.039c-0.02 0-0.05-0.015-0.07-0.039z"/>
</g>
<g fill="#8B9833">
	<path d="m1011.9 81.826c0.079 0.067 0.158 0.119 0.237 0.144l-0.2-0.144z"/>
	<path d="m1007.3 72.771s-0.637 0.069-1.338 1.344c-0.938-4.554-1.547-5.831-1.547-5.831s0.157 1.599-0.256 5.575c-3.324-11.605-3.529-9.373-3.529-9.373s2.971 8.761 1.38 14.521l-0.009 0.094c-0.104 0.982-0.233 1.62-0.394 1.771 0 0 1.462 0.225 3.671 0 2.207-0.225 3.311-0.763 3.311-0.763-4.5-2.518-1.4-7.338-1.4-7.338z"/>
	<path d="m1006.6 80.262l-0.164 0.053c0.1-0.003 0.2-0.022 0.2-0.053z"/>
	<path d="m1004.6 79.414l-0.071 0.039c0-0.001 0.1-0.015 0.1-0.039z"/>
</g>
<g fill="#8B9833">
	<path d="m1082 61.88c0.057 0.049 0.114 0.086 0.171 0.104l-0.2-0.104z"/>
	<path d="m1078.7 55.341s-0.459 0.05-0.966 0.971c-0.677-3.289-1.116-4.211-1.116-4.211s0.112 1.154-0.186 4.026c-2.4-8.381-2.549-6.77-2.549-6.77s2.145 6.327 0.996 10.486l-0.006 0.067c-0.075 0.71-0.169 1.17-0.285 1.279 0 0 1.057 0.162 2.651 0s2.392-0.551 2.392-0.551c-3.3-1.817-1-5.297-1-5.297z"/>
	<path d="m1078.2 60.75l-0.119 0.038c0-0.002 0.1-0.016 0.1-0.038z"/>
	<path d="m1076.7 60.138l-0.051 0.028c0.1-0.001 0.1-0.012 0.1-0.028z"/>
</g>
<g fill="#8B9833">
	<path d="m1288.8 68.255c0.058 0.049 0.114 0.086 0.171 0.104l-0.2-0.104z"/>
	<path d="m1285.5 61.716s-0.46 0.05-0.967 0.971c-0.677-3.289-1.116-4.211-1.116-4.211s0.112 1.154-0.186 4.026c-2.399-8.381-2.549-6.77-2.549-6.77s2.146 6.327 0.997 10.486l-0.006 0.067c-0.076 0.71-0.17 1.17-0.285 1.279 0 0 1.057 0.162 2.65 0 1.595-0.162 2.392-0.551 2.392-0.551-3.2-1.817-0.9-5.297-0.9-5.297z"/>
	<path d="m1285 67.125l-0.118 0.038c0-0.002 0.1-0.016 0.1-0.038z"/>
	<path d="m1283.5 66.513l-0.051 0.028c0.1-0.001 0.1-0.012 0.1-0.028z"/>
</g>
<g fill="#8B9833">
	<path d="m1435.5 55.505c0.057 0.049 0.114 0.086 0.171 0.104l-0.2-0.104z"/>
	<path d="m1432.2 48.966s-0.459 0.05-0.966 0.971c-0.677-3.289-1.116-4.211-1.116-4.211s0.112 1.154-0.186 4.026c-2.4-8.381-2.549-6.77-2.549-6.77s2.145 6.327 0.996 10.486l-0.006 0.067c-0.075 0.71-0.169 1.17-0.285 1.279 0 0 1.057 0.162 2.651 0s2.392-0.551 2.392-0.551c-3.2-1.817-1-5.297-1-5.297z"/>
	<path d="m1431.7 54.375l-0.119 0.038c0.1-0.002 0.1-0.016 0.1-0.038z"/>
	<path d="m1430.3 53.763l-0.051 0.028c0-0.001 0-0.012 0.1-0.028z"/>
</g>
<g fill="#8B9833">
	<path d="m1479.2 107.86c0.074 0.063 0.148 0.112 0.223 0.135l-0.2-0.14z"/>
	<path d="m1474.8 99.361s-0.598 0.065-1.256 1.262c-0.88-4.274-1.451-5.473-1.451-5.473s0.146 1.5-0.24 5.233c-3.119-10.893-3.313-8.799-3.313-8.799s2.788 8.224 1.296 13.629l-0.008 0.088c-0.098 0.923-0.22 1.521-0.37 1.663 0 0 1.372 0.21 3.445 0 2.071-0.211 3.107-0.716 3.107-0.716-4-2.35-1.1-6.879-1.1-6.879z"/>
	<path d="m1474.2 106.39l-0.153 0.049c0.1 0 0.2-0.02 0.2-0.05z"/>
	<path d="m1472.3 105.6l-0.066 0.036c0.1-0.01 0.1-0.02 0.1-0.04z"/>
</g>
<g fill="#8B9833">
	<path d="m1553.7 92.499c0.074 0.063 0.148 0.112 0.223 0.135l-0.2-0.135z"/>
	<path d="m1549.4 84s-0.598 0.065-1.256 1.262c-0.881-4.274-1.451-5.473-1.451-5.473s0.146 1.5-0.241 5.233c-3.119-10.893-3.313-8.799-3.313-8.799s2.789 8.224 1.296 13.629l-0.008 0.088c-0.098 0.923-0.22 1.521-0.37 1.663 0 0 1.373 0.21 3.445 0 2.072-0.211 3.107-0.716 3.107-0.716-4.1-2.363-1.1-6.887-1.1-6.887z"/>
	<path d="m1548.8 91.031l-0.154 0.049c0.1-0.002 0.1-0.02 0.2-0.049z"/>
	<path d="m1546.8 90.235l-0.066 0.036c0.1 0 0.1-0.014 0.1-0.036z"/>
</g>
<g fill="#8B9833">
	<path d="m1828.3 56.453c0.074 0.063 0.148 0.112 0.223 0.135l-0.2-0.135z"/>
	<path d="m1824 47.954s-0.598 0.065-1.256 1.262c-0.881-4.274-1.451-5.473-1.451-5.473s0.146 1.5-0.241 5.233c-3.119-10.893-3.313-8.799-3.313-8.799s2.789 8.224 1.296 13.629l-0.008 0.088c-0.098 0.923-0.22 1.521-0.37 1.663 0 0 1.373 0.21 3.445 0 2.072-0.211 3.107-0.716 3.107-0.716-4.1-2.363-1.1-6.887-1.1-6.887z"/>
	<path d="m1823.4 54.985l-0.154 0.049c0.1-0.002 0.1-0.021 0.2-0.049z"/>
	<path d="m1821.4 54.189l-0.066 0.036c0.1-0.001 0.1-0.015 0.1-0.036z"/>
</g>
<g fill="#8B9833">
	<path d="m1870.3 105.48c0.074 0.063 0.148 0.112 0.223 0.135l-0.2-0.14z"/>
	<path d="m1865.9 96.98s-0.598 0.065-1.256 1.262c-0.881-4.274-1.451-5.473-1.451-5.473s0.146 1.5-0.241 5.233c-3.119-10.893-3.313-8.799-3.313-8.799s2.789 8.224 1.296 13.629l-0.008 0.088c-0.098 0.923-0.22 1.521-0.37 1.663 0 0 1.373 0.21 3.445 0 2.072-0.211 3.107-0.716 3.107-0.716-4-2.36-1.1-6.88-1.1-6.88z"/>
	<path d="m1865.4 104.01l-0.154 0.049s0.1-0.02 0.2-0.05z"/>
	<path d="m1863.4 103.22l-0.066 0.036c0.1-0.01 0.1-0.02 0.1-0.04z"/>
</g>
<g fill="#8B9833">
	<path d="m1693.9 89.348c0.074 0.063 0.148 0.112 0.223 0.135l-0.2-0.135z"/>
	<path d="m1689.5 80.849s-0.598 0.065-1.256 1.262c-0.88-4.274-1.451-5.473-1.451-5.473s0.146 1.5-0.24 5.233c-3.119-10.893-3.313-8.799-3.313-8.799s2.788 8.224 1.296 13.629l-0.008 0.088c-0.098 0.923-0.22 1.521-0.37 1.663 0 0 1.372 0.21 3.445 0 2.071-0.211 3.107-0.716 3.107-0.716-4-2.363-1.1-6.887-1.1-6.887z"/>
	<path d="m1688.9 87.88l-0.153 0.049c0.1-0.002 0.2-0.021 0.2-0.049z"/>
	<path d="m1687 87.084l-0.066 0.036c0.1-0.001 0.1-0.015 0.1-0.036z"/>
</g>
<g fill="#8B9833">
	<path d="m1651.7 76.509c0.074 0.063 0.148 0.112 0.223 0.135l-0.2-0.135z"/>
	<path d="m1647.3 68.01s-0.598 0.065-1.256 1.262c-0.881-4.274-1.451-5.473-1.451-5.473s0.146 1.5-0.242 5.233c-3.119-10.893-3.312-8.799-3.312-8.799s2.789 8.224 1.295 13.629l-0.008 0.088c-0.098 0.923-0.219 1.521-0.369 1.663 0 0 1.373 0.21 3.445 0 2.072-0.211 3.107-0.716 3.107-0.716-4-2.363-1.1-6.887-1.1-6.887z"/>
	<path d="m1646.7 75.041l-0.154 0.049c0.1-0.002 0.2-0.021 0.2-0.049z"/>
	<path d="m1644.8 74.245l-0.066 0.036c0.1-0.001 0.1-0.014 0.1-0.036z"/>
</g>
<g fill="#8B9833">
	<path d="m1711.3 121.91c0.074 0.063 0.148 0.112 0.223 0.135l-0.2-0.13z"/>
	<path d="m1706.9 113.41s-0.598 0.065-1.256 1.262c-0.881-4.274-1.451-5.473-1.451-5.473s0.146 1.5-0.24 5.233c-3.119-10.893-3.314-8.799-3.314-8.799s2.789 8.224 1.297 13.629l-0.008 0.088c-0.098 0.923-0.221 1.521-0.371 1.663 0 0 1.373 0.21 3.445 0 2.072-0.211 3.107-0.716 3.107-0.716-4-2.35-1.1-6.88-1.1-6.88z"/>
	<path d="m1706.3 120.44l-0.154 0.049c0.1 0 0.2-0.02 0.2-0.05z"/>
	<path d="m1704.4 119.65l-0.066 0.036c0.1-0.01 0.1-0.02 0.1-0.04z"/>
</g>
<g fill="#8B9833">
	<path d="m1203.3 98.979c-0.086 0.057-0.172 0.1-0.253 0.114l0.3-0.114z"/>
	<path d="m1208.9 90.521s0.624 0.142 1.173 1.49c1.46-4.415 2.214-5.613 2.214-5.613s-0.342 1.57-0.393 5.568c4.648-11.142 4.594-8.899 4.594-8.899s-3.969 8.355-3.058 14.262l-0.002 0.094c-0.011 0.988 0.044 1.636 0.185 1.806 0 0-1.479 0.053-3.645-0.427-2.168-0.479-3.201-1.143-3.201-1.143 4.7-1.991 2.1-7.138 2.1-7.138z"/>
	<path d="m1208.7 98.033l0.157 0.071c-0.1-0.007-0.2-0.033-0.2-0.071z"/>
	<path d="m1210.8 97.431l0.065 0.046c0-0.004 0-0.021-0.1-0.046z"/>
</g>
<g fill="#8B9833">
	<path d="m1363.2 119.35c0.08 0.067 0.159 0.119 0.238 0.144l-0.2-0.14z"/>
	<path d="m1358.6 110.3s-0.636 0.069-1.337 1.344c-0.938-4.554-1.547-5.831-1.547-5.831s0.157 1.599-0.257 5.575c-3.323-11.605-3.529-9.373-3.529-9.373s2.971 8.761 1.381 14.521l-0.01 0.094c-0.104 0.982-0.232 1.62-0.393 1.771 0 0 1.462 0.225 3.67 0s3.311-0.763 3.311-0.763c-4.5-2.51-1.4-7.33-1.4-7.33z"/>
	<path d="m1358 117.79l-0.164 0.053s0.1-0.02 0.2-0.05z"/>
	<path d="m1355.9 116.94l-0.072 0.039c0.1 0 0.1-0.02 0.1-0.04z"/>
</g>
<g fill="#8B9833">
	<path d="m900.75 120.39c0.133 0.092 0.26 0.154 0.375 0.176l-0.37-0.18z"/>
	<path d="m893.07 119.21l-0.203 0.134c0.07-0.02 0.14-0.07 0.2-0.13z"/>
	<path d="m889.98 118.35l-0.082 0.085c0.03-0.02 0.06-0.04 0.08-0.09z"/>
</g>
	<ellipse cy="72.476" cx="1355.6" rx="24.135" ry="5.623" fill="#966B26"/>
	<ellipse cy="72.476" cx="1355.6" rx="19.264" ry="4.488" fill="#592F1A"/>
	<ellipse cy="72.476" cx="1355.6" rx="14.393" ry="3.354" fill="#966B26"/>
	<ellipse cy="72.476" cx="1355.1" rx="9.522" ry="2.219" fill="#592F1A"/>
	<ellipse cy="72.476" cx="1354.9" rx="5.756" ry="1.341" fill="#966B26"/>
	<ellipse cy="72.476" cx="1354.9" rx="2.781" ry=".648" fill="#592F1A"/>
<g fill="#8B9833">
	<path d="m1123.6 164.19c0.099 0.087 0.202 0.159 0.312 0.211l-0.3-0.21z"/>
	<path d="m1124.1 155.02s-1.112-1.124-2.331 0.568c-0.161-4.064-0.716-5.34-0.716-5.34s-0.197 1.358-1.873 4.427c-1.784-10.725-2.686-8.993-2.686-8.993s0.699 7.606-1.859 12.331c-0.115-0.037-0.23-0.08-0.348-0.136l0.31 0.208c-0.417 0.758-0.778 1.224-1.054 1.285l2.824-0.093 1.365 0.921c-0.516 0.397-0.992 0.645-1.392 0.663l2.702 0.218 3.35 0.272 1.639 0.132c-3.4-0.8 0.1-6.47 0.1-6.47z"/>
	<path d="m1116.3 160.86l-0.256-0.021c0.1 0.02 0.2 0.02 0.3 0.02z"/>
	<path d="m1113.5 159.37l-0.117 0.003c0 0.01 0.1 0.01 0.1 0z"/>
</g>
<g fill="#8B9833">
	<path d="m974.08 158.2c0.352 0.135 0.697 0.213 1.038 0.213l-1.04-0.21z"/>
	<path d="m950.9 153.77l-0.318 0.079c0.1 0 0.21-0.03 0.32-0.08z"/>
</g>
	<path d="m893.04 151.6c0.064-0.005 0.126-0.041 0.186-0.092l-0.19 0.09z" fill="#8B9833"/>
<g fill="#8B9833">
	<path d="m931.9 62.205c0.099 0.086 0.201 0.151 0.3 0.183l-0.3-0.183z"/>
	<path d="m926.04 50.715s-0.808 0.088-1.698 1.705c-1.189-5.778-1.963-7.399-1.963-7.399s0.198 2.028-0.326 7.075c-4.217-14.729-4.479-11.895-4.479-11.895s3.771 11.117 1.751 18.427l-0.01 0.119c-0.133 1.246-0.297 2.056-0.5 2.248 0 0 1.856 0.284 4.658 0 2.802-0.285 4.203-0.968 4.203-0.968-5.57-3.196-1.63-9.312-1.63-9.312z"/>
	<path d="m925.24 60.221l-0.208 0.066c0.07-0.004 0.14-0.027 0.21-0.066z"/>
	<path d="m922.63 59.145l-0.089 0.05c0.03-0.002 0.06-0.021 0.09-0.05z"/>
</g>
<g fill="#8B9833">
	<path d="m1598.4 133.01c0.074 0.063 0.149 0.112 0.223 0.135l-0.2-0.13z"/>
	<path d="m1594.1 124.51s-0.597 0.065-1.255 1.262c-0.88-4.274-1.451-5.473-1.451-5.473s0.146 1.5-0.241 5.233c-3.119-10.893-3.312-8.799-3.312-8.799s2.788 8.224 1.295 13.629l-0.008 0.088c-0.098 0.923-0.219 1.521-0.369 1.663 0 0 1.372 0.21 3.445 0 2.071-0.211 3.107-0.716 3.107-0.716-4-2.35-1.1-6.88-1.1-6.88z"/>
	<path d="m1593.5 131.54l-0.153 0.049c0.1 0 0.1-0.02 0.2-0.05z"/>
	<path d="m1591.5 130.75l-0.066 0.036c0.1-0.01 0.1-0.02 0.1-0.04z"/>
</g>
<g fill="#8B9833">
	<path d="m1798.3 125.13c0.074 0.063 0.149 0.112 0.223 0.135l-0.2-0.13z"/>
	<path d="m1793.9 116.63s-0.597 0.065-1.255 1.262c-0.88-4.274-1.451-5.473-1.451-5.473s0.146 1.5-0.241 5.233c-3.119-10.893-3.312-8.799-3.312-8.799s2.788 8.224 1.295 13.629l-0.008 0.088c-0.098 0.923-0.219 1.521-0.369 1.663 0 0 1.372 0.21 3.445 0 2.071-0.211 3.107-0.716 3.107-0.716-4-2.35-1.1-6.88-1.1-6.88z"/>
	<path d="m1793.4 123.66l-0.153 0.049s0.1-0.02 0.2-0.05z"/>
	<path d="m1791.4 122.87l-0.066 0.036c0.1-0.01 0.1-0.02 0.1-0.04z"/>
</g>
<polygon points="1352.2 54.263 1298.1 98.808 1296.3 96.55 1351.2 52.888" fill="#966B26"/>
<path d="m1311.4 89.653l41.5-34.204 12.436-6.453-2.512-3.981-12.012 8.155 0.278 0.441-42.098 34.697-1.188-0.673-26.701 24.213 3.271 2.13c1.328 1.499 8.658-2.944 16.107-9.546s12.41-13.168 11.082-14.667c-0.1-0.046-0.1-0.073-0.2-0.11z" fill="#592F1A"/>
<path d="m1307.8 87.636c1.327 1.498-3.635 8.064-11.084 14.666-2.275 2.017-4.52 3.803-6.577 5.27-4.678 3.334-8.393 5.012-9.314 3.971-1.327-1.498 3.634-8.064 11.083-14.666s14.6-10.736 15.9-9.238z" fill="#F3F4C3"/>
<polygon points="1309.3 87.823 1289.6 104.19 1289.4 103.74 1310.3 86.664 1310.2 86.586 1289.4 103.64 1289.2 103.21 1309.5 86.852 1309.5 86.773 1289.2 103.11 1289 102.65 1308.4 87.227 1308.3 87.148 1289 102.55 1288.7 101.62 1288.2 101.78 1288.6 102.88 1283.7 106.77 1283.8 106.85 1288.6 102.98 1288.8 103.44 1283.9 107.4 1283.9 107.48 1288.8 103.54 1289 103.97 1284.1 107.99 1284.1 108.07 1289 104.07 1289.2 104.53 1284.4 108.52 1284.4 108.6 1289.2 104.63 1289.5 105.55 1290 105.38 1289.6 104.3 1309.4 87.9" fill="#966B26"/>
<g fill="#8B9833">
	<path d="m1223.8 145.65c-0.142-0.17-0.197-0.817-0.186-1.806l0.002-0.094c-0.911-5.906 3.058-14.262 3.058-14.262s0.055-2.242-4.594 8.899c0.051-3.998 0.392-5.568 0.392-5.568s-0.752 1.198-2.213 5.613c-0.549-1.349-1.172-1.49-1.172-1.49s2.524 5.147-2.133 7.138 1.033 0.663 3.2 1.143 3.6 0.43 3.6 0.43z"/>
	<path d="m2201 151.3c-84.004 5.967-286 0.738-315.33-2.967-55.073-6.959-139.26-1.283-154.32-0.178-5.259-0.304-18.525-0.857-41.342-0.486-5.302 0.086-9.427 1.115-13.875 2.281-0.027-2.422 0.82-5.099 0.82-5.099s-1.897-1.187-3.023 1.543c-1.549-5.545-2.729-7.12-2.729-7.12s0.172 1.937-1.135 6.707c-5.959-14.185-6.635-11.506-6.635-11.506s3.447 10.244 1.467 17.587c-0.17-0.014-0.344-0.035-0.523-0.074l0.494 0.187c-0.032 0.115-0.064 0.207-0.098 0.314-4.063 0.635-8.841 1.037-14.853 0.928-0.423-0.008-0.855-0.025-1.284-0.039-0.255-3.91 3.082-9.464 3.082-9.464s-2.244-2.27-4.703 1.146c-0.325-8.202-1.444-10.776-1.444-10.776s-0.398 2.742-3.78 8.934c-3.602-21.643-5.422-18.148-5.422-18.148s1.412 15.35-3.751 24.886c-0.231-0.074-0.466-0.162-0.701-0.274l0.624 0.42c-0.399 0.726-0.772 1.313-1.114 1.75-14.478-1.889-30.426-4.972-45.307-6.431 0.048-0.194 0.081-0.312 0.081-0.312s-0.789-0.458-1.491 0.18c-0.319-0.029-0.64-0.061-0.958-0.088-1.026-3.017-1.731-3.908-1.731-3.908s0.125 1.094-0.429 3.735c-0.243-0.018-0.486-0.038-0.729-0.055-4.041-8.662-4.432-6.905-4.432-6.905s1.146 3.112 1.576 6.729c-6.515-0.345-12.715-0.251-18.363 0.547-8.758 1.237-17.159 2.192-25.296 2.943 0.148-2.894 1.062-5.761 1.062-5.761s-2.484-1.554-3.958 2.021c-2.028-7.259-3.573-9.321-3.573-9.321s0.226 2.533-1.484 8.781c-7.802-18.572-8.688-15.065-8.688-15.065s3.768 11.209 2.434 20.478c-16.891 1.134-32.734 1.484-48.3 1.719 0.067-0.119 0.112-0.196 0.112-0.196s-0.943-0.948-2.045 0.225c-0.101 0.002-0.201 0.003-0.301 0.004-0.178-3.79-0.699-5-0.699-5s-0.197 1.358-1.873 4.427c-1.785-10.725-2.688-8.993-2.688-8.993s0.473 5.185-0.802 9.653c-12.032 0.167-23.982 0.339-36.21 0.831-3.393 0.136-6.857 0.326-10.346 0.546-3.385-5.259 0.887-11.896 0.887-11.896s-1.311 0.143-2.756 2.77c-1.934-9.387-3.188-12.02-3.188-12.02s0.323 3.296-0.53 11.492c-6.85-23.922-7.273-19.32-7.273-19.32s6.03 17.797 2.909 29.67c-14.43 1.102-28.545 2.488-39.143 2.955-10.579 0.466-28.747 1.238-49.691 2.053-1.343-13.198 2.14-29.473 2.14-29.473s-0.797-4.959-7.817 21.294c-1.538-8.831-1.336-14.903-1.336-14.903s-1.39 5.405-3.215 15.666c-1.326-5.051-3.562-2.855-3.562-2.855s1.216 5.997 0.929 10.764c-1.727 0.065-3.463 0.13-5.209 0.194 0.143-1.246 0.404-2.275 0.404-2.275s-1.139-0.884-1.815 1.15c-0.93-4.133-1.638-5.307-1.638-5.307s0.104 1.442-0.681 4.999c-3.577-10.572-3.983-8.576-3.983-8.576s1.432 5.309 1.221 10.247c-34.533 1.252-71.381 2.372-92.843 2.394-1.364-2.715 0.037-9.542 0.037-9.542s-1.458-1.412-2.322 1.84c-1.189-6.61-2.097-8.488-2.097-8.488s0.133 2.308-0.871 7.997c-4.577-16.914-5.097-13.72-5.097-13.72s2.646 12.216 1.127 20.971l-0.023 0.134c-0.043 0.244-0.088 0.467-0.132 0.681-33.127-1.139-48.733-10.069-83.182-9.057 0.055-3.249 1.146-6.674 1.146-6.674s-2.637-1.646-4.201 2.144c-2.15-7.701-3.79-9.889-3.79-9.889s0.239 2.688-1.575 9.315c-8.275-19.701-9.216-15.981-9.216-15.981s3.988 11.863 2.587 21.688c-25.586 0.972-45.282 1.161-62.541 0.941 0.397-0.927 0.809-1.617 0.809-1.617s-1.112-1.124-2.331 0.568c-0.16-4.064-0.715-5.34-0.715-5.34s-0.197 1.358-1.873 4.427c-1.785-10.725-2.687-8.993-2.687-8.993s0.559 6.147-1.189 10.823c-19.972-0.408-37.198-1.321-57.714-2.083-4.921-0.183-9.875-0.551-14.839-1.018-0.539-1.792 0.946-3.625 0.946-3.625s-0.638 0.055-1.34 1.067c-0.939-3.619-1.55-4.635-1.55-4.635s0.157 1.271-0.257 4.432c-3.33-9.225-3.537-7.45-3.537-7.45s2.307 5.404 1.767 9.821c-25.189-2.646-50.542-7.743-73.531-7.436-6.394 0.085-12.698 0.263-18.851 0.508-0.78-4.723 1.017-11.595 1.017-11.595s-2.783-2.121-4.435 2.76c-2.272-9.915-4.003-12.729-4.003-12.729s0.253 3.461-1.662 11.99c-8.738-25.362-9.73-20.572-9.73-20.572s4.933 17.89 2.243 30.981c-13.182 0.8-25.263 1.846-35.475 2.88-2.662-7.768-0.696-18.46-0.696-18.46s-1.174-2.858-5.519 13.789c-2.202-5.074-2.319-7.244-2.319-7.244s-1.057 1.93-1.891 8.314c-1.68-2.843-3.592-1.229-3.592-1.229s1.598 3.299 1.788 6.154c-12.91 1.49-20.63 2.67-20.63 2.67s-37.768 1.822-62.979 3.338c-34.715 2.086-69.524 3.165-165.69-5.76-166-15.407-160 0.036-266.67 3.83s-255.33-0.1-273.66 0v10.097s171.67 9.333 328.33 0 229.33 0.514 283.33 4.333c53.994 3.819 153.81 0.581 162.91-3.209 25.13-3.124 109.31-11.834 198.54-1.411 212.52 24.824 369.88 5.674 468.41 2.42 56.63-1.87 144.78-2.238 209.52-2.213 0.133 0.097 0.268 0.186 0.408 0.252l-0.374-0.252c47.87 0.019 82.925 0.252 82.925 0.252v-0.212h766v-14.293c0.1-0.01-214.9-3.01-298.9 2.96z"/>
</g>
<path d="m2201 154.85c-84.004 5.967-286 0.738-315.33-2.967-60.666-7.666-156.67 0-156.67 0v0.052c-6.375 0.33-19.027 0.862-38.992 1.187-13.042 0.212-18.964 3.985-40.089 3.603-26.372-0.478-64.199-7.698-90.276-4.015-50.835 7.181-89.893 0.978-132.31 2.682-20.625 0.829-43.843 5.931-59.44 6.618-31.84 1.403-132.38 3.151-170.64 2.943-38.235-0.207-53.382-8.425-91.917-6.713-69.08 3.068-97.562-1.544-140.39-3.136-31.182-1.159-63.608-6.104-92.34-5.72-55.029 0.736-163.73 9.993-213.23 9.993-8.44 0.02-175.3-10.48-219.44-10.86-74.885-0.643-167 10.5-220.5 11s-219.5-3.5-219.5-3.5v12.711l767-0.607s99.468-14.878 206.12-2.42c212.52 24.824 369.88 5.674 468.41 2.42 89.17-2.944 256.51-2.165 287.48-1.991v0.06h771v-14.29s-215-3-299 2.97z" fill="#592F1A"/>
<path d="m2201 158.08c-84.004 5.967-286 0.738-315.33-2.967-60.666-7.666-156.67 0-156.67 0v0.032c-6.375 0.33-19.027 0.862-38.992 1.187-13.042 0.212-18.964 3.985-40.089 3.603-26.372-0.478-64.199-7.698-90.276-4.015-50.835 7.181-89.893 0.978-132.31 2.682-20.625 0.829-43.843 5.931-59.44 6.618-31.84 1.403-132.38 3.151-170.64 2.943-38.235-0.207-53.382-8.425-91.917-6.713-69.08 3.068-97.562-1.544-140.39-3.136-31.182-1.159-63.608-6.104-92.34-5.72-55.09 0.74-103.67 5.09-103.67 5.09s-157.32 9.928-233.33-0.53-186.57-0.823-242 3.52c-76.75 6.01-293.67-4.67-293.67-4.67v18.915s136.32 18.243 402.41-1.664c52.35-3.93 268.09 15.74 370.59-2.76 22.833-4.12 108.94-12.26 200.12-1.609 212.52 24.824 433.55-1.838 468.41 2.42 43.812 5.353 114.48-11.647 252.56-0.63 89.202 7.118 805.92-1.281 805.92-1.281v-14.29s-215-3-299 2.97z" fill="#7A501E"/>
<path d="m1375.1 95.064c0.033-0.101 0.35-0.336 0.16-1.506-0.165-1.015-0.26-1.301-0.444-1.54-0.139-0.179-0.241-0.447-0.212-0.398 0.025 0.047 0.493-0.011 0.316-0.079-0.643-0.253-0.678-1.383-0.461-2.143 0.08-0.285-0.173-1.25-0.501-1.671-0.312-0.396-0.471-0.754-0.582-0.859 0.13 0.074 0.24 0.012 0.217-0.009-0.417-0.352-0.483-0.808-0.723-1.043-0.717-0.705-1.426-0.717-2.211-0.775 0.167-0.146-0.006-0.613-0.063-0.459-0.115 0.321-1.091 0.536-2.153 0.678-1.264 0.17-1.571-0.483-2.936-0.197-0.934 0.196-1.326 0.38-1.585 0.938-0.164 0.354-0.321 0.389-0.321 0.389-0.306-0.044-1.536-0.026-2.138 1.027-0.544 0.953-0.634 2.283-0.799 2.475-0.05 0.053 0.218-0.015 0.271-0.09-0.004 0.502 0.287 1.25 0.379 1.373 0.169 0.221 0.529 0.79 0.29 1.066-0.614 1.093 0.266 3.301 0.479 3.453 0.165 0.114 0.202 0.147 0.229 0.43 0.218 2.145 0.929 2.167 1.116 2.451 0.164 0.247-0.103 0.349 0.267 0.856 0.217 0.3 0.254 0.446 0.262 0.8 0.002 0.108 0.249-0.203 0.248-0.332 0.107 0.306 0.437 0.829 0.689 1.235 0.265 0.423 0.889 0.635 1.081 1.045 0.047 0.104 0.187-0.251 0.132-0.473 0.268 0.559 0.764 0.637 1.178 0.952 0.323 0.246 0.503 0.479 0.78 0.539 0.273 0.059 0.669 0.17 0.725 0.273 0.023 0.046 0.095-0.09 0.046-0.286 0.28 0.308 0.919 0.293 1.477 0.69 0 0 0.17 0.138 0.159 0.088-0.016-0.072 0.081-0.228 0.132-0.278 0.285-0.276 0.643-0.383 0.755-0.754 0.085-0.281 0.556-0.235 0.852-0.429 0.521-0.337 0.552-0.605 0.566-0.755 0.031 0.108 0.222 0.202 0.217 0.183-0.072-0.304 0.505-0.637 0.601-0.875 0.157-0.388 0.47-0.564 0.595-0.802 0.165-0.321 0.135-0.971 0.111-1.032 0.05 0.047 0.218 0.196 0.202 0.076-0.01-0.07 0.02-0.096 0.233-0.418 0.494-0.739 0.363-1.367 0.307-1.71-0.081-0.507 0.058-0.223 0.205-0.223 0.146 0-0.483-0.35-0.184-0.819 0.1-0.421-0.1-0.949-0.1-1.05zm-0.9-1.312c0.312 1.373-0.603 2.33-1.882 2.599-0.039 0.008 0.146-0.468-0.091-0.173-0.114 0.143-0.437 0.302-0.622 0.328-0.2 0.029-0.406 0.048-0.605 0.067-0.754 0.071-1.527 0.134-1.784 0.549-0.081 0.193-0.039 0.175-0.232 0.049-0.475-0.314-1.143-0.341-1.533-0.619-1.117-0.799-0.73-0.848-1.312-1.346-0.515-0.442-0.667-0.614-0.856-0.681-0.199-0.075 0.108 0.389 0.421 0.927 0.339 0.588 0.095 0.821 0.232 1.127-0.158-0.273-0.319-0.346-0.303-0.285 0.082 0.284-0.637 0.897-0.785 1.67-0.091 0.486-0.09 0.023-0.463-0.495-0.856-1.189-0.94-1.213-0.977-1.891-0.02-0.438-0.267-1.052-0.418-1.13-0.151-0.075 0.174-0.148 0.301 0.036 0.167 0.241 0.115-0.115-0.166-0.345-0.402-0.333-0.27-0.845-0.259-1.558 0.011-0.716-0.125-1.134-0.446-1.672-0.082-0.138 0.023-0.096 0.149-0.005 0.24 0.166 0.242 0.404 0.569 0.429 0.327 0.026-0.154-0.128-0.104-0.717 0.051-0.587-0.334-1.782-0.517-2.036-0.033-0.081-0.013-0.078 0.037-0.038 0.321 0.266 1.048 0.151 1.33 0.338 0.634 0.442 0.826 0.663 1.256 1.354 0.158 0.254 0.283 0.854 0.268 1.021 0 0.024 0.17-0.062 0.164-0.134 0.255 0.456 0.559 1.086 1.145 1.418 0.537 0.306-0.193-0.69-0.084-1.231 0.189-0.939-0.141-1.536-0.383-2.492-0.241-0.959-0.345-0.424 1.07-0.636 0.851-0.127 1.43-0.217 2.394-0.525 0.352-0.111 0.465 0.096 1.057-0.008 0.157-0.028-0.249-0.179-0.193-0.302 0.641 0.094 2.063 0.172 2.479 2.03 0.446 2-1.922 2.336-2.362 2.202-0.161-0.05 0.068 0.186 0.185 0.236 0.203 0.084 0.361 0.087 0.752 0.042-0.119 0.145-0.034 0.294-0.017 0.262 0.091-0.183 0.309-0.332 0.607-0.357 1.3-0.103 1.8 0.958 2 1.992z" fill="#966B26"/>
<g fill="#8B9833">
	<path d="m1274.2 118.03c-0.067 0.078-0.138 0.144-0.21 0.18l0.2-0.18z"/>
	<path d="m1277.3 108.34s0.639-0.038 1.541 1.104c0.172-4.646 0.562-6.007 0.562-6.007s0.109 1.603 1.175 5.457c1.359-11.996 1.932-9.827 1.932-9.827s-1.483 9.13 1.039 14.548l0.023 0.091c0.265 0.952 0.497 1.559 0.681 1.683 0 0-1.405 0.462-3.62 0.606s-3.392-0.206-3.392-0.206c3.9-3.2 0.1-7.44 0.1-7.44z"/>
	<path d="m1279.1 115.62l0.171 0.025c-0.1 0.01-0.1 0-0.2-0.02z"/>
	<path d="m1281 114.44l0.075 0.026s-0.1-0.01-0.1-0.03z"/>
</g>
</svg>
