<?xml version="1.0" encoding="UTF-8" standalone="no"?>
<!-- Generator: Adobe Illustrator 16.0.4, SVG Export Plug-In . SVG Version: 6.00 Build 0)  -->
<!DOCTYPE svg  PUBLIC '-//W3C//DTD SVG 1.1//EN'  'http://www.w3.org/Graphics/SVG/1.1/DTD/svg11.dtd'>
<svg id="Layer_1" xmlns="http://www.w3.org/2000/svg" xml:space="preserve" height="63.777px" viewBox="0 0 215.749 63.777" width="215.75px" version="1.1" y="0px" x="0px" xmlns:xlink="http://www.w3.org/1999/xlink" enable-background="new 0 0 215.749 63.777">
<path d="m42.877 38.404c0.172-0.3 1.344-0.841 1.522-4.705 0.156-3.355 0.045-4.334-0.387-5.22-0.324-0.666-0.474-1.591-0.412-1.415 0.049 0.169 1.584 0.297 1.068-0.038-1.887-1.241-1.242-4.877-0.042-7.16 0.449-0.857 0.288-4.11-0.478-5.678-0.73-1.478-0.996-2.729-1.285-3.138 0.367 0.323 0.76 0.198 0.697 0.115-1.094-1.403-1-2.904-1.606-3.818-1.819-2.73-4.079-3.249-6.546-3.963 0.629-0.353 0.389-1.963 0.105-1.506-0.588 0.947-3.845 0.978-7.34 0.719-4.151-0.301-4.699-2.597-9.25-2.597-3.118 0-4.496 0.328-5.695 1.937-0.764 1.022-1.289 1.029-1.289 1.029-0.949-0.346-4.896-1.115-7.521 1.849-2.38 2.682-3.56 6.872-4.215 7.375-0.194 0.139 0.704 0.099 0.927-0.107-0.352 1.602 0.077 4.192 0.289 4.644 0.388 0.816 1.162 2.88 0.211 3.605-2.695 3.08-1.367 10.727-0.786 11.355 0.448 0.478 0.546 0.607 0.444 1.53-0.744 7.002 1.516 7.547 1.926 8.581 0.354 0.9-0.562 1.049 0.273 2.915 0.493 1.107 0.515 1.597 0.303 2.737-0.066 0.345 0.935-0.483 1.016-0.896 0.137 1.051 0.839 2.942 1.378 4.408 0.563 1.53 2.411 2.629 2.749 4.064 0.084 0.363 0.768-0.675 0.74-1.421 0.482 1.966 2.016 2.552 3.125 3.834 0.871 1.004 1.286 1.868 2.137 2.246 0.832 0.37 2.022 0.993 2.131 1.36 0.043 0.158 0.363-0.225 0.34-0.888 0.689 1.174 2.737 1.557 4.256 3.199 0 0 0.448 0.554 0.448 0.388 0-0.241 0.415-0.674 0.608-0.797 1.094-0.693 2.312-0.796 2.92-1.906 0.461-0.84 1.932-0.378 3.008-0.799 1.891-0.729 2.17-1.563 2.32-2.031 0.024 0.364 0.572 0.792 0.572 0.729-0.033-1.021 2.035-1.696 2.504-2.393 0.762-1.134 1.879-1.486 2.436-2.166 0.748-0.916 1.086-3.014 1.051-3.223 0.123 0.184 0.561 0.771 0.592 0.38 0.018-0.23 0.129-0.294 1.029-1.179 2.072-2.033 2.076-4.127 2.127-5.262 0.078-1.677 0.332-0.674 0.805-0.575 0.471 0.099-1.311-1.44-0.038-2.741 1.168-1.207 0.664-3.077 0.833-3.377zm-1.86-4.768c0.074 4.595-3.488 7.044-7.761 7.045-0.13 0.001 0.782-1.398-0.173-0.613-0.461 0.381-1.6 0.672-2.207 0.631-0.665-0.043-1.334-0.118-1.982-0.192-2.457-0.277-4.973-0.597-6.068 0.562-0.389 0.56-0.244 0.532-0.776 0-1.31-1.321-3.425-1.857-4.485-3.007-3.041-3.304-1.77-3.197-3.292-5.182-1.347-1.758-1.72-2.409-2.28-2.753-0.588-0.37 0.088 1.317 0.723 3.249 0.688 2.105-0.247 2.688-0.014 3.759-0.321-0.983-0.789-1.32-0.772-1.115 0.069 0.962-2.64 2.439-3.63 4.812-0.62 1.494-0.307 0.017-1.155-1.891-1.938-4.377-2.188-4.51-1.848-6.7 0.226-1.415-0.147-3.544-0.581-3.892-0.434-0.343 0.654-0.358 0.938 0.315 0.377 0.884 0.447-0.287-0.297-1.215-1.064-1.334-0.299-2.881 0.215-5.152 0.516-2.282 0.36-3.711-0.303-5.643-0.168-0.497 0.139-0.293 0.482 0.079 0.652 0.694 0.502 1.454 1.53 1.754 1.028 0.302-0.409-0.512 0.151-2.36 0.557-1.848 0.131-5.922-0.288-6.855-0.048-0.284 0.016-0.256 0.143-0.099 0.853 1.067 3.249 1.188 4.027 1.975 1.728 1.84 2.192 2.675 3.105 5.171 0.334 0.919 0.334 2.918 0.173 3.443-0.021 0.073 0.58-0.083 0.612-0.318 0.508 1.629 1.058 3.845 2.704 5.302 1.511 1.337-0.152-2.339 0.56-3.994 1.233-2.875 0.581-5.005 0.451-8.222-0.13-3.227-0.817-1.586 3.845-1.315 2.801 0.163 4.717 0.267 8.004-0.072 1.199-0.123 1.423 0.617 3.383 0.683 0.519 0.016-0.673-0.74-0.415-1.096 1.983 0.731 6.476 1.934 6.558 8.15 0.089 6.695-7.707 6.181-9.027 5.455-0.484-0.267 0.097 0.639 0.435 0.877 0.591 0.406 1.094 0.521 2.372 0.644-0.475 0.382-0.307 0.918-0.229 0.822 0.416-0.522 1.21-0.851 2.182-0.732 4.12 0.515 4.93 4.227 4.99 7.69z" fill="#fff"/>
<g fill="#fff">
	<path d="m53.925 6.006s0.153 16.787 0.153 22.47c0 0.254-0.052 0.825 0.304 0.825 1.651 0 1.99-0.013 2.672-0.013 0.29 0 0.565 0.013 0.565-0.457v-18.525c0-1.124 0.545-1.463 1.183-0.454 2.079 3.284 9.601 15.879 12.189 19.086 0.335 0.412 0.602 0.315 1.654 0.315 2.642 0 3.337 0.226 3.337-0.354 0-0.806-0.019-17.614-0.019-23.188 0-0.293-0.109-0.365-0.55-0.365h-2.294c-0.295 0-0.605-0.033-0.605 0.373v18.383c0 0.715-0.442 1.311-1.072 0.317-2.654-4.146-8.57-14.271-11.675-18.604-0.239-0.334-0.38-0.457-1.069-0.457h-4.05c-0.432 0-0.723 0.06-0.723 0.648z"/>
	<path d="m122.38 5.391s-15.925-0.006-20.948-0.006c-0.141 0-0.403-0.074-0.403 0.416v2.52c0 0.208 0.368 0.218 0.674 0.218h7.403c0.225 0 0.51 0.123 0.516 0.507 0.012 0.441 0 14.821 0 19.624 0 0.291-0.061 0.665 0.331 0.665h3.063c0.188 0 0.149-0.347 0.149-0.681v-19.593c0-0.405 0.285-0.527 0.527-0.527h8.796c0.285 0 0.245-0.145 0.245-0.715 0-0.672-0.002-1.422 0-2.07 0-0.31-0.11-0.351-0.36-0.358z"/>
	<path d="m127.43 5.385h-2.005s-0.633-0.104-0.633 0.42v14.381c0 2.221 1.206 5.104 2.355 6.297 1.261 1.309 3.178 2.852 7.662 2.852 4.997 0 6.693-1.54 7.803-2.621 1.588-1.535 2.201-4.055 2.201-6.594 0-2.358-0.125-11.085-0.125-14.47 0-0.184-0.086-0.271-0.392-0.271-0.61 0-2.159-0.002-2.745-0.002-0.479 0-0.396 0.059-0.396 1.052 0 2.367 0.084 12.363 0.047 13.697-0.152 5.448-3.356 5.993-6.163 5.993-2.53 0-6.567-0.82-6.567-6.271 0-2.628 0.008-10.609 0.008-13.955 0.01-0.472-0.38-0.508-1.04-0.508z"/>
	<path d="m196.22 5.259c-0.245 0-0.363-0.075-0.363 0.63 0 1.018 0.055 17.455 0.055 22.629 0 0.684 0.025 0.934 0.504 0.934h18.211c0.391 0 1.102 0.043 1.102-0.437v-1.923c0-0.863 0.215-1.023-0.839-1.023h-13.284s-0.869 0.012-1.6 0.012c-0.44 0-0.643-0.071-0.643-0.543 0-4.842-0.047-18.814-0.047-19.684 0-0.22 0.081-0.572-0.383-0.584-0.89-0.014-2.72-0.011-2.72-0.011z"/>
	<path d="m71.626 42.88c1.591-0.138 4.418-0.251 4.293-5.265-0.088-3.391-2.318-5.032-4.596-5.032h-15.266s-0.309 0-1.537 0c-0.318 0-0.492 0.071-0.492 0.959v22.27c0 0.423 0 0.896 1.158 0.896h14.137c2.692 0 6.848-0.355 6.848-7.362 0-5.186-2.945-6.466-4.545-6.466zm-14.16-2.29v-3.709c0.014-1.271 0.895-1.226 0.895-1.226h0.816 10.025c1.045 0 3.408-0.363 3.408 3.136 0 3.073-3.219 2.824-3.219 2.824s-9.709 0-10.943 0c-1.064 0-0.982-1.025-0.982-1.025zm10.793 13.024h-9.82c-0.468 0-1.006-0.146-1.006-0.867v-1.123l0.004-6.261c0-0.8 1.191-0.703 1.191-0.703h9.799c2.785 0 4.271 1.31 4.271 4.476 0 4.745-4.439 4.478-4.439 4.478z"/>
	<path d="m79.089 33.542v22.186s-0.1 0.972 1.239 0.972h17.581c0.275 0 1.01 0.077 1.01-0.495 0-0.711-0.018-1.406-0.018-1.915 0-0.582-0.336-0.711-1.096-0.711h-13.4s-0.6 0-0.975 0c-0.308 0-0.765-0.194-0.765-0.774 0-1.086-0.026-7.481-0.026-7.481s-0.084-0.714 0.672-0.714h10.308s0.325 0 0.427 0c0.591 0 0.942 0.082 0.942-0.927 0-1.493 0.211-2.173-0.757-2.173h-10.906c-0.202 0-0.687 0-0.687-0.752 0-0.743-0.021-3.079-0.021-4.229 0-0.446 0.342-0.729 1.004-0.729h14.63c0.403 0 0.622-0.055 0.622-1.065 0-1.799 0.141-2.124-0.925-2.124-1.038 0-12.612-0.014-18.133-0.014-0.625-0.001-0.726 0.475-0.726 0.945z"/>
	<path d="m141.2 44.192c0.808-0.136 4.873-0.578 4.873-5.715 0-4.755-2.85-5.787-7-5.786-2.961 0.009-9.495 0-12.826 0-0.727 0-0.94-0.058-0.94 0.425 0 0 0.003 17.369 0.003 23.273 0 0.275-0.033 0.358 0.943 0.358 1.086 0 1.125-0.035 1.641-0.035 0.604 0 0.635-0.082 0.635-0.86 0-1.47-0.051-8.328-0.043-10.054 0.012-0.666 0.232-1.3 0.779-1.3 2.832 0 4.366 0.041 7.331 0.041 0.589-0.014 0.638 0.33 0.909 1.109 0.195 0.569 2.817 8.183 3.547 10.695 0.134 0.452 0.48 0.403 1.016 0.403h1.904c0.855 0 0.491-0.104 0.265-0.83-0.521-1.665-2.746-8.259-3.507-10.945-0.19-0.666 0.09-0.718 0.47-0.779zm-1.69-2.707c-2.026 0-8.662 0.023-9.893 0.023-1.223 0-1.171-0.677-1.171-0.999v-3.787c0-0.763 0.222-1.038 1.298-1.038 2.333 0 8.041-0.037 10.11-0.037 2.219 0 3.016 0.862 3.016 2.83-0.01 2.343-1.47 3.008-3.37 3.008z"/>
	<path d="m122.06 56.313c-0.609-1.479-6.246-17.254-8.703-23.227-0.24-0.594 0.057-0.464-1.432-0.464h-0.453c-1.81 0-1.761-0.14-1.949 0.399-0.336 0.948-7.031 17.316-9.115 23.182-0.091 0.255-0.267 0.593 0.236 0.593 1.154-0.011 1.434 0.01 2.09-0.003 0.703-0.008 0.928 0.003 1.113-0.49 0.452-1.179 3.099-8.34 4.033-10.934 0.284-0.791 0.636-0.811 1.018-0.811 0.453 0 2.637 0.004 4.219 0.004 0.75 0 1.168 0.041 1.405 0.654 0.267 0.67 3.458 9.161 4.175 11.034 0.159 0.413 0.283 0.545 0.663 0.545h2.056c0.2 0.002 0.83 0.012 0.62-0.482zm-9.3-14.845c-0.61 0.013-2.14 0.027-2.878 0.029-0.041 0-0.457-0.125-0.257-0.751 0.629-1.944 1.021-3.063 1.49-4.494 0.225-0.683 0.397-0.729 0.726 0.293 0.472 1.494 1.112 3.362 1.362 4.222 0.1 0.319 0.07 0.701-0.44 0.701z"/>
	<path d="m169.17 44.754c0-5.486-1.004-6.954-1.91-8.403-0.838-1.347-2.889-3.688-7.453-3.688h-9.236c-0.443 0-1.279-0.085-1.279 0.52v22.993c0 0.602 0.44 0.522 2.246 0.522 2.697 0 6.045 0.035 8.037-0.09 1.975-0.128 4.686-0.621 6.861-3.287 1.3-1.586 2.73-3.689 2.73-8.567zm-5.34 6.877c-1.822 1.831-3.602 1.825-4.94 1.825h-5.706c-0.618 0-0.723-0.399-0.723-0.835v-1.83l0.023-14.123c0-0.723 0.217-0.903 1.026-0.903 1.519 0 3.825 0.012 5.722 0.012 1.938 0 3.775 0.482 5.412 2.263 1.596 1.734 1.342 4.672 1.342 6.876 0 2.221-0.27 4.841-2.15 6.715z"/>
	<path d="m173.44 32.625h-2.33c-0.865 0-1.037-0.021-0.834 0.246 1.154 1.512 6.52 8.064 8.424 10.307 0.361 0.424 1.258 1.337 1.258 1.665v11.332c0 0.736 0.331 0.522 1.559 0.522 1.414 0 1.566 0.022 1.566-0.545v-11.272c0-0.413 0.085-0.645 0.74-1.396 1.369-1.572 6.574-7.605 8.877-10.412 0.341-0.427 0.318-0.495 0.036-0.484-0.756 0.027-2.519 0.021-2.929 0.021-0.313 0-0.535-0.097-0.823 0.253-0.707 0.838-5.15 6.415-6.892 8.49-0.473 0.554-0.576 0.896-1.242 0.054-0.927-1.175-4.91-6.121-6.484-8.171-0.36-0.436-0.44-0.61-0.95-0.61z"/>
	<path d="m199.28 32.583"/>
	<path d="m192.35 33.145"/>
	<path d="m181.03 33.145"/>
	<path d="m164.74 16.882c0.804-0.127 4.864-0.581 4.864-5.717 0-4.748-2.848-5.786-6.992-5.78-2.961 0.006-9.494 0-12.826 0-0.729 0-0.941-0.06-0.941 0.425v23.266c0 0.276-0.026 0.355 0.945 0.355 1.086 0 1.127-0.02 1.644-0.02 0.597 0 0.632-0.086 0.632-0.866 0-1.471-0.051-8.329-0.044-10.061 0.004-0.663 0.234-1.298 0.788-1.298 2.824 0 4.358 0.04 7.324 0.04 0.589-0.007 0.638 0.335 0.909 1.108 0.193 0.573 2.817 8.186 3.548 10.7 0.131 0.459 0.478 0.4 1.015 0.4h1.903c0.855 0 0.49-0.102 0.266-0.829-0.521-1.669-2.747-8.256-3.506-10.942-0.18-0.668 0.1-0.719 0.48-0.781zm-1.69-2.707c-2.027 0-8.668 0.022-9.887 0.022-1.232 0-1.176-0.673-1.176-0.997v-3.788c0-0.757 0.219-1.038 1.297-1.038 2.334 0 8.044-0.032 10.115-0.032 2.208 0 3.008 0.861 3.008 2.823 0 2.345-1.46 3.01-3.36 3.01z"/>
	<path d="m101.94 28.933c-0.611-1.477-6.246-17.247-8.704-23.228-0.242-0.584 0.057-0.462-1.433-0.462h-0.454c-1.808 0-1.758-0.134-1.949 0.406-0.332 0.941-7.028 17.311-9.112 23.174-0.093 0.261-0.271 0.6 0.236 0.594 1.155-0.006 1.437 0.009 2.091 0 0.705-0.012 0.922 0.006 1.113-0.493 0.453-1.176 3.098-8.341 4.032-10.931 0.28-0.796 0.634-0.813 1.021-0.813 0.453 0 2.633 0.006 4.218 0.006 0.747 0 1.156 0.035 1.403 0.649 0.268 0.673 3.459 9.167 4.168 11.038 0.162 0.412 0.287 0.544 0.671 0.544h2.052c0.23 0 0.85 0.01 0.65-0.484zm-9.306-14.84c-0.61 0.01-2.134 0.022-2.877 0.022-0.037 0-0.455-0.123-0.252-0.747 0.627-1.946 1.017-3.062 1.49-4.492 0.225-0.685 0.396-0.733 0.725 0.293 0.473 1.489 1.109 3.36 1.361 4.217 0.094 0.316 0.061 0.707-0.447 0.707z"/>
	<path d="m192.43 29.019c-0.606-1.475-6.242-17.241-8.705-23.224-0.233-0.595 0.06-0.466-1.429-0.466h-0.454c-1.811 0-1.755-0.134-1.953 0.403-0.326 0.949-7.024 17.319-9.113 23.186-0.094 0.253-0.266 0.594 0.238 0.585 1.156-0.004 1.436 0.009 2.088 0 0.707-0.004 0.926 0.009 1.115-0.488 0.457-1.177 3.105-8.348 4.032-10.93 0.287-0.793 0.636-0.817 1.021-0.817 0.451 0 2.634 0.006 4.221 0.006 0.743 0 1.16 0.039 1.405 0.652 0.262 0.675 3.453 9.162 4.172 11.036 0.158 0.412 0.279 0.541 0.662 0.541h2.052c0.23 0 0.86 0.015 0.65-0.484zm-9.3-14.835c-0.605 0.011-2.141 0.021-2.88 0.024-0.04 0-0.456-0.122-0.249-0.751 0.628-1.945 1.017-3.062 1.488-4.494 0.223-0.683 0.396-0.729 0.721 0.297 0.477 1.486 1.113 3.354 1.365 4.216 0.08 0.316 0.06 0.708-0.45 0.708z"/>
</g>
</svg>
