<?xml version="1.0" encoding="UTF-8" standalone="no"?>
<!-- Generator: Adobe Illustrator 16.0.4, SVG Export Plug-In . SVG Version: 6.00 Build 0)  -->
<!DOCTYPE svg  PUBLIC '-//W3C//DTD SVG 1.1//EN'  'http://www.w3.org/Graphics/SVG/1.1/DTD/svg11.dtd'>
<svg id="Layer_1" xmlns="http://www.w3.org/2000/svg" xml:space="preserve" height="32.689px" viewBox="0 0 26.24 32.689" width="26.24px" version="1.1" y="0px" x="0px" xmlns:xlink="http://www.w3.org/1999/xlink" enable-background="new 0 0 26.24 32.689">
<path d="m26.174 23.175v-12.505s0.517-1.653-9.39-1.986l5.129-7.103c0.279-0.386 0.192-0.925-0.194-1.204-0.385-0.278-0.925-0.191-1.204 0.194l-5.113 7.081-2.639-4.396c-0.245-0.409-0.776-0.541-1.184-0.296-0.409 0.245-0.541 0.775-0.296 1.184l2.693 4.486c-0.3-0.002-0.598-0.004-0.912-0.004-13.689 0-13.06 2.044-13.06 2.044v19.666s-0.647 2.045 13.108 2.045c13.688 0 13.061-2.045 13.061-2.045v-7.161zm-21.084 7.287c-0.596 0-1.079-0.481-1.079-1.077 0-0.597 0.483-1.078 1.079-1.078s1.079 0.481 1.079 1.078c-0.001 0.596-0.483 1.077-1.079 1.077zm13.103 0c-0.597 0-1.079-0.481-1.079-1.077 0-0.597 0.482-1.078 1.079-1.078 0.596 0 1.078 0.481 1.078 1.078 0 0.596-0.482 1.077-1.078 1.077zm3.021 0c-0.598 0-1.079-0.481-1.079-1.077 0-0.597 0.481-1.078 1.079-1.078 0.594 0 1.078 0.481 1.078 1.078 0 0.596-0.484 1.077-1.078 1.077zm-8.106-4.007c-11.133 0-10.609-1.654-10.609-1.654v-12.256s-0.51-1.655 10.57-1.655c11.133 0 10.608 1.655 10.608 1.655v12.256c0.001 0 0.511 1.654-10.569 1.654z" fill="#fff"/>
</svg>
