<?xml version="1.0" encoding="UTF-8" standalone="no"?>
<!-- Generator: Adobe Illustrator 16.0.4, SVG Export Plug-In . SVG Version: 6.00 Build 0)  -->
<!DOCTYPE svg  PUBLIC '-//W3C//DTD SVG 1.1//EN'  'http://www.w3.org/Graphics/SVG/1.1/DTD/svg11.dtd'>
<svg id="Layer_1" xmlns="http://www.w3.org/2000/svg" xml:space="preserve" height="30.613px" viewBox="0 0 21.322 30.613" width="21.322px" version="1.1" y="0px" x="0px" xmlns:xlink="http://www.w3.org/1999/xlink" enable-background="new 0 0 21.322 30.613">
<path d="m20.591 18.443c0.082-0.145 0.646-0.404 0.731-2.26 0.075-1.611 0.021-2.082-0.187-2.508-0.155-0.318-0.228-0.764-0.197-0.68 0.023 0.082 0.76 0.145 0.513-0.018-0.905-0.596-0.597-2.342-0.021-3.438 0.216-0.412 0.14-1.975-0.228-2.727-0.352-0.709-0.479-1.31-0.617-1.507 0.176 0.155 0.364 0.096 0.334 0.056-0.525-0.674-0.48-1.395-0.771-1.834-0.873-1.311-1.958-1.56-3.143-1.902 0.303-0.17 0.187-0.943 0.051-0.724-0.283 0.455-1.848 0.469-3.525 0.345-1.995-0.143-2.259-1.246-4.444-1.246-1.496 0-2.159 0.157-2.735 0.93-0.367 0.491-0.619 0.494-0.619 0.494-0.455-0.166-2.351-0.535-3.612 0.888-1.142 1.288-1.71 3.3-2.023 3.541-0.094 0.068 0.338 0.047 0.446-0.05-0.17 0.769 0.035 2.013 0.138 2.23 0.185 0.39 0.558 1.383 0.101 1.732-1.295 1.479-0.657 5.15-0.378 5.451 0.215 0.23 0.262 0.293 0.213 0.736-0.356 3.361 0.729 3.623 0.925 4.119 0.171 0.434-0.271 0.506 0.132 1.4 0.238 0.531 0.247 0.768 0.145 1.314-0.031 0.166 0.449-0.23 0.489-0.43 0.064 0.504 0.402 1.412 0.661 2.117 0.27 0.734 1.157 1.262 1.319 1.951 0.041 0.174 0.369-0.324 0.355-0.682 0.231 0.943 0.97 1.225 1.502 1.842 0.417 0.48 0.616 0.895 1.026 1.078 0.399 0.178 0.97 0.477 1.023 0.652 0.02 0.076 0.174-0.107 0.161-0.426 0.332 0.562 1.315 0.746 2.045 1.535 0 0 0.216 0.268 0.216 0.188 0-0.117 0.197-0.324 0.292-0.383 0.525-0.334 1.11-0.383 1.402-0.916 0.222-0.402 0.927-0.182 1.443-0.383 0.908-0.35 1.042-0.752 1.115-0.977 0.011 0.174 0.274 0.381 0.274 0.35-0.017-0.49 0.978-0.814 1.202-1.148 0.366-0.543 0.901-0.713 1.169-1.041 0.36-0.439 0.521-1.445 0.506-1.547 0.059 0.088 0.269 0.371 0.284 0.184 0.008-0.111 0.062-0.143 0.493-0.566 0.995-0.977 0.997-1.982 1.021-2.527 0.038-0.805 0.16-0.324 0.387-0.277 0.227 0.049-0.629-0.691-0.018-1.314 0.564-0.579 0.322-1.48 0.404-1.622zm-0.894-2.291c0.036 2.207-1.675 3.383-3.728 3.383-0.062 0 0.376-0.67-0.082-0.293-0.222 0.184-0.77 0.322-1.061 0.303-0.32-0.021-0.64-0.057-0.951-0.094-1.181-0.133-2.389-0.285-2.914 0.271-0.188 0.268-0.118 0.256-0.374 0-0.628-0.635-1.644-0.893-2.154-1.445-1.46-1.586-0.849-1.535-1.58-2.488-0.646-0.844-0.826-1.156-1.095-1.322-0.283-0.178 0.042 0.633 0.347 1.561 0.329 1.012-0.119 1.291-0.006 1.807-0.155-0.473-0.38-0.635-0.372-0.537 0.034 0.463-1.267 1.172-1.742 2.311-0.298 0.719-0.148 0.008-0.556-0.906-0.931-2.102-1.051-2.166-0.887-3.219 0.109-0.68-0.071-1.701-0.278-1.867-0.208-0.166 0.313-0.172 0.449 0.15 0.181 0.424 0.215-0.137-0.142-0.582-0.512-0.643-0.144-1.385 0.102-2.477 0.248-1.096 0.174-1.781-0.145-2.709-0.081-0.24 0.066-0.141 0.231 0.039 0.312 0.332 0.241 0.697 0.734 0.842 0.497 0.143-0.193-0.248 0.076-1.136 0.266-0.888 0.063-2.844-0.139-3.291-0.023-0.137 0.009-0.123 0.069-0.048 0.41 0.513 1.561 0.57 1.935 0.947 0.829 0.884 1.053 1.285 1.491 2.485 0.16 0.441 0.16 1.4 0.083 1.652-0.01 0.035 0.278-0.039 0.295-0.152 0.243 0.781 0.507 1.846 1.297 2.545 0.727 0.643-0.072-1.123 0.27-1.918 0.592-1.379 0.279-2.402 0.216-3.947-0.062-1.551-0.392-0.763 1.847-0.633 1.345 0.078 2.266 0.128 3.845-0.034 0.576-0.06 0.682 0.296 1.623 0.327 0.25 0.008-0.321-0.354-0.198-0.525 0.952 0.352 3.109 0.928 3.148 3.914 0.044 3.217-3.701 2.969-4.335 2.621-0.231-0.129 0.047 0.305 0.209 0.42 0.283 0.195 0.525 0.25 1.139 0.309-0.228 0.184-0.146 0.441-0.109 0.395 0.199-0.25 0.582-0.408 1.048-0.35 1.976 0.246 2.365 2.029 2.394 3.691z" fill="#fff"/>
</svg>
